rangeens.sfdir
StartChar: quotedbl
Encoding: 34 34 1
Width: 246
Flags: HW
LayerCount: 2
Fore
SplineSet
77 759 m 0
 65 759 55 749 55 737 c 0
 55 736 l 2
 57 670 l 2
 57 658 67 649 79 649 c 0
 91 649 101 659 101 671 c 0
 101 672 l 2
 99 738 l 2
 99 750 89 759 77 759 c 0
106 671 m 0
 106 656 94 644 79 644 c 0
 64 644 52 656 52 670 c 2
 50 736 l 2
 50 737 l 0
 50 752 62 764 77 764 c 0
 92 764 104 752 104 738 c 2
 106 672 l 2
 106 671 l 0
167 762 m 0
 155 762 145 752 145 740 c 0
 145 739 l 2
 147 673 l 2
 147 661 157 652 169 652 c 0
 181 652 191 662 191 674 c 0
 191 675 l 2
 189 741 l 2
 189 753 179 762 167 762 c 0
196 674 m 0
 196 659 184 647 169 647 c 0
 154 647 142 659 142 673 c 2
 140 739 l 2
 140 740 l 0
 140 755 152 767 167 767 c 0
 182 767 194 755 194 741 c 2
 196 675 l 2
 196 674 l 0
EndSplineSet
EndChar
StartChar: percent
Encoding: 37 37 4
Width: 556
Flags: HW
LayerCount: 2
Fore
SplineSet
428 402 m 0
 383 402 355 360 355 317 c 0
 355 274 383 232 428 232 c 0
 473 232 501 274 501 317 c 0
 501 360 473 402 428 402 c 0
428 227 m 0
 380 227 350 271 350 317 c 0
 350 363 380 407 428 407 c 0
 476 407 506 363 506 317 c 0
 506 271 476 227 428 227 c 0
428 353 m 0
 414 353 404 334 404 317 c 0
 404 300 413 281 428 281 c 0
 442 281 452 300 452 317 c 0
 452 334 443 353 428 353 c 0
428 276 m 0
 410 276 399 297 399 317 c 0
 399 337 410 358 428 358 c 0
 446 358 457 337 457 317 c 0
 457 297 446 276 428 276 c 0
128 702 m 0
 83 702 55 660 55 617 c 0
 55 574 83 532 128 532 c 0
 173 532 201 574 201 617 c 0
 201 660 173 702 128 702 c 0
128 527 m 0
 80 527 50 571 50 617 c 0
 50 663 80 707 128 707 c 0
 176 707 206 663 206 617 c 0
 206 571 176 527 128 527 c 0
128 653 m 0
 114 653 104 634 104 617 c 0
 104 600 113 581 128 581 c 0
 142 581 152 600 152 617 c 0
 152 634 143 653 128 653 c 0
128 576 m 0
 110 576 99 597 99 617 c 0
 99 637 110 658 128 658 c 0
 146 658 157 637 157 617 c 0
 157 597 146 576 128 576 c 0
441 647 m 0
 441 659 431 669 419 669 c 0
 412 669 405 666 401 660 c 2
 71 195 l 2
 68 191 67 187 67 182 c 0
 67 170 77 160 89 160 c 0
 96 160 103 163 107 169 c 2
 437 634 l 2
 440 638 441 642 441 647 c 0
89 155 m 0
 74 155 62 167 62 182 c 0
 62 188 64 193 67 198 c 2
 397 663 l 2
 402 670 410 674 419 674 c 0
 434 674 446 662 446 647 c 0
 446 641 444 636 441 631 c 2
 111 166 l 2
 106 159 98 155 89 155 c 0
EndSplineSet
EndChar
StartChar: parenright
Encoding: 41 41 8
Width: 208
Flags: HW
LayerCount: 2
Fore
SplineSet
153 467 m 0
 153 607 163 1005 77 1005 c 0
 65 1005 55 995 55 983 c 0
 55 966 70 960 76 937 c 0
 108 807 109 661 109 467 c 0
 109 288 114 92 71 -22 c 0
 67 -32 55 -35 55 -49 c 0
 55 -61 65 -71 77 -71 c 0
 163 -71 153 327 153 467 c 0
158 467 m 0
 158 322 170 -76 77 -76 c 0
 62 -76 50 -64 50 -49 c 0
 50 -39 56 -29 64 -25 c 1
 111 83 104 291 104 467 c 0
 104 663 118 837 64 959 c 1
 56 964 50 973 50 983 c 0
 50 998 62 1010 77 1010 c 0
 170 1010 158 612 158 467 c 0
EndSplineSet
EndChar
StartChar: three
Encoding: 51 51 19
Width: 483
Flags: HW
LayerCount: 2
Fore
SplineSet
266 -168 m 0
 190 -168 145 -114 77 -114 c 0
 65 -114 55 -124 55 -136 c 0
 55 -175 216 -213 266 -213 c 0
 354 -213 428 -177 428 -79 c 0
 428 68 279 126 188 182 c 0
 187 182 186 183 186 184 c 0
 186 185 187 185 187 185 c 2
 383 396 l 2
 387 400 389 405 389 411 c 0
 389 423 378 433 366 433 c 2
 78 433 l 2
 66 433 56 423 56 411 c 0
 56 399 66 389 78 389 c 2
 309 389 l 2
 310 389 311 387 311 386 c 0
 311 385 311 384 311 384 c 2
 134 194 l 2
 130 190 128 185 128 179 c 0
 128 149 204 120 219 112 c 0
 284 77 383 18 383 -79 c 0
 383 -147 339 -168 266 -168 c 0
193 184 m 1
 284 128 433 69 433 -79 c 0
 433 -180 355 -218 266 -218 c 0
 213 -218 50 -180 50 -136 c 0
 50 -121 62 -109 77 -109 c 0
 146 -109 191 -163 266 -163 c 0
 337 -163 378 -144 378 -79 c 0
 378 53 216 100 135 156 c 0
 128 161 123 170 123 179 c 0
 123 186 125 193 130 198 c 2
 303 384 l 1
 78 384 l 2
 63 384 51 396 51 411 c 0
 51 426 63 438 78 438 c 2
 366 438 l 2
 381 438 394 426 394 411 c 0
 394 404 392 397 387 392 c 2
 193 184 l 1
EndSplineSet
EndChar
StartChar: greater
Encoding: 62 62 57
Width: 388
Flags: HW
LayerCount: 2
Fore
SplineSet
77 657 m 0
 65 657 55 647 55 635 c 0
 55 629 56 623 61 619 c 2
 278 412 l 2
 278 412 278 411 278 410 c 0
 278 409 278 408 278 408 c 2
 73 191 l 2
 69 187 67 182 67 176 c 0
 67 164 77 154 89 154 c 0
 95 154 101 156 105 161 c 2
 327 396 l 2
 331 400 333 405 333 411 c 0
 333 417 332 423 327 427 c 2
 93 651 l 2
 89 655 83 657 77 657 c 0
89 149 m 0
 74 149 62 161 62 176 c 0
 62 183 64 190 69 195 c 2
 272 410 l 1
 58 615 l 2
 52 620 50 628 50 635 c 0
 50 650 62 662 77 662 c 0
 84 662 91 660 96 655 c 2
 330 431 l 2
 336 426 338 418 338 411 c 0
 338 404 336 397 331 392 c 2
 109 157 l 2
 104 151 96 149 89 149 c 0
EndSplineSet
EndChar
StartChar: at
Encoding: 64 64 59
Width: 772
Flags: HW
LayerCount: 2
Fore
SplineSet
278 328 m 0
 328 328 362 274 419 274 c 0
 431 274 441 284 441 296 c 0
 441 308 431 318 419 318 c 0
 373 318 337 372 278 372 c 0
 189 372 174 283 174 196 c 2
 175 176 l 2
 175 44 292 -20 410 -20 c 0
 474 -20 501 37 504 99 c 0
 504 100 506 102 507 102 c 0
 535 102 557 16 611 16 c 0
 700 16 717 95 717 185 c 0
 717 344 571 477 413 477 c 0
 202 477 55 391 55 179 c 0
 55 3 170 -191 359 -191 c 0
 366 -191 531 -194 638 -194 c 0
 681 -194 717 -151 717 -109 c 0
 717 -97 707 -87 695 -87 c 0
 679 -87 664 -109 664 -127 c 0
 664 -141 651 -150 638 -150 c 0
 534 -150 380 -147 359 -147 c 0
 197 -147 99 27 99 179 c 0
 99 366 221 433 413 433 c 0
 545 433 673 319 673 185 c 0
 673 125 671 60 611 60 c 0
 559 60 548 173 492 173 c 0
 461 173 460 140 460 110 c 0
 460 71 449 24 410 24 c 0
 312 24 219 71 219 176 c 2
 219 193 l 2
 219 252 220 328 278 328 c 0
104 179 m 0
 104 29 200 -142 359 -142 c 0
 381 -142 534 -145 638 -145 c 0
 649 -145 659 -137 659 -127 c 0
 659 -105 676 -82 695 -82 c 0
 710 -82 722 -94 722 -109 c 0
 722 -155 684 -199 638 -199 c 0
 374 -199 281 -229 165 -113 c 0
 91 -39 50 71 50 179 c 0
 50 394 200 482 413 482 c 0
 573 482 722 347 722 185 c 0
 722 94 704 11 611 11 c 0
 561 11 530 62 509 92 c 1
 504 32 475 -25 410 -25 c 0
 289 -25 170 42 170 176 c 2
 169 196 l 2
 169 284 185 377 278 377 c 0
 338 377 374 323 419 323 c 0
 434 323 446 311 446 296 c 0
 446 281 434 269 419 269 c 0
 361 269 327 323 278 323 c 0
 224 323 224 248 224 193 c 2
 224 176 l 2
 224 74 314 29 410 29 c 0
 445 29 455 73 455 110 c 0
 455 143 458 178 492 178 c 0
 550 178 561 65 611 65 c 0
 667 65 668 126 668 185 c 0
 668 316 542 428 413 428 c 0
 222 428 104 363 104 179 c 0
EndSplineSet
EndChar
StartChar: L
Encoding: 76 76 39
Width: 663
Flags: HW
LayerCount: 2
Fore
SplineSet
342 750 m 0
 342 778 339 803 307 803 c 0
 215 803 177 740 176 653 c 0
 176 649 148 647 145 649 c 0
 120 667 105 804 77 804 c 0
 65 804 55 794 55 782 c 0
 55 720 79 603 146 603 c 0
 156 603 166 605 176 605 c 0
 185 605 223 284 223 253 c 1
 223 253 223 151 213 151 c 0
 190 151 165 177 133 177 c 0
 131 177 l 0
 123 177 116 179 108 179 c 0
 84 179 63 165 63 139 c 0
 63 84 107 -4 169 -4 c 0
 211 -4 227 62 242 62 c 0
 243 62 244 61 244 61 c 0
 278 26 317 -15 380 -15 c 0
 502 -15 608 25 608 151 c 0
 608 162 607 168 601 174 c 2
 573 202 l 2
 569 206 563 208 557 208 c 0
 545 208 535 198 535 186 c 0
 535 180 538 174 542 170 c 2
 562 149 l 2
 562 149 563 149 563 148 c 0
 561 52 475 30 380 30 c 0
 351 30 255 82 255 116 c 0
 255 170 268 228 268 253 c 0
 268 378 223 491 223 614 c 0
 223 615 224 617 225 617 c 0
 282 636 342 678 342 750 c 0
58 139 m 0
 58 167 82 184 108 184 c 0
 116 184 124 183 132 182 c 0
 133 182 l 0
 164 182 189 172 211 158 c 1
 217 200 218 252 218 253 c 0
 218 370 185 484 174 600 c 1
 165 599 155 598 146 598 c 0
 75 598 50 717 50 782 c 0
 50 797 62 809 77 809 c 0
 114 809 120 674 148 653 c 1
 156 653 163 654 171 655 c 1
 172 743 213 808 307 808 c 0
 341 808 347 782 347 750 c 0
 347 676 285 632 228 612 c 1
 239 490 273 377 273 253 c 0
 273 228 270 171 260 117 c 1
 291 85 331 35 380 35 c 0
 472 35 556 55 558 147 c 1
 538 167 l 2
 533 172 530 179 530 186 c 0
 530 201 542 213 557 213 c 0
 564 213 572 210 577 205 c 2
 605 177 l 2
 612 170 613 162 613 151 c 0
 613 22 505 -20 380 -20 c 0
 317 -20 276 21 243 55 c 1
 231 25 209 -9 169 -9 c 0
 103 -9 58 83 58 139 c 0
EndSplineSet
EndChar
StartChar: O
Encoding: 79 79 42
Width: 563
Flags: HW
LayerCount: 2
Fore
SplineSet
105 289 m 0
 105 174 130 92 202 41 c 1
 206 41 l 2
 245 41 288 29 326 29 c 0
 403 29 458 318 458 375 c 0
 458 444 434 512 407 577 c 1
 404 532 375 425 318 425 c 0
 303 425 290 437 290 452 c 0
 290 461 294 469 301 474 c 0
 334 499 353 542 353 592 c 0
 353 663 314 741 241 741 c 0
 156 741 117 658 117 578 c 2
 117 532 l 2
 117 454 105 368 105 289 c 0
241 746 m 0
 318 746 358 666 358 592 c 0
 358 541 338 496 304 470 c 0
 299 466 295 459 295 452 c 0
 295 440 306 430 318 430 c 0
 378 430 399 591 405 591 c 0
 434 591 463 399 463 375 c 0
 462 313 408 24 326 24 c 0
 287 24 245 36 206 36 c 2
 201 36 l 2
 192 36 175 57 170 62 c 0
 115 117 100 191 100 289 c 0
 100 368 112 454 112 532 c 2
 112 578 l 2
 112 660 153 746 241 746 c 0
240 791 m 0
 125 791 67 681 67 578 c 2
 67 532 l 1
 64 453 55 369 55 289 c 0
 55 156 89 56 182 -5 c 0
 186 -7 190 -8 194 -8 c 2
 206 -8 l 2
 243 -8 286 -20 326 -20 c 0
 446 -20 508 276 508 376 c 0
 508 496 450 621 391 718 c 0
 387 724 380 728 372 728 c 0
 369 728 366 727 363 727 c 0
 359 727 347 745 344 748 c 0
 318 774 282 791 240 791 c 0
326 -25 m 0
 285 -25 243 -13 206 -13 c 2
 194 -13 l 2
 171 -13 146 15 134 27 c 0
 66 95 50 179 50 289 c 0
 50 369 59 453 62 532 c 1
 62 578 l 2
 62 683 122 796 240 796 c 0
 293 796 337 768 364 732 c 0
 367 733 369 733 372 733 c 0
 382 733 390 728 395 720 c 0
 454 623 513 498 513 376 c 0
 513 272 450 -25 326 -25 c 0
EndSplineSet
EndChar
StartChar: R
Encoding: 82 82 45
Width: 678
Flags: HW
LayerCount: 2
Fore
SplineSet
337 358 m 0
 361 358 342 -20 497 -20 c 0
 541 -20 597 34 610 65 c 2
 622 93 l 2
 623 96 623 99 623 102 c 0
 623 114 613 124 601 124 c 0
 592 124 583 119 580 111 c 2
 571 88 l 2
 563 70 518 24 497 24 c 0
 399 24 387 263 387 364 c 1
 449 401 549 453 549 548 c 0
 549 721 440 808 258 808 c 0
 125 808 88 666 88 538 c 0
 88 526 99 516 111 516 c 0
 166 516 124 764 257 764 c 0
 265 764 275 762 285 762 c 0
 430 762 504 685 504 548 c 0
 504 500 432 411 380 411 c 0
 359 411 342 540 285 540 c 0
 261 540 254 498 252 498 c 0
 245 498 224 626 224 640 c 0
 224 645 225 649 225 654 c 0
 225 666 215 676 203 676 c 0
 185 676 178 658 178 640 c 0
 178 519 234 387 234 258 c 0
 234 231 236 209 236 181 c 0
 236 121 235 6 177 6 c 0
 157 6 115 32 115 52 c 0
 115 69 139 67 139 88 c 0
 139 100 129 111 116 111 c 0
 100 111 55 64 55 43 c 0
 55 15 140 -38 177 -38 c 0
 271 -38 281 86 281 181 c 0
 281 209 279 231 279 258 c 0
 279 319 261 379 261 437 c 0
 261 438 263 439 264 439 c 0
 282 439 299 358 337 358 c 0
497 -25 m 0
 343 -25 357 215 338 353 c 0
 337 353 l 0
 307 353 281 396 270 418 c 1
 279 366 284 313 284 258 c 0
 284 231 286 209 286 181 c 0
 286 83 275 -43 177 -43 c 0
 132 -43 95 -14 76 16 c 1
 62 17 50 30 50 43 c 0
 50 67 97 116 116 116 c 0
 132 116 144 103 144 88 c 0
 144 69 130 63 120 51 c 1
 127 34 154 11 177 11 c 0
 230 11 231 125 231 181 c 0
 231 209 230 231 230 258 c 0
 230 387 174 519 174 640 c 0
 174 662 182 681 203 681 c 0
 218 681 230 669 230 654 c 0
 230 649 230 644 229 640 c 0
 235 600 243 558 251 518 c 1
 255 532 269 545 285 545 c 0
 338 545 370 460 382 417 c 1
 430 435 500 491 500 548 c 0
 500 682 428 757 285 757 c 0
 275 757 265 759 257 759 c 0
 123 759 176 511 111 511 c 0
 96 511 84 523 84 538 c 0
 84 668 121 813 258 813 c 0
 443 813 554 723 554 548 c 0
 554 458 465 386 393 362 c 1
 406 268 394 29 497 29 c 0
 522 29 550 76 566 91 c 1
 576 113 l 2
 580 122 590 129 601 129 c 0
 616 129 628 117 628 102 c 0
 628 98 627 94 626 91 c 2
 614 63 l 2
 600 29 545 -25 497 -25 c 0
EndSplineSet
EndChar
StartChar: S
Encoding: 83 83 46
Width: 586
Flags: HW
LayerCount: 2
Fore
SplineSet
289 757 m 0
 206 757 184 759 184 678 c 0
 184 587 228 531 282 485 c 1
 319 557 350 623 350 716 c 0
 350 752 330 757 289 757 c 0
289 762 m 0
 332 762 355 755 355 716 c 0
 355 621 323 553 285 479 c 0
 285 478 284 478 283 478 c 0
 275 478 259 498 254 503 c 0
 210 547 179 599 179 678 c 0
 179 762 203 762 289 762 c 0
240 229 m 1
 254 246 274 254 296 254 c 0
 348 254 410 210 410 153 c 0
 410 125 384 81 351 81 c 0
 309 81 287 103 282 110 c 1
 291 74 313 3 349 3 c 0
 423 3 482 86 482 154 c 0
 482 284 381 341 301 400 c 1
 275 348 256 293 240 229 c 1
296 199 m 0
 279 199 274 189 274 162 c 0
 274 155 276 144 278 131 c 1
 280 143 292 153 305 153 c 0
 312 153 319 151 324 146 c 1
 324 146 332 138 344 136 c 1
 350 140 355 146 355 152 c 0
 355 177 314 199 296 199 c 0
345 131 m 0
 318 131 324 148 305 148 c 0
 293 148 283 138 283 126 c 0
 283 108 306 86 351 86 c 0
 381 86 405 127 405 153 c 0
 405 207 345 249 296 249 c 0
 270 249 246 214 234 214 c 0
 233 214 232 215 232 216 c 0
 232 247 280 406 300 406 c 0
 329 406 399 332 417 314 c 0
 459 272 487 225 487 154 c 0
 487 83 426 -2 349 -2 c 0
 300 -2 269 117 269 162 c 0
 269 191 276 204 296 204 c 0
 318 204 360 180 360 152 c 0
 360 147 353 131 345 131 c 0
77 -28 m 0
 151 -28 190 141 222 173 c 0
 223 173 225 171 225 170 c 0
 225 167 225 165 225 162 c 0
 225 86 266 -46 349 -46 c 0
 453 -46 531 58 531 154 c 0
 531 310 413 378 321 447 c 0
 320 447 320 448 320 449 c 0
 321 450 l 0
 361 527 399 606 399 716 c 0
 399 781 348 806 289 806 c 0
 178 806 135 789 135 678 c 0
 135 563 194 492 261 437 c 0
 262 437 262 436 262 435 c 0
 262 394 212 326 199 273 c 0
 173 169 153 64 67 20 c 0
 60 16 55 8 55 0 c 2
 55 -6 l 2
 55 -18 65 -28 77 -28 c 0
77 -33 m 0
 62 -33 50 -21 50 -6 c 2
 50 0 l 2
 50 25 91 40 105 54 c 0
 185 134 204 331 256 434 c 1
 189 489 130 562 130 678 c 0
 130 791 175 811 289 811 c 0
 350 811 404 784 404 716 c 0
 404 606 365 526 326 450 c 1
 418 381 536 312 536 154 c 0
 536 55 456 -51 349 -51 c 0
 263 -51 224 76 220 153 c 1
 199 85 163 19 102 -18 c 1
 98 -27 88 -33 77 -33 c 0
EndSplineSet
EndChar
StartChar: W
Encoding: 87 87 50
Width: 919
Flags: HW
LayerCount: 2
Fore
SplineSet
175 758 m 1
 119 758 123 686 77 686 c 0
 62 686 50 698 50 713 c 0
 50 759 122 812 176 812 c 0
 234 812 230 731 278 731 c 0
 280 731 282 732 284 731 c 0
 305 748 303 803 340 803 c 0
 362 803 369 784 369 765 c 0
 369 536 287 325 287 98 c 0
 287 21 307 23 377 23 c 0
 440 23 442 65 478 93 c 1
 494 178 l 2
 496 190 508 200 521 200 c 0
 536 200 548 188 548 174 c 2
 551 42 l 1
 553 33 558 11 565 11 c 0
 727 11 756 171 756 337 c 0
 756 366 758 507 740 507 c 0
 724 507 712 503 697 503 c 0
 618 503 542 561 542 644 c 0
 542 723 595 815 677 815 c 0
 760 815 782 650 795 576 c 1
 824 601 l 2
 829 606 835 608 842 608 c 0
 857 608 869 596 869 581 c 0
 869 573 866 566 860 561 c 2
 827 531 l 2
 822 526 813 521 803 515 c 1
 807 458 811 404 811 338 c 0
 811 143 764 -44 565 -44 c 0
 522 -44 501 -2 497 35 c 1
 466 0 446 -31 377 -31 c 0
 276 -31 233 -1 233 98 c 0
 233 302 292 490 309 682 c 1
 302 678 294 675 285 675 c 0
 214 675 213 733 175 758 c 1
176 807 m 0
 125 807 55 756 55 713 c 0
 55 701 65 691 77 691 c 0
 121 691 118 763 176 763 c 0
 202 763 229 680 285 680 c 0
 295 680 304 689 312 689 c 0
 313 689 315 687 315 686 c 0
 315 492 238 303 238 98 c 0
 238 1 278 -26 377 -26 c 0
 448 -26 463 8 497 43 c 0
 497 43 498 44 499 44 c 0
 509 44 518 -39 565 -39 c 0
 760 -39 806 146 806 338 c 0
 806 404 798 458 798 516 c 0
 798 521 823 533 824 534 c 2
 857 564 l 2
 862 568 864 575 864 581 c 0
 864 593 854 603 842 603 c 0
 837 603 831 602 827 598 c 2
 795 569 l 2
 795 569 795 568 794 568 c 0
 766 568 767 810 677 810 c 0
 598 810 547 720 547 644 c 0
 547 564 621 508 697 508 c 0
 712 508 724 512 740 512 c 0
 767 512 761 372 761 337 c 0
 761 168 730 6 565 6 c 0
 555 6 546 29 546 41 c 2
 543 174 l 2
 543 186 533 195 521 195 c 0
 510 195 501 187 499 177 c 2
 483 91 l 2
 477 57 419 18 377 18 c 0
 304 18 282 19 282 98 c 0
 282 325 364 536 364 765 c 0
 364 782 359 798 340 798 c 0
 303 798 312 726 285 726 c 0
 283 726 280 726 278 726 c 0
 228 726 233 807 176 807 c 0
576 656 m 0
 576 685 629 766 656 766 c 0
 689 766 750 683 750 653 c 0
 750 613 706 542 683 542 c 0
 657 542 576 606 576 656 c 0
656 762 m 0
 633 762 581 682 581 656 c 0
 581 609 661 547 683 547 c 0
 700 547 744 614 744 653 c 0
 744 679 685 762 656 762 c 0
EndSplineSet
EndChar
StartChar: X
Encoding: 88 88 51
Width: 940
Flags: HW
LayerCount: 2
Fore
SplineSet
723.980008324 760.369460052 m 1
 706.790364678 757.023752777 571.484994558 704.426931958 543.5 684 c 1
 543.5 679.072114788 534.415635762 646.49498208 522.917328765 604.221282444 c 0
 503.228515851 531.835063887 476.424444444 432.610183115 476.424723429 414.252422778 c 1
 479.276914904 415.819690053 486.176751927 419.80002837 495.000793003 425.860955425 c 0
 550.108181375 463.712299933 656.750469144 545.323312201 686.5 578 c 1
 686.5 582.565656951 691.604939425 603.251712725 698.058555528 630.232132359 c 0
 709.116046295 676.45981871 724.168208617 739.885253496 724.168208617 757.658492171 c 0
 724.168208617 758.829064895 724.07955929 759.765186946 723.980008324 760.369460052 c 1
538.5 684 m 0
 538.5 690.558773754 550.942210189 695.039600798 557.520963957 698.448469021 c 0
 589.628946996 715.085644837 712.222421673 765.5 725 765.5 c 0
 728.992757543 765.5 729.169887785 761.075577373 729.169887785 758.388328572 c 0
 729.169887785 758.126685909 729.168208617 757.881511389 729.168208617 757.658492171 c 0
 729.168208617 738.296964114 714.022247552 675.4741021 702.921692149 629.066376852 c 0
 696.5352948 602.366976441 691.5 580.660089985 691.5 578 c 0
 691.5 575.234233183 689.179224615 573.157910203 686.381546716 570.22800967 c 0
 682.702290277 566.374865816 677.06591168 561.176542163 669.924752636 554.944307697 c 0
 629.702429705 519.841469947 556.578490978 463.703316765 513.774477413 432.969094577 c 0
 493.604309786 418.486471061 479.758702647 408.5 475 408.5 c 0
 471.658718678 408.5 471.417583043 411.810263885 471.417583043 413.592867363 c 0
 471.417583043 413.893565306 471.424444444 414.15079439 471.424444444 414.341333333 c 0
 471.424444444 434.640328402 498.330530903 532.881655619 518.091997412 605.534986215 c 0
 529.490905586 647.443244574 538.5 681.386986342 538.5 684 c 0
150 524 m 2
 150 533 l 2
 150 571 135 609 135 650 c 2
 135 688 l 2
 135 733 227 754 275 754 c 0
 363 754 337 701 382 657 c 2
 382 657 383 657 383 656 c 2
 393 583 l 1
 388 460 l 1
 388 459 l 1
 339 324 l 2
 339 323 338 322 337 322 c 0
 254 275 55 193 55 74 c 0
 55 35 77 -47 122 -47 c 0
 220 -47 287 111 319 175 c 2
 367 271 l 2
 367 272 368 272 368 273 c 2
 375 291 l 2
 378 299 430 330 441 330 c 0
 442 330 444 329 444 328 c 0
 464 161 567 3 761 3 c 0
 839 3 885 36 885 116 c 0
 885 138 841 165 822 168 c 2
 786 174 l 2
 785 174 783 174 782 174 c 0
 770 174 760 164 760 152 c 0
 760 141 768 132 778 130 c 2
 809 125 l 2
 814 124 840 109 840 104 c 0
 840 56 806 48 760 48 c 0
 593 48 487 200 487 356 c 0
 487 357 487 358 488 358 c 0
 614 437 775 559 775 753 c 0
 775 764 774 777 774 788 c 0
 774 811 755 821 731 821 c 0
 721 821 713 819 704 819 c 0
 489 819 441 592 441 384 c 0
 441 380 409 361 403 361 c 0
 402 361 401 362 401 363 c 2
 401 364 l 1
 431 447 l 2
 432 449 432 452 432 454 c 2
 438 583 l 1
 438 587 l 1
 426 671 l 2
 417 733 355 798 275 798 c 0
 202 798 91 765 91 692 c 2
 91 650 l 2
 91 610 105 571 105 532 c 0
 105 531 105 530 105 528 c 0
 105 514 115 502 128 502 c 0
 140 502 150 512 150 524 c 2
443 588 m 1
 443 583 l 1
 437 454 l 2
 437 451 437 449 436 446 c 2
 408 369 l 1
 417 374 427 379 436 385 c 1
 437 615 491 826 731 826 c 0
 757 826 779 814 779 788 c 0
 779 777 780 764 780 753 c 0
 780 557 617 434 492 355 c 1
 503 202 589 53 760 53 c 0
 807 53 831 59 835 103 c 1
 827 108 816 115 808 120 c 1
 777 125 l 2
 764 127 755 138 755 152 c 0
 755 167 767 179 782 179 c 0
 784 179 785 179 787 179 c 2
 823 173 l 2
 845 169 890 142 890 116 c 0
 890 34 842 -2 761 -2 c 0
 565 -2 460 156 439 323 c 1
 419 311 399 300 379 289 c 1
 377 282 375 275 372 269 c 2
 324 173 l 2
 290 106 224 -52 122 -52 c 0
 73 -52 50 32 50 74 c 0
 50 194 251 279 334 326 c 1
 383 460 l 1
 388 583 l 1
 378 654 l 1
 333 699 361 749 275 749 c 0
 217 749 156 731 140 688 c 1
 140 650 l 2
 140 609 155 571 155 533 c 2
 155 524 l 2
 155 509 143 497 128 497 c 0
 111 497 100 512 100 528 c 0
 100 529 100 531 100 532 c 0
 89 571 86 610 86 650 c 2
 86 692 l 2
 86 770 199 803 275 803 c 0
 385 803 367 736 422 689 c 0
 427 685 430 678 431 672 c 2
 443 588 l 1
110.5 57 m 0
 110.5 69.6064683064 113.5 80.5748356011 113.5 93 c 0
 113.5 93.2867660136 113.548387297 93.5623197505 113.637435677 93.8189349975 c 0
 134.748467951 154.655670424 198.280938331 186.739755668 246.473336695 223.97929122 c 0
 246.646766051 224.113304651 246.838262624 224.225047167 247.043524362 224.310216715 c 0
 255.107357716 227.656154679 262.686960539 233.803877339 269.058362767 239.014030433 c 0
 274.667519671 243.600864721 279.418829462 248.082563726 284.139178307 248.082563726 c 0
 289.631358889 248.082563726 290.949627022 242.095231112 290.949627022 234.412750906 c 0
 290.949627022 229.836011582 290.486828486 223.856146789 289.528090632 216.071174963 c 0
 290.352280988 211.456853249 290.741036656 207.058453156 290.741036656 202.85244329 c 0
 290.741036656 151.478507784 233.366693085 130.7093198 217.309948188 92.0428774607 c 0
 200.850237249 52.4059432723 159.091130413 28.3477778161 126.066073665 12.7383892413 c 0
 125.742632274 12.5855137326 125.381223734 12.5 125 12.5 c 0
 123.896286566 12.5 122.958666047 13.2167845893 122.627645259 14.2098469517 c 2
 111.627645259 47.2098469517 l 2
 110.556998015 50.4217886862 110.5 53.0787659642 110.5 57 c 0
284.5 216 m 0
 284.5 223.84056716 285.949627022 230.097480324 285.949627022 234.412750906 c 0
 285.949627022 242.998153174 284.19099053 243.082563726 284.139178307 243.082563726 c 0
 282.660203482 243.082563726 278.127382728 239.972253976 272.220239049 235.14174386 c 0
 265.92048142 229.990177449 258.130152542 223.570438288 249.266109586 219.819536005 c 0
 201.706588628 183.129126972 138.893598138 150.684219099 118.498882521 92.5716832347 c 1
 118.434144686 80.1381028379 115.5 69.2661563253 115.5 57 c 0
 115.5 53.2544886681 115.790451778 52.0560804434 116.426753977 48.6269553393 c 2
 126.477924774 18.4734429479 l 1
 158.846350911 34.0149920066 197.504801599 57.389240788 212.690051812 93.9571225393 c 0
 228.595145445 132.258371631 285.741036656 154.425136659 285.741036656 202.85244329 c 0
 285.741036656 206.976664182 284.5 211.405611911 284.5 216 c 0
EndSplineSet
EndChar
StartChar: bracketright
Encoding: 93 93 62
Width: 256
Flags: HW
LayerCount: 2
Fore
SplineSet
55 -202 m 0
 55 -214 65 -224 77 -224 c 2
 179 -224 l 2
 191 -224 201 -214 201 -202 c 2
 201 818 l 2
 201 830 191 840 179 840 c 2
 77 840 l 2
 65 840 55 830 55 818 c 0
 55 806 65 796 77 796 c 2
 154 796 l 2
 155 796 157 794 157 793 c 2
 157 -177 l 2
 157 -178 155 -180 154 -180 c 2
 77 -180 l 2
 65 -180 55 -190 55 -202 c 0
206 -202 m 2
 206 -217 194 -229 179 -229 c 2
 77 -229 l 2
 62 -229 50 -217 50 -202 c 0
 50 -187 62 -175 77 -175 c 2
 152 -175 l 1
 152 791 l 1
 77 791 l 2
 62 791 50 803 50 818 c 0
 50 833 62 845 77 845 c 2
 179 845 l 2
 194 845 206 833 206 818 c 2
 206 -202 l 2
EndSplineSet
EndChar
StartChar: grave
Encoding: 96 96 65
Width: 277
Flags: HW
LayerCount: 2
Fore
SplineSet
77 571 m 0
 65 571 55 561 55 549 c 0
 55 544 56 538 60 534 c 2
 183 396 l 2
 187 391 194 389 200 389 c 0
 212 389 222 399 222 411 c 0
 222 416 221 422 217 426 c 2
 94 564 l 2
 90 569 83 571 77 571 c 0
227 411 m 0
 227 396 215 384 200 384 c 0
 192 384 184 387 179 393 c 2
 56 531 l 2
 51 536 50 542 50 549 c 0
 50 564 62 576 77 576 c 0
 85 576 93 573 98 567 c 2
 221 429 l 2
 226 424 227 418 227 411 c 0
EndSplineSet
EndChar
StartChar: e
Encoding: 101 101 70
Width: 594
Flags: HW
LayerCount: 2
Fore
SplineSet
413 369 m 1
 397 379 342 386 324 386 c 0
 277 386 196 303 196 257 c 0
 196 226 189 191 189 160 c 0
 189 158 189 156 189 154 c 1
 294 189 399 250 413 369 c 1
324 391 m 0
 334 391 419 386 419 371 c 0
 419 249 285 180 187 148 c 0
 186 148 l 0
 182 148 184 156 184 160 c 0
 184 192 189 226 191 257 c 0
 191 306 274 391 324 391 c 0
27 70 m 0
 62 70 100 87 138 87 c 1
 170 22 211 -28 301 -28 c 0
 428 -28 487 30 565 82 c 0
 567 83 569 86 571 88 c 2
 586 109 l 2
 589 113 590 117 590 122 c 0
 590 134 579 144 567 144 c 0
 560 144 553 141 549 135 c 2
 537 118 l 2
 494 58 391 17 301 17 c 0
 249 17 183 44 183 98 c 0
 183 103 231 115 238 118 c 0
 339 158 464 241 464 374 c 0
 464 427 371 435 324 435 c 0
 247 435 147 334 146 258 c 0
 146 226 139 195 139 161 c 0
 139 153 140 144 140 136 c 0
 140 111 5 135 5 92 c 0
 5 80 15 70 27 70 c 0
189 96 m 1
 197 47 247 22 301 22 c 0
 415 22 461 73 533 121 c 1
 545 138 l 2
 550 145 558 149 567 149 c 0
 582 149 595 137 595 122 c 0
 595 116 593 111 590 106 c 2
 575 85 l 2
 526 17 408 -33 301 -33 c 0
 224 -33 151 9 136 82 c 1
 100 74 61 65 27 65 c 0
 12 65 0 77 0 92 c 0
 0 131 97 129 135 138 c 1
 134 146 134 154 134 161 c 0
 134 296 196 440 324 440 c 0
 375 440 469 431 469 374 c 0
 469 218 312 133 189 96 c 1
EndSplineSet
EndChar
StartChar: j
Encoding: 106 106 75
Width: 280
Flags: HW
LayerCount: 2
Fore
SplineSet
206 504 m 2
 206 519 189 542 173 542 c 0
 149 542 144 515 143 500 c 0
 143 480 160 472 177 472 c 0
 193 472 206 483 206 500 c 2
 206 504 l 2
276 92 m 0
 276 108 266 122 251 122 c 0
 239 122 229 112 229 100 c 2
 229 88 l 2
 229 82 214 54 210 54 c 0
 203 54 178 200 178 216 c 0
 178 254 198 295 198 336 c 0
 198 344 198 353 198 361 c 0
 198 375 200 389 200 404 c 0
 200 422 182 436 165 436 c 0
 137 436 128 395 128 377 c 0
 128 366 129 355 129 344 c 0
 129 328 127 311 127 295 c 0
 127 271 132 246 132 223 c 0
 132 159 5 137 5 98 c 0
 5 86 15 76 27 76 c 0
 72 76 118 121 140 148 c 0
 140 149 141 149 142 149 c 0
 150 149 171 14 171 -1 c 0
 171 -40 117 -91 117 -152 c 0
 117 -154 117 -157 117 -159 c 0
 117 -165 114 -170 114 -176 c 0
 114 -213 150 -238 183 -238 c 0
 217 -238 228 -185 228 -154 c 0
 228 -107 218 -60 218 -15 c 0
 218 17 276 46 276 92 c 0
138 500 m 0
 138 518 147 547 173 547 c 0
 192 547 211 523 211 504 c 2
 211 500 l 2
 211 479 196 467 177 467 c 0
 158 467 138 477 138 500 c 0
165 441 m 0
 185 441 205 425 205 404 c 0
 205 389 203 375 203 361 c 0
 203 353 203 344 203 336 c 0
 203 295 197 254 183 216 c 1
 190 166 202 114 211 64 c 1
 216 72 221 81 224 89 c 1
 224 100 l 2
 224 115 236 127 251 127 c 0
 269 127 281 111 281 92 c 0
 281 50 242 9 223 -16 c 1
 228 -61 233 -107 233 -154 c 0
 233 -188 221 -243 183 -243 c 0
 148 -243 109 -216 109 -176 c 0
 109 -170 110 -165 112 -159 c 0
 112 -157 112 -154 112 -152 c 0
 112 -90 139 -37 166 -0 c 1
 160 46 149 94 140 140 c 1
 118 113 72 71 27 71 c 0
 12 71 0 83 0 98 c 0
 0 110 8 121 19 124 c 0
 72 140 106 176 127 224 c 1
 124 247 122 271 122 295 c 0
 122 311 124 328 124 344 c 0
 124 355 123 365 123 377 c 0
 123 397 134 441 165 441 c 0
EndSplineSet
EndChar
StartChar: o
Encoding: 111 111 80
Width: 369
Flags: HW
LayerCount: 2
Fore
SplineSet
0 94 m 0
 0 109 12 121 27 121 c 2
 32 121 l 1
 42 124 52 128 62 133 c 1
 57 165 44 193 44 230 c 0
 44 332 98 444 207 447 c 0
 246 447 276 426 286 394 c 1
 328 355 361 258 365 190 c 2
 370 93 l 2
 370 92 l 0
 370 77 357 65 342 65 c 0
 329 65 319 75 316 86 c 1
 305 40 270 -31 211 -31 c 0
 136 -31 87 17 70 76 c 1
 60 72 48 67 35 67 c 2
 27 67 l 2
 12 67 0 79 0 94 c 0
207 442 m 0
 101 442 49 327 49 230 c 0
 49 193 62 164 67 132 c 0
 67 132 l 0
 67 126 38 116 33 116 c 2
 27 116 l 2
 15 116 5 106 5 94 c 0
 5 82 15 72 27 72 c 2
 35 72 l 2
 49 72 60 82 72 82 c 0
 73 82 75 81 75 80 c 0
 91 22 137 -26 211 -26 c 0
 274 -26 304 52 314 103 c 0
 314 104 316 105 317 105 c 0
 321 105 322 70 342 70 c 0
 354 70 365 80 365 92 c 0
 365 93 l 2
 360 190 l 2
 355 281 299 442 207 442 c 0
306 211 m 0
 306 158 258 4 204 4 c 0
 161 4 100 99 100 173 c 0
 100 224 138 402 191 402 c 0
 234 402 306 285 306 211 c 0
191 398 m 0
 143 398 106 219 106 173 c 0
 106 101 167 10 204 10 c 0
 254 10 302 162 302 211 c 0
 302 283 228 398 191 398 c 0
EndSplineSet
EndChar
StartChar: p
Encoding: 112 112 81
Width: 373
Flags: HW
LayerCount: 2
Fore
SplineSet
231 122 m 1
 258 130 271 154 280 184 c 1
 280 213 276 240 276 269 c 0
 276 273 276 278 276 282 c 0
 276 315 253 354 220 354 c 0
 211 354 200 348 193 339 c 1
 169 291 l 1
 166 186 l 1
 170 135 l 1
 190 132 213 126 231 122 c 1
220 359 m 0
 256 359 281 318 281 282 c 0
 281 278 281 273 281 269 c 0
 281 240 285 213 285 184 c 0
 285 158 254 117 231 117 c 0
 225 117 165 126 165 132 c 2
 161 186 l 2
 161 186 l 2
 164 292 l 2
 164 293 l 2
 189 342 l 2
 194 353 211 359 220 359 c 0
89 388 m 0
 89 351 109 272 109 242 c 0
 109 212 77 180 59 159 c 2
 11 105 l 2
 7 101 5 95 5 90 c 0
 5 78 15 68 27 68 c 0
 33 68 40 70 44 75 c 2
 92 128 l 2
 95 132 108 151 113 151 c 0
 114 151 116 150 116 149 c 2
 119 89 l 2
 119 85 123 81 123 77 c 2
 131 -129 l 2
 131 -130 l 2
 139 -220 l 2
 140 -231 149 -240 161 -240 c 0
 199 -240 212 -185 212 -153 c 0
 212 -97 186 -22 186 28 c 0
 186 48 173 59 173 72 c 0
 173 73 174 74 175 74 c 0
 185 74 196 69 209 69 c 0
 216 69 223 71 229 71 c 0
 255 71 268 58 296 58 c 0
 325 58 369 63 369 92 c 0
 369 104 358 114 346 114 c 0
 331 114 322 103 297 103 c 0
 296 103 294 104 294 105 c 0
 294 127 330 151 330 180 c 0
 330 210 326 239 326 269 c 0
 326 273 326 278 326 282 c 0
 326 342 283 404 221 404 c 0
 198 404 176 376 158 376 c 0
 147 376 148 428 118 428 c 0
 96 428 89 408 89 388 c 0
221 410 m 0
 285 409 331 345 331 282 c 0
 331 278 331 273 331 269 c 0
 331 239 335 210 335 180 c 0
 335 154 316 126 302 108 c 1
 325 109 332 117 346 119 c 0
 361 119 374 107 374 92 c 0
 374 59 328 53 296 53 c 0
 269 53 253 59 228 66 c 0
 222 65 216 64 209 64 c 0
 198 64 189 66 180 68 c 1
 185 58 191 46 191 28 c 0
 191 -21 217 -97 217 -153 c 0
 217 -186 203 -245 161 -245 c 0
 147 -245 135 -234 134 -220 c 2
 126 -130 l 2
 126 -129 l 2
 118 76 l 1
 116 80 114 85 114 89 c 2
 111 142 l 1
 106 136 100 130 95 125 c 2
 48 72 l 2
 43 66 35 63 27 63 c 0
 12 63 0 75 0 90 c 0
 0 97 2 103 7 108 c 2
 55 162 l 2
 77 187 95 212 104 243 c 1
 100 273 84 351 84 388 c 0
 84 411 93 433 118 433 c 0
 146 433 154 406 159 384 c 1
 175 399 217 410 221 410 c 0
 221 410 l 0
EndSplineSet
EndChar
StartChar: q
Encoding: 113 113 82
Width: 398
Flags: HW
LayerCount: 2
Fore
SplineSet
22 194 m 0
 22 294 45 421 151 421 c 0
 158 421 198 422 205 422 c 0
 206 422 207 422 208 422 c 0
 210 423 215 423 215 423 c 0
 254 423 277 305 277 256 c 0
 277 197 272 136 242 99 c 1
 243 58 l 1
 255 -42 l 1
 260 -65 262 -87 265 -109 c 1
 280 -80 302 -51 318 -29 c 2
 349 14 l 2
 354 21 362 25 371 25 c 0
 386 25 399 13 399 -2 c 0
 399 -8 397 -13 394 -18 c 2
 362 -62 l 2
 336 -97 305 -232 252 -232 c 0
 206 -232 205 -91 200 -49 c 2
 188 53 l 2
 188 56 188 59 188 62 c 0
 188 63 188 63 188 64 c 0
 188 65 l 1
 177 62 165 61 153 61 c 0
 120 61 92 72 69 92 c 1
 66 75 59 59 39 59 c 2
 27 59 l 2
 12 59 0 71 0 86 c 0
 0 105 22 133 26 162 c 1
 23 172 22 183 22 194 c 0
215 418 m 0
 212 418 210 417 208 417 c 0
 207 417 206 417 205 417 c 0
 198 417 158 416 151 416 c 0
 49 416 27 291 27 194 c 0
 27 183 31 172 31 162 c 0
 31 130 5 106 5 86 c 0
 5 74 15 64 27 64 c 2
 39 64 l 2
 60 64 61 99 67 99 c 0
 90 99 119 66 153 66 c 0
 166 66 179 71 190 71 c 0
 193 71 193 68 193 65 c 0
 193 64 193 63 193 62 c 0
 193 59 193 56 193 53 c 2
 205 -49 l 2
 210 -88 204 -227 252 -227 c 0
 285 -227 338 -87 358 -59 c 2
 390 -15 l 2
 393 -11 394 -7 394 -2 c 0
 394 10 383 20 371 20 c 0
 364 20 357 16 353 11 c 2
 322 -32 l 2
 317 -38 271 -120 264 -120 c 0
 261 -120 251 -51 250 -42 c 2
 238 57 l 2
 237 100 l 0
 237 115 261 145 265 163 c 0
 272 194 272 227 272 256 c 0
 272 301 249 418 215 418 c 0
78 238 m 0
 78 304 108 360 149 360 c 0
 190 360 220 304 220 238 c 0
 220 172 190 116 149 116 c 0
 108 116 78 172 78 238 c 0
82 238 m 0
 82 172 114 120 149 120 c 0
 184 120 216 172 216 238 c 0
 216 304 184 356 149 356 c 0
 114 356 82 304 82 238 c 0
EndSplineSet
EndChar
StartChar: r
Encoding: 114 114 83
Width: 474
Flags: HW
LayerCount: 2
Fore
SplineSet
27 121 m 0
 71 121 61 37 102 37 c 0
 104 37 108 37 110 37 c 0
 163 37 176 79 176 133 c 0
 176 181 165 223 153 262 c 1
 146 261 131 261 131 261 c 0
 73 261 15 281 15 339 c 0
 15 389 33 454 87 454 c 0
 139 454 173 361 189 323 c 1
 213 328 237 336 257 346 c 1
 267 405 l 2
 270 422 289 436 309 436 c 0
 313 436 317 437 321 437 c 0
 345 437 358 419 358 394 c 0
 358 359 334 332 311 315 c 1
 316 171 l 1
 327 92 l 1
 363 36 l 1
 402 39 l 1
 415 84 l 2
 419 99 429 115 447 115 c 0
 462 115 475 103 475 88 c 0
 475 79 469 73 467 66 c 2
 450 5 l 2
 447 -5 437 -13 426 -14 c 2
 351 -20 l 2
 350 -20 349 -20 348 -20 c 0
 339 -20 330 -15 325 -8 c 2
 277 67 l 2
 275 70 274 74 273 78 c 2
 261 165 l 2
 261 166 261 167 261 168 c 2
 257 286 l 1
 241 280 225 275 208 271 c 1
 221 229 231 184 231 132 c 0
 231 47 194 -18 109 -18 c 0
 53 -18 0 47 0 94 c 0
 0 109 12 121 27 121 c 0
202 272 m 0
 202 274 254 292 259 292 c 0
 260 292 262 291 262 290 c 2
 266 168 l 2
 266 167 266 167 266 166 c 2
 278 79 l 2
 278 76 280 73 282 70 c 2
 330 -5 l 2
 334 -11 340 -15 348 -15 c 0
 349 -15 349 -15 350 -15 c 2
 425 -9 l 2
 434 -8 443 -1 445 7 c 2
 462 68 l 2
 464 75 470 80 470 88 c 0
 470 100 459 110 447 110 c 0
 432 110 424 94 420 82 c 2
 407 36 l 2
 407 35 405 34 404 34 c 2
 362 31 l 2
 361 31 l 0
 360 31 359 31 359 32 c 2
 322 90 l 2
 322 91 l 2
 311 171 l 2
 306 316 l 0
 306 317 306 318 307 318 c 0
 330 335 353 361 353 394 c 0
 353 416 343 432 321 432 c 0
 317 432 313 431 309 431 c 0
 292 431 274 417 272 404 c 2
 262 344 l 2
 260 334 201 317 188 317 c 0
 157 317 136 449 87 449 c 0
 37 449 20 387 20 339 c 0
 20 284 76 266 131 266 c 0
 139 266 147 267 155 267 c 0
 170 267 181 155 181 133 c 0
 181 76 166 32 110 32 c 0
 108 32 104 32 102 32 c 0
 58 32 68 116 27 116 c 0
 15 116 5 106 5 94 c 0
 5 49 56 -13 109 -13 c 0
 191 -13 226 50 226 132 c 0
 226 185 202 229 202 272 c 0
96 414 m 0
 108 414 124 382 124 372 c 0
 124 371 125 371 125 370 c 0
 125 366 124 363 124 359 c 0
 124 344 136 336 136 323 c 0
 136 305 129 287 113 287 c 0
 106 287 98 290 89 294 c 1
 88 294 l 2
 71 294 65 332 65 344 c 0
 65 364 70 414 96 414 c 0
120 372 m 0
 120 378 104 410 96 410 c 0
 76 410 70 366 70 344 c 0
 70 325 75 310 89 298 c 1
 90 298 l 2
 99 298 107 292 113 292 c 0
 126 292 131 309 131 323 c 0
 131 335 119 345 119 359 c 0
 119 363 120 366 120 370 c 0
 120 371 120 372 120 372 c 0
EndSplineSet
EndChar
StartChar: z
Encoding: 122 122 91
Width: 432
Flags: HW
LayerCount: 2
Fore
SplineSet
189 -244 m 0
 145 -244 132 -204 132 -163 c 0
 132 -160 132 -156 132 -153 c 0
 132 -150 132 -146 132 -143 c 0
 132 -46 231 -8 298 29 c 1
 283 46 259 56 232 56 c 0
 218 56 202 51 188 51 c 0
 167 51 148 66 148 87 c 0
 148 200 300 283 333 378 c 0
 334 383 336 388 338 392 c 1
 325 391 202 369 201 361 c 0
 201 355 202 349 202 343 c 0
 202 246 141 67 27 67 c 0
 12 67 0 79 0 94 c 0
 0 122 61 140 79 158 c 0
 123 202 147 275 147 344 c 0
 147 350 146 356 146 362 c 0
 146 363 146 363 146 364 c 1
 112 366 66 368 66 406 c 0
 66 439 113 456 146 456 c 0
 172 456 191 438 198 417 c 1
 256 418 312 451 383 451 c 0
 398 451 411 439 411 424 c 0
 411 303 265 197 217 111 c 1
 222 111 227 111 232 111 c 0
 276 111 318 92 343 60 c 1
 352 67 361 75 371 82 c 1
 380 104 l 2
 384 114 394 121 405 121 c 0
 420 121 433 109 433 94 c 0
 433 91 432 87 431 84 c 2
 419 54 l 2
 412 36 382 20 367 9 c 1
 369 1 369 -8 369 -17 c 0
 369 -23 369 -27 369 -33 c 0
 369 -50 370 -67 370 -84 c 0
 370 -141 327 -239 261 -239 c 0
 237 -239 213 -244 189 -244 c 0
345 395 m 0
 345 273 153 212 153 87 c 0
 153 69 169 56 188 56 c 0
 202 56 218 61 232 61 c 0
 251 61 304 50 304 29 c 0
 304 21 184 -47 178 -53 c 0
 153 -75 137 -107 137 -143 c 0
 137 -146 137 -150 137 -153 c 0
 137 -156 137 -160 137 -163 c 0
 137 -202 148 -239 189 -239 c 0
 213 -239 237 -234 261 -234 c 0
 324 -234 365 -139 365 -84 c 0
 365 -67 364 -50 364 -33 c 0
 364 -27 364 -23 364 -17 c 0
 364 -8 361 1 361 10 c 0
 361 23 409 44 414 56 c 2
 426 86 l 2
 427 89 428 91 428 94 c 0
 428 106 417 116 405 116 c 0
 396 116 388 110 385 102 c 2
 375 79 l 2
 373 74 350 54 343 54 c 0
 340 54 332 66 330 68 c 0
 305 93 269 106 232 106 c 0
 226 106 219 105 212 105 c 0
 211 105 210 107 210 108 c 0
 210 149 286 214 309 244 c 0
 340 284 406 363 406 424 c 0
 406 436 395 446 383 446 c 0
 311 446 256 412 196 412 c 2
 196 412 l 2
 189 412 172 451 146 451 c 0
 116 451 71 435 71 406 c 0
 71 367 151 375 151 366 c 0
 151 365 151 363 151 362 c 0
 151 356 152 350 152 344 c 0
 152 245 105 143 20 115 c 0
 12 112 5 104 5 94 c 0
 5 82 15 72 27 72 c 0
 138 72 197 248 197 343 c 0
 197 349 196 355 196 361 c 0
 196 371 325 397 343 397 c 0
 344 397 345 396 345 395 c 0
310 -26 m 0
 310 -65 293 -199 249 -199 c 0
 232 -199 213 -197 203 -182 c 1
 190 -182 l 2
 176 -182 175 -170 175 -161 c 0
 175 -160 176 -159 176 -158 c 0
 176 -120 269 -18 302 -18 c 0
 304 -18 310 -24 310 -26 c 0
302 -23 m 1
 268 -46 180 -106 180 -158 c 0
 180 -159 180 -160 180 -161 c 0
 180 -171 181 -178 190 -178 c 2
 204 -178 l 2
 213 -178 230 -194 249 -194 c 0
 289 -194 291 -99 298 -66 c 2
 305 -27 l 1
 302 -23 l 1
EndSplineSet
EndChar
StartChar: braceleft
Encoding: 123 123 92
Width: 306
Flags: HW
LayerCount: 2
Fore
SplineSet
204 807 m 0
 140 807 114 746 114 686 c 0
 114 630 131 562 131 506 c 0
 131 464 68 453 68 407 c 0
 68 395 78 385 90 385 c 0
 92 385 95 385 97 385 c 0
 165 385 68 5 211 5 c 0
 227 5 238 13 238 28 c 0
 238 40 228 50 216 50 c 0
 214 50 214 50 211 50 c 0
 149 50 177 386 128 420 c 0
 127 420 127 421 127 422 c 0
 127 445 175 466 175 506 c 0
 175 562 159 631 159 687 c 0
 159 733 170 757 208 763 c 0
 218 765 226 774 226 785 c 0
 226 797 216 807 204 807 c 0
211 0 m 0
 66 0 154 380 97 380 c 0
 95 380 92 380 90 380 c 0
 75 380 63 392 63 407 c 0
 63 455 126 465 126 506 c 0
 126 561 109 630 109 686 c 0
 109 748 138 812 204 812 c 0
 219 812 231 800 231 785 c 0
 231 742 164 760 164 687 c 0
 164 632 180 562 180 506 c 0
 180 468 152 441 133 422 c 1
 178 388 162 55 211 55 c 0
 214 55 213 55 216 55 c 0
 231 55 243 43 243 28 c 0
 243 10 230 0 211 0 c 0
EndSplineSet
EndChar
StartChar: uni0965
Encoding: 2405 2405 98
Width: 403
Flags: HW
HStem: 426.355 20G<80 120 280 320>
VStem: 67.6447 70.7107<91.5996 411> 267.645 70.7107<91.5996 411>
LayerCount: 2
Fore
SplineSet
300 448.855339059 m 0
 300.68989375 448.855339059 301.31489375 448.575285934 301.767420313 448.122759372 c 2
 337.122759372 412.767420313 l 2
 337.570050503 412.320129181 337.848835917 411.704332333 337.855226771 411.02391861 c 2
 337.855226771 411.02391861 340.855226771 91.623527985 340.855339059 91.599609375 c 0
 340.855339059 90.909715625 340.575285934 90.284715625 340.122759372 89.8321890625 c 2
 304.767420313 54.4768500032 l 2
 304.31489375 54.0243234407 303.68989375 53.7442703157 303 53.7442703157 c 0
 302.31010625 53.7442703157 301.68510625 54.0243234407 301.232579687 54.4768500032 c 2
 265.877240628 89.8321890625 l 2
 265.429949497 90.2794801939 265.151164083 90.8952770424 265.144773229 91.575690765 c 2
 265.144773229 91.575690765 262.144773229 410.97608139 262.144660941 411 c 0
 262.144660941 411.68989375 262.424714066 412.31489375 262.877240628 412.767420313 c 2
 298.232579687 448.122759372 l 2
 298.68510625 448.575285934 299.31010625 448.855339059 300 448.855339059 c 0
300 442.820498434 m 1
 267.154401664 409.974900098 l 1
 270.134962372 92.6441485689 l 1
 303 59.7791109407 l 1
 335.845598336 92.6247092774 l 1
 332.865037628 409.955460806 l 1
 300 442.820498434 l 1
100 448.855339059 m 0
 100.68989375 448.855339059 101.31489375 448.575285934 101.767420313 448.122759372 c 2
 137.122759371 412.767420313 l 2
 137.570050503 412.320129181 137.848835917 411.704332333 137.855226771 411.02391861 c 2
 137.855226771 411.02391861 140.855226771 91.623527985 140.855339059 91.599609375 c 0
 140.855339059 90.909715625 140.575285934 90.284715625 140.122759372 89.8321890625 c 2
 104.767420313 54.4768500032 l 2
 104.31489375 54.0243234407 103.68989375 53.7442703157 103 53.7442703157 c 0
 102.31010625 53.7442703157 101.68510625 54.0243234407 101.232579687 54.4768500032 c 2
 65.8772406282 89.8321890625 l 2
 65.4299494968 90.2794801939 65.1511640827 90.8952770424 65.144773229 91.575690765 c 2
 65.144773229 91.575690765 62.144773229 410.97608139 62.1446609407 411 c 0
 62.1446609407 411.68989375 62.4247140657 412.31489375 62.8772406282 412.767420313 c 2
 98.2325796875 448.122759372 l 2
 98.68510625 448.575285934 99.31010625 448.855339059 100 448.855339059 c 0
100 442.820498434 m 1
 67.1544016633 409.974900098 l 1
 70.1349623718 92.6441485689 l 1
 103 59.7791109407 l 1
 135.845598336 92.6247092774 l 1
 132.865037628 409.955460806 l 1
 100 442.820498434 l 1
EndSplineSet
EndChar
StartChar: uni0981
Encoding: 2433 2433 99
Width: 0
Flags: HW
HStem: 818.645 70.7107<-354.259 -108.915>
LayerCount: 2
Fore
SplineSet
-230 1041.85533906 m 0
 -221.528104154 1041.85533906 -214.551350256 1038.93243762 -209.54128929 1033.92237665 c 2
 -174.18595023 998.567037596 l 2
 -168.162448587 992.543535954 -165.144660941 983.766112761 -165.144660941 974 c 0
 -165.144660941 968.710162323 -165.734400249 962.96044777 -169.34970087 959.345147148 c 2
 -204.70503993 923.989808089 l 2
 -206.513958517 922.180889501 -209.026102843 921.144660941 -212 921.144660941 c 0
 -212.207978599 921.144660941 -212.410059593 921.170112436 -212.603295577 921.218068023 c 0
 -222.152802119 923.58797957 -245.011266729 931.373019587 -249.488352182 935.850105041 c 2
 -252.993911581 939.355664439 l 2
 -253.301810234 939.219998884 -253.642176485 939.144660941 -254 939.144660941 c 0
 -254.68989375 939.144660941 -255.31489375 939.424714066 -255.767420313 939.877240628 c 2
 -291.122759372 975.232579687 l 2
 -291.575285934 975.68510625 -291.855339059 976.31010625 -291.855339059 977 c 0
 -291.855339059 977.400802793 -291.760816063 977.779702771 -291.592864892 978.115605112 c 2
 -279.592864892 1002.11560511 l 2
 -279.471725105 1002.35788469 -279.312384712 1002.57779497 -279.122759372 1002.76742031 c 2
 -243.767420313 1038.12275937 l 2
 -243.464357677 1038.42582201 -243.083938176 1038.65152778 -242.658476147 1038.76756235 c 0
 -238.902361828 1039.7919525 -239.458667342 1039.53326178 -238.240898684 1040.75103044 c 0
 -237.232283172 1041.75964595 -236.293859921 1041.97502761 -234.748467658 1041.97502761 c 0
 -233.596445903 1041.97502761 -232.107128751 1041.85533906 -230 1041.85533906 c 0
-170.144660941 974 m 0
 -170.144660941 982.761282795 -172.865570705 990.176976822 -177.720790854 995.032196971 c 2
 -213.076129914 1030.38753603 l 2
 -217.098077844 1034.40948396 -222.696389942 1036.85533906 -230 1036.85533906 c 0
 -232.900015448 1036.85533906 -234.506169253 1036.8180808 -235.166797571 1036.77682264 c 0
 -236.58516719 1035.49283541 -237.972845665 1034.89167374 -240.699279016 1034.12121942 c 1
 -275.299522906 999.520975528 l 1
 -286.313506591 977.493008157 l 1
 -253.880122148 945.059623714 l 2
 -253.572223495 945.195289269 -253.231857244 945.270627212 -252.874033729 945.270627212 c 0
 -252.184139979 945.270627212 -251.559139979 944.990574087 -251.106613416 944.538047525 c 2
 -245.953511557 939.384945666 l 2
 -243.666608832 937.09804294 -220.824537065 928.479220339 -211.706820362 926.149379063 c 0
 -210.046816082 926.203810278 -209.038884632 926.725645352 -208.239880554 927.524648714 c 2
 -172.884541496 962.879987773 l 2
 -171.057170231 964.707359038 -170.144660941 968.953898465 -170.144660941 974 c 0
-452 969.855339059 m 0
 -451.31010625 969.855339059 -450.68510625 969.575285934 -450.232579688 969.122759372 c 0
 -422.312205041 941.202384726 -380.866517984 921.547977678 -340.301816532 909.756377396 c 0
 -317.925748864 903.251962564 -295.984453608 891.854561318 -269.062910215 891.854561318 c 0
 -197.713172717 893.62050669 -120.545550737 896.820846843 -64.5439282968 937.99762831 c 0
 -62.1053138815 941.303152456 -59.7452154232 944.747367087 -57.4678518362 948.336726826 c 0
 -57.3687941197 948.492851891 -57.2529101642 948.63726952 -57.1227593718 948.767420313 c 2
 -21.7674203125 984.122759372 l 2
 -21.31489375 984.575285934 -20.68989375 984.855339059 -20 984.855339059 c 0
 -19.31010625 984.855339059 -18.68510625 984.575285934 -18.2325796875 984.122759372 c 2
 17.1227593718 948.767420313 l 2
 17.5752859343 948.31489375 17.8553390593 947.68989375 17.8553390593 947 c 0
 17.8553390593 946.508526024 17.7132119068 946.049985671 17.4678518362 945.663273174 c 0
 10.2101426976 934.224383327 2.11394810968 924.189908487 -6.68140567118 915.394554707 c 2
 -42.0367447305 880.039215646 l 2
 -100.508084901 821.567875476 -189.341322224 818.116257149 -269 816.144660941 c 0
 -297.21739321 816.144660941 -318.91795323 827.621723275 -341.698183468 834.243622604 c 0
 -381.701054359 845.871906476 -424.078622627 865.167349827 -452.321409749 893.410136948 c 0
 -464.600618365 905.689345564 -477.034225708 917.78692803 -489.148464529 930.258661328 c 0
 -489.585867379 930.708972055 -489.855339059 931.323265116 -489.855339059 932 c 0
 -489.855339059 932.68989375 -489.575285934 933.31489375 -489.122759372 933.767420313 c 2
 -453.767420313 969.122759372 l 2
 -453.31489375 969.575285934 -452.68989375 969.855339059 -452 969.855339059 c 0
-451.98613306 963.834365374 m 1
 -483.843729393 931.976769041 l 1
 -472.322497011 920.176757165 -460.46280377 908.621212219 -448.786569124 896.944977573 c 0
 -421.490988947 869.649397397 -379.830081343 850.536021696 -340.301816532 839.045699278 c 0
 -317.920904559 832.539876272 -295.935726841 821.144660941 -269 821.144660941 c 0
 -189.154284964 823.120886425 -102.248965633 826.896675994 -45.5715853555 883.574056272 c 2
 -10.2162462962 918.929395331 l 2
 -2.11458996662 927.031051661 5.38041044096 936.21886434 12.1639188684 946.656579566 c 1
 -20 978.820498434 l 1
 -53.3920782578 945.428420176 l 2
 -55.7570451024 941.713128066 -58.2105964826 938.146324071 -60.7480522477 934.722361365 c 0
 -60.8964565822 934.522109241 -61.0740603961 934.344771542 -61.2745463765 934.196665582 c 0
 -118.960538817 891.582018419 -197.542022524 888.623184108 -268.937089785 886.8561168 c 0
 -297.170914085 886.8561168 -318.912048693 898.330685027 -341.698183468 904.954300722 c 0
 -381.934942915 916.650572777 -423.22329831 935.956890171 -451.98613306 963.834365374 c 1
EndSplineSet
EndChar
StartChar: uni098C
Encoding: 2444 2444 109
Width: 442
Flags: HW
HStem: 164.645 70.7107<89.446 114.358> 263.805 70.7107<87.6744 200.366>
VStem: 16.6447 70.7186<236.483 263.805> 32.6447 70.7107<699.785 776> 211.027 70.7107<148.548 239.767> 358.645 70.7107<188.425 383.623>
LayerCount: 2
Fore
SplineSet
208.527051886 186.272388758 m 0
 208.527051886 188.808695098 208.144660941 191.393610079 208.144660941 194 c 0
 208.144660941 194.130325074 208.154654771 194.258334384 208.173917215 194.383302713 c 0
 208.773927927 198.27597262 209.060608098 202.055467717 209.060608098 205.722720547 c 0
 209.060608098 217.777444873 205.971234503 228.683384186 200.600691613 238.47234541 c 1
 183.337842834 249.219060134 163.010787516 256.532147806 143.765373278 260.144822771 c 0
 132.155617483 260.160797229 119.741667858 261.305094022 108.030440412 261.305094022 c 0
 101.892500745 261.305094022 95.7330481328 261.054979624 89.9055644447 260.337189359 c 1
 90.1162816124 252.733728279 91.0001178495 245.239952832 92.7364556872 238.321378342 c 0
 95.022199526 238.015411908 97.4410492578 237.855339062 100 237.855339059 c 0
 102.254590208 237.855339059 106.456280355 238.28014267 110.046944439 238.937124123 c 1
 116.232579688 245.122759371 l 2
 116.68510625 245.575285934 117.31010625 245.855339059 118 245.855339059 c 0
 118.68989375 245.855339059 119.31489375 245.575285934 119.767420312 245.122759371 c 2
 155.122759371 209.767420313 l 2
 155.575285934 209.31489375 155.855339059 208.68989375 155.855339059 208 c 2
 155.855339059 204 l 2
 155.855339059 202.895317257 155.2857323 202.127782589 154.8488656 201.690915889 c 2
 119.493526539 166.335576828 l 2
 116.236215379 163.078265668 104.998412223 162.144660941 100 162.144660941 c 0
 85.5407722493 162.144660941 74.5879820475 166.919428111 66.7328754517 174.774534706 c 2
 31.3775363922 210.129873766 l 2
 18.441537168 223.065872991 14.1446609407 243.705898265 14.1446609407 264 c 0
 14.1446609407 274.57396463 17.5172515323 282.545765709 23.2234012623 288.25191544 c 2
 58.5787403216 323.607254498 l 2
 69.9674920675 334.996006245 89.5756840932 337.015772141 108.030440412 337.015772141 c 0
 119.910310197 337.015772141 132.3643351 335.855339059 144 335.855339059 c 0
 144.15711668 335.855339059 144.3108676 335.84081391 144.45998204 335.813034335 c 0
 173.154301587 330.467368154 204.167744931 317.210790147 225.067608336 296.310926742 c 2
 260.422947395 260.955587682 l 2
 275.089580821 246.288954257 284.771286209 227.761637064 284.771286209 205.722720495 c 0
 284.771286209 201.889184196 284.479054077 197.957455154 283.873853095 193.930533266 c 0
 284.118492962 191.347468796 284.237729961 188.793779792 284.237729961 186.272389352 c 0
 284.237729961 166.005904552 276.532744287 147.986355108 264.625380589 133.543111695 c 1
 283.277415125 138.712259699 300.16646264 147.212477039 315.105030216 158.262149051 c 1
 341.53943441 193.464122262 356.144660941 238.855082646 356.144660941 284 c 0
 356.144660941 365.019788657 315.070482893 429.414321767 261.805294653 486.297644149 c 0
 223.512420122 522.550754621 179.365436254 558.628093037 142.485638586 595.507890704 c 2
 107.130299528 630.863229763 l 2
 62.9244876246 675.069041666 30.1446609407 720.029588912 30.1446609407 772 c 2
 30.1446609407 784 l 2
 30.1446609407 786.016912949 31.2792803711 787.537345958 32.4647666683 788.722832254 c 2
 67.8201057276 824.078171315 l 2
 72.7236704333 828.98173602 82.4878074026 831.820157141 88.7308551012 835.50924497 c 0
 89.1029580569 835.729124835 89.5368558845 835.855339059 90 835.855339059 c 0
 90.68989375 835.855339059 91.31489375 835.575285934 91.7674203125 835.122759372 c 2
 127.122759372 799.767420313 l 2
 127.575285934 799.31489375 127.855339059 798.68989375 127.855339059 798 c 0
 127.855339059 797.31010625 127.575285934 796.68510625 127.122759371 796.232579687 c 2
 105.855339059 774.965159375 l 1
 105.855339059 772 l 2
 105.855339059 728.610342042 129.813044292 689.702374904 165.191609683 651.232815216 c 0
 204.258440361 614.592984956 246.107812349 580.307688131 284.086709311 542.328791169 c 2
 319.442048371 506.973452109 l 2
 380.808108311 445.607392169 431.855339059 375.288006268 431.855339059 284 c 0
 431.855339059 228.869938209 410.650273997 173.46035496 372.731909947 135.54199091 c 2
 337.376570887 100.186651849 l 2
 308.123886531 70.9339674933 268.897708405 52.1446609407 222 52.1446609407 c 0
 207.941390214 52.1446609407 193.917057227 54.1446609407 180 54.1446609407 c 0
 178.877846033 54.1446609407 177.866566501 54.4891316866 176.120705091 56.2349930964 c 2
 140.765365751 91.5903324374 l 2
 139.868658005 92.4870401825 138.943352622 93.9112939763 138.943352622 95.7899309014 c 0
 138.943352622 97.8455552197 140.012821316 99.8360507108 141.970183133 101.793412528 c 2
 177.325522192 137.148751586 l 2
 179.836852158 139.660081552 184.010877463 142.386163343 190.944957993 145.622130958 c 0
 193.674033373 146.895724409 196.362512762 148.299747532 198.992995094 149.827434733 c 0
 204.992187542 160.700919851 208.527051497 172.981269587 208.527051886 186.272388758 c 0
279.237729961 186.272389352 m 0
 279.237729961 188.808695507 278.855339059 191.393610287 278.855339059 194 c 0
 278.855339059 194.130325074 278.865332889 194.258334383 278.884595333 194.383302711 c 0
 279.48460604 198.2759726 279.771286209 202.055467681 279.771286209 205.722720495 c 0
 279.771286209 226.21306714 270.844726097 243.464127731 256.88810677 257.420747057 c 2
 221.53276771 292.776086117 l 2
 201.675990719 312.632863109 171.62914638 325.624908475 143.765374688 330.855500169 c 0
 132.131915542 330.871436335 119.765841013 332.015772141 108.030440412 332.015772141 c 0
 89.7169999286 332.015772141 71.6717713421 329.630604269 62.1135809466 320.072413874 c 2
 26.7582418873 284.717074814 l 2
 22.0556570805 280.014490007 19.1446609407 273.493019544 19.1446609407 264 c 0
 19.1446609407 244.281569655 23.4973204972 225.079770911 34.9123770174 213.66471439 c 2
 70.2677160767 178.309375332 l 2
 77.1448512171 171.432240191 86.6713369141 167.144660941 100 167.144660941 c 0
 104.050811151 167.144660941 113.374305682 168.60748947 115.958685915 169.870417454 c 2
 150.855339059 204.767070598 l 1
 150.855339059 206.965159375 l 1
 118 239.820498434 l 1
 113.036161718 234.856660152 l 2
 112.692504664 234.513003098 112.249379332 234.26881432 111.753902313 234.171210407 c 0
 107.668784922 233.366484 102.963253151 232.855339059 100 232.855339059 c 0
 96.387842435 232.855339059 89.1208172888 232.518063116 88.3233588234 235.434913792 c 0
 85.9913314652 243.964731794 84.9513687486 253.2150934 84.8634541054 262.490495375 c 0
 84.8512881566 263.774059312 85.7917673679 264.815139415 86.999285488 264.991606627 c 0
 93.8027106015 265.985862071 100.966863176 266.305094022 108.030440412 266.305094022 c 0
 119.885817778 266.305094022 132.388632372 265.144660941 144 265.144660941 c 0
 144.15711668 265.144660941 144.3108676 265.130135792 144.45998204 265.102356217 c 0
 164.543638738 261.360830852 185.721710788 253.741453639 203.803062949 242.36646617 c 0
 204.157578523 242.14344025 204.452268709 241.833876776 204.657399828 241.467509427 c 0
 210.596237437 230.860653676 214.060608098 218.905571888 214.060608098 205.722720547 c 0
 214.060608098 201.889184233 213.768375964 197.957455175 213.163174978 193.930533269 c 0
 213.407814873 191.34746859 213.527051886 188.793779387 213.527051886 186.272388758 c 0
 213.527051886 171.813532363 209.60255539 158.483173115 203.025324051 146.79145048 c 0
 202.808525641 146.406068433 202.492516122 146.083827468 202.112032245 145.859464337 c 0
 199.157671915 144.117341805 196.131795278 142.524393471 193.055042007 141.08854716 c 0
 186.402214031 137.983833307 182.673597966 135.42714611 180.860362818 133.613910961 c 2
 145.505023757 98.2585719025 l 2
 144.06212384 96.8156719848 143.943352622 95.9982821267 143.943352622 95.7899309014 c 0
 143.943352622 95.6092596751 144.001160039 95.4242193985 144.300206939 95.125172499 c 2
 179.655545717 59.7698337214 l 2
 179.954779221 59.4706002165 180.285167367 59.2668518407 180.522847243 59.1437476664 c 0
 194.359289808 59.0956130515 208.214645306 57.1446609407 222 57.1446609407 c 0
 267.503291251 57.1446609407 305.429404397 75.3091666097 333.841730263 103.721492475 c 2
 369.197069321 139.076831534 l 2
 406.052726143 175.932488356 426.855339059 230.121189747 426.855339059 284 c 0
 426.855339059 373.264316238 376.976608005 442.369211225 315.907207745 503.438611484 c 2
 280.551868686 538.793950544 l 2
 242.693617374 576.652201856 200.74741918 611.026412524 161.704678393 647.649505351 c 0
 161.65961019 647.691780483 161.616107605 647.735705334 161.574267456 647.78118309 c 0
 125.861850794 686.598457449 100.855339059 726.633479356 100.855339059 772 c 2
 100.855339059 776 l 2
 100.855339059 776.68989375 101.135392184 777.31489375 101.587918747 777.767420313 c 2
 121.820498434 798 l 1
 89.566690897 830.253807537 l 1
 84.1803966765 827.411513988 74.5952469477 823.783631285 71.3549463526 820.543330689 c 2
 35.9996072933 785.18799163 l 2
 35.2992366809 784.487621017 35.1474670776 784.013857566 35.1444287093 783.991010806 c 2
 35.1444287093 772 l 2
 35.1444287093 722.263532626 66.6606342422 678.402576298 110.665140152 634.398070389 c 2
 146.020479212 599.042731328 l 2
 182.779363359 562.283847182 227.027794695 526.111991008 265.296588473 489.876301315 c 0
 265.333167011 489.841666084 265.368700919 489.80593852 265.403137743 489.769171082 c 0
 319.058755201 432.482248709 361.144660554 366.872692925 361.144660941 284 c 0
 361.144660941 237.658408582 346.16173317 191.147934068 318.88199449 154.96677497 c 0
 318.737575418 154.775231735 318.566259742 154.605085993 318.373683097 154.46197338 c 0
 300.766135071 141.376989977 280.477410655 131.708722075 257.858416187 126.707117574 c 0
 257.68407161 126.668565788 257.502912884 126.648237994 257.317043814 126.648237994 c 0
 255.937256314 126.648237994 254.817043814 127.768450494 254.817043814 129.148237994 c 0
 254.817043814 129.828114904 255.089023574 130.444968819 255.530021673 130.89583832 c 0
 269.774046326 145.458704464 279.237729961 164.533142255 279.237729961 186.272389352 c 0
EndSplineSet
EndChar
StartChar: uni098F
Encoding: 2447 2447 110
Width: 362
Flags: HW
HStem: 54.6447 70.7107<43.6862 109.254> 122.645 70.5803<151.261 224.706> 738.645 70.7107<7.10543e-15 119.274>
VStem: 114.238 97.1178<691.522 734.247> 215.498 70.7107<193.523 484.594>
LayerCount: 2
Fore
SplineSet
111.737506478 703.525940694 m 0
 111.737506478 705.877760125 112.144660941 707.704079075 112.144660941 710 c 0
 112.144660941 719.402590636 113.824246279 728.856706905 117.164930733 737.544194181 c 1
 104.76473329 739.511769306 92.2838911036 740.142125718 82.0617728838 740.144653303 c 2
 0.000147013545937 736.141647163 l 2
 -0.689746736449 736.141647163 -1.31489374999 736.424714066 -1.76742031249 736.877240628 c 2
 -37.1227593718 772.232579687 l 2
 -37.5752859343 772.68510625 -37.8553390593 773.31010625 -37.8553390593 774 c 0
 -37.8553390593 774.68989375 -37.5752859343 775.31489375 -37.1227593718 775.767420313 c 2
 -1.76742031249 811.122759372 l 2
 -1.34207433972 811.548105344 -0.764351613433 811.821074564 -0.123587829413 811.852331333 c 2
 81.9998529865 815.858352837 l 1
 107.159033429 815.858352837 145.417948707 812.303830659 165.732878755 794.028791578 c 1
 175.215632935 803.511545758 187.770480435 809.855339059 204 809.855339059 c 0
 221.015595572 809.855339059 250.111244952 773.876995006 265.57604363 761.295474541 c 0
 265.64277243 761.241186749 265.706651497 761.183528187 265.767420313 761.122759372 c 2
 301.122759372 725.767420313 l 2
 301.430889766 725.459289918 301.65905457 725.071193934 301.773291127 724.637095018 c 2
 321.773291127 648.637095018 l 2
 321.809625909 648.499022847 321.834435017 648.35629674 321.846625618 648.21000953 c 2
 327.846625618 576.21000953 l 2
 327.852395946 576.140765596 327.855339059 576.070723786 327.855339059 576 c 0
 327.855339059 575.905812333 327.850119136 575.812834224 327.839953048 575.721339429 c 2
 321.839953048 521.721339429 l 2
 321.824398015 521.581344129 321.797263135 521.444821531 321.759529067 521.312752291 c 2
 309.766503289 479.337652957 l 2
 294.704149751 424.45885412 288.708208908 366.853906636 288.708208908 309.16222476 c 0
 288.708208908 276.730538339 290.602597383 244.270292724 293.842544083 212.254251573 c 0
 295.412354706 196.741921843 302.676044442 179.863649267 309.954263679 163.088291914 c 0
 317.867334174 144.849684227 325.855339059 126.70511841 325.855339059 110 c 0
 325.855339059 109.31010625 325.575285934 108.68510625 325.122759372 108.232579688 c 2
 289.767420313 72.8772406282 l 2
 289.31489375 72.4247140657 288.68989375 72.1446609407 288 72.1446609407 c 0
 287.31010625 72.1446609407 286.68510625 72.4247140657 286.232579687 72.8772406282 c 2
 250.877240628 108.232579688 l 2
 250.424714066 108.68510625 250.144660941 109.31010625 250.144660941 110 c 0
 250.144660941 110.507531229 250.071557097 111.100116846 249.913180576 111.762033128 c 0
 241.644611023 116.917935933 233.988794828 120.1455336 230.066634592 120.1455336 c 0
 203.285099236 119.443302095 178.912015461 119.629704933 161.746712512 102.856770852 c 0
 161.515393351 102.630739243 161.240443456 102.449171725 160.935747242 102.325952713 c 0
 145.058832702 95.9053356193 132.273951876 80.8809474876 114.638742727 76.2271430858 c 0
 106.575381798 74.0992803387 98.5997059613 69.5749671206 90.5161646933 64.9516803574 c 0
 79.593735134 58.7047246818 68.3658813693 52.1446609407 56 52.1446609407 c 0
 44.2551122318 52.1446609407 35.9929742171 56.0365701141 30.0575207581 61.9720235731 c 2
 -5.2978183012 97.3273626324 l 2
 -12.4758854578 104.505429789 -16.1627055101 114.304232877 -19.6081470007 123.259319199 c 0
 -22.522087439 130.832975067 -25.2845955717 137.813599441 -29.241609538 142.359951076 c 0
 -29.6238057322 142.799069641 -29.8553390593 143.372709435 -29.8553390593 144 c 0
 -29.8553390593 144.68989375 -29.5752859343 145.31489375 -29.1227593718 145.767420313 c 2
 12.2325796875 187.122759372 l 2
 12.68510625 187.575285934 13.31010625 187.855339059 14 187.855339059 c 0
 14.68989375 187.855339059 15.31489375 187.575285934 15.7674203125 187.122759372 c 2
 51.1227593718 151.767420313 l 2
 51.5752859343 151.31489375 51.8553390593 150.68989375 51.8553390593 150 c 0
 51.8553390593 149.31010625 51.5752859343 148.68510625 51.1227593718 148.232579687 c 2
 46.707060069 143.816880385 l 1
 50.1008007774 139.255565636 52.4387042521 133.642348089 54.6816109503 127.873396533 c 0
 55.1143999558 127.86141152 55.5538194648 127.855339059 56 127.855339059 c 0
 66.5527759004 127.855339059 77.0235992569 133.705579588 88.0391498932 140.005794774 c 0
 96.1130309727 144.623556505 104.424584794 149.414533553 113.361257273 151.772856914 c 0
 129.820653615 156.116372804 143.047373228 171.02582537 158.608734301 177.487366993 c 1
 175.468596749 193.661101197 198.964083367 195.056534509 221.376248675 195.642712597 c 1
 219.838823847 201.045274283 218.696112263 206.42293133 218.157455917 211.745748427 c 0
 214.903050538 243.90466528 212.997530789 276.532092911 212.997530789 309.16222476 c 0
 212.997530789 367.2051965 219.032524849 425.277990998 234.240470933 480.687247709 c 2
 246.183156626 522.486647632 l 1
 252.13296405 576.034914455 l 1
 246.171473702 647.572798631 l 1
 227.102679784 720.034215519 l 1
 222.433555603 724.103468676 217.87626183 727.687899992 213.854813271 730.216983781 c 1
 213.854813271 730.144745851 213.855339059 730.072417932 213.855339059 730 c 0
 213.855339059 721.168308412 211.156586642 709.839120097 204.330448511 703.012981965 c 2
 168.975109452 667.657642907 l 2
 165.662561155 664.345094609 161.289363514 662.144660941 156 662.144660941 c 0
 152.769511044 662.144660941 150.313363974 662.308889647 148.554997562 664.067256059 c 2
 113.199658504 699.422595118 l 2
 111.93771887 700.68453475 111.737506478 702.293314968 111.737506478 703.525940694 c 0
208.855339059 730 m 0
 208.855339059 731.609392599 208.589240939 733.12909541 208.589240939 734.637137603 c 0
 208.589240939 736.016925103 209.709453439 737.137137603 211.089240939 737.137137603 c 0
 211.479944463 737.137137603 211.849835063 737.047318098 212.17937269 736.887219135 c 0
 217.931031962 734.092895795 224.381092037 729.079696234 230.974752768 723.288847944 c 0
 231.343132755 722.965320133 231.615720233 722.535287567 231.744199645 722.047065801 c 2
 251.062613009 648.637095018 l 2
 251.098947791 648.499022847 251.123756899 648.35629674 251.1359475 648.21000953 c 2
 257.1359475 576.21000953 l 2
 257.141717828 576.140765596 257.144660941 576.070723786 257.144660941 576 c 0
 257.144660941 575.905812333 257.139441018 575.812834224 257.12927493 575.721339429 c 2
 251.12927493 521.721339429 l 2
 251.113719897 521.581344129 251.086585017 521.444821531 251.048850949 521.312752291 c 2
 239.048850949 479.312752291 l 2
 223.986497411 424.433953454 217.997530789 366.853906636 217.997530789 309.16222476 c 0
 217.997530789 276.730538339 219.891919264 244.270292724 223.131865965 212.254251573 c 0
 223.730629117 206.337479626 225.151256372 200.211511468 227.093600748 193.967580388 c 0
 227.166591096 193.732942955 227.205916702 193.483532149 227.205916702 193.225008837 c 0
 227.205916702 191.865826986 226.118912718 190.758525076 224.767557108 190.725755467 c 0
 201.032714161 190.150198965 177.690767145 189.147050354 161.746712513 173.567448971 c 0
 161.515393351 173.341417361 161.240443456 173.159849843 160.935747242 173.036630831 c 0
 145.065973939 166.618901651 132.265169316 151.589307952 114.638742727 146.937821204 c 0
 106.575381798 144.809958457 98.5997059613 140.285645239 90.5161646932 135.662358476 c 0
 79.5937351339 129.4154028 68.3658813694 122.855339059 56 122.855339059 c 0
 53.5302683878 122.855339059 51.3260694156 122.68230952 50.6048690614 124.551608968 c 0
 47.8746805273 131.628061289 45.1976797572 138.076019389 41.4690685807 142.359951076 c 0
 41.0868723864 142.799069641 40.8553390593 143.372709435 40.8553390593 144 c 0
 40.8553390593 144.68989375 41.1353921843 145.31489375 41.5879187468 145.767420313 c 2
 45.8204984343 150 l 1
 14 181.820498434 l 1
 -24.003483133 143.817015301 l 1
 -14.7239542086 131.349064674 -12.5968400754 111.696065657 -1.7629776762 100.862203257 c 2
 33.5923613831 65.5068641981 l 2
 38.6063761917 60.4928493895 45.3991665832 57.1446609407 56 57.1446609407 c 0
 66.5527759005 57.1446609407 77.0235992568 62.9949014692 88.0391498931 69.2951166544 c 0
 96.1130309727 73.912878386 104.424584794 78.7038554339 113.361257273 81.0621787956 c 0
 129.829528806 85.4080367835 143.040042317 100.312200068 158.608574218 106.776623887 c 1
 177.588532432 124.993547865 203.375637072 124.447425162 229.933365408 125.143788282 c 0
 236.053662533 125.143788282 244.545393145 121.103889665 253.396746975 115.476964419 c 0
 254.575013502 114.727924465 254.937343549 112.683721393 255.09139175 111.088109816 c 1
 288 78.1795015657 l 1
 320.843982133 111.023483699 l 1
 320.515650833 125.926686848 313.119696446 143.22831581 305.364976895 161.101944978 c 0
 298.092371052 177.864364183 290.551844146 195.107903061 288.868134035 211.745748427 c 0
 285.613728657 243.90466528 283.708208908 276.532092911 283.708208908 309.16222476 c 0
 283.708208908 367.2051965 289.736228745 425.253090332 304.944174829 480.662347043 c 2
 316.893834318 522.486643798 l 1
 322.843642168 576.034914455 l 1
 316.88215182 647.572798631 l 1
 297.108741826 722.711756608 l 1
 262.323036242 757.497462192 l 1
 247.991444163 769.200714771 216.441456042 804.855339059 204 804.855339059 c 0
 189.608216346 804.855339059 178.287009363 799.513240935 169.90361707 791.129848643 c 0
 168.911832405 790.138063978 167.603006553 788.041094544 165.780022346 788.041094544 c 0
 165.090128596 788.041094544 164.465128596 788.321147669 164.012602034 788.773674231 c 0
 146.216968593 806.569307672 107.776031252 810.848493116 82.0617611022 810.855330847 c 1
 1.08473350544 806.905231939 l 1
 -31.8204984343 774 l 1
 0.983828063076 741.195673503 l 1
 81.9998529865 745.147674719 l 2
 93.2998564559 745.147674719 107.29335159 744.40147059 121.105630755 741.953139725 c 0
 122.276602851 741.745576072 123.16706072 740.721732389 123.16706072 739.491552319 c 0
 123.16706072 739.135967593 123.092662559 738.797622365 122.958596584 738.491246983 c 0
 119.110732501 729.697883687 117.144660941 719.804229049 117.144660941 710 c 0
 117.144660941 707.561643893 116.737506478 705.714754335 116.737506478 703.525940694 c 0
 116.737506478 703.185587956 116.772414442 702.979470619 116.790801233 702.901133639 c 2
 152.089838188 667.602096683 l 1
 152.089838188 667.602096683 152.753384077 667.144660941 156 667.144660941 c 0
 159.849854758 667.144660941 162.897648085 668.649862789 165.440268826 671.192483531 c 2
 200.795607887 706.547822591 l 2
 206.149900928 711.902115633 208.855339059 722.055665552 208.855339059 730 c 0
EndSplineSet
EndChar
StartChar: uni0996
Encoding: 2454 2454 115
Width: 524
Flags: HW
HStem: 525.763 70.7107<53.2617 209.878> 684.645 114.711<55.387 135.923> 754.769 70.7107<467.96 524.782>
VStem: -24.3553 70.7107<604.798 692.451> 285.631 70.7107<290.222 469.985> 312.48 86.8604<93.8883 194.623>
LayerCount: 2
Fore
SplineSet
401.840730065 142.416452631 m 0
 401.840730065 137.649057049 400.855339059 132.544353489 400.855339059 128 c 0
 400.855339059 125.63393762 400.13152093 97.4357299148 393.677977397 90.9821863819 c 2
 358.322637538 55.6268465229 l 2
 357.540962125 54.84517111 356.404949281 54.1446609407 355 54.1446609407 c 0
 352.729662449 54.1446609407 350.645173117 55.2353185113 349.251716889 56.62877474 c 2
 313.896377828 91.9841137995 l 2
 309.945946297 95.9345453317 309.943269383 102.790971002 309.943269383 109.799708355 c 0
 309.943269383 112.198709831 309.980335113 114.626644767 309.980335113 117.02165867 c 0
 309.980335113 125.850514975 309.383044595 134.751996375 305.548448771 140.637920302 c 0
 294.84799456 157.062613375 289.44181094 185.413971272 286.495405422 215.672843708 c 1
 228.245035539 260.698854489 148.459858057 285.684643978 78.7416364982 300.144660941 c 1
 63.1883983386 300.144660941 l 1
 23.3733353364 294.172401491 l 2
 23.2515305228 294.154130769 23.1268624329 294.144660941 23 294.144660941 c 0
 22.31010625 294.144660941 21.68510625 294.424714066 21.2325796875 294.877240628 c 2
 -14.1227593718 330.232579687 l 2
 -14.5752859343 330.68510625 -14.8553390593 331.31010625 -14.8553390593 332 c 0
 -14.8553390593 332.68989375 -14.5752859343 333.31489375 -14.1227593718 333.767420313 c 2
 21.2325796875 369.122759372 l 2
 21.4038662156 369.2940459 21.5998631836 369.440621988 21.814736575 369.556653619 c 2
 106.627906746 415.355765511 l 1
 150.197284349 467.400902395 209.611139957 512.83869154 245.060319453 571.325283496 c 1
 215.236363745 543.688192954 179.591032898 523.262646022 137.907470195 523.262646022 c 0
 132.968471129 523.262646022 127.949664662 523.549768547 122.852032336 524.144675388 c 0
 85.9418780591 524.152087964 50.4038928634 526.943918301 28.8009142737 548.546897328 c 2
 -6.55442478561 583.902236387 l 2
 -19.3691609729 596.716972575 -26.8553390593 615.896406804 -26.8553390593 644 c 0
 -26.8553390593 674.477975735 -17.6840908684 705.883898834 1.02827499164 729.34238904 c 1
 -21.4099083136 751.780572345 l 2
 -30.4369752912 760.807639322 -37.3560401757 771.418425005 -40.7592583971 783.311805657 c 0
 -40.8218278301 783.530469885 -40.8553390593 783.761352341 -40.8553390593 784 c 0
 -40.8553390593 784.68989375 -40.5752859343 785.31489375 -40.1227593718 785.767420313 c 2
 -4.76742031249 821.122759372 l 2
 -4.31489374999 821.575285934 -3.68989375 821.855339059 -3 821.855339059 c 0
 -2.31010625 821.855339059 -1.68510625001 821.575285934 -1.23257968751 821.122759372 c 2
 34.1227593718 785.767420313 l 2
 34.418748226 785.471431458 34.6409492429 785.101654767 34.7592584285 784.688194233 c 0
 35.7616074371 781.185239203 37.0997152335 777.789845308 38.7372467274 774.510174673 c 0
 40.1149899081 773.707745 41.5120623693 772.931213138 42.9258979307 772.181287696 c 1
 60.6661676736 789.921557435 84.0790979574 801.855339059 115 801.855339059 c 0
 120.689548489 801.855339059 129.363383739 799.905548464 133.448477044 795.82045516 c 2
 168.803816103 760.465116101 l 2
 169.913334076 759.355598127 170.855339059 757.854403913 170.855339059 756 c 0
 170.855339059 743.462123559 167.030038129 734.391424883 160.892599837 728.25398659 c 2
 125.537260778 692.898647532 l 2
 117.456876394 684.818263148 105.812967673 682.145707009 94.9270521281 682.145707009 c 0
 82.3869922986 682.50578515 69.0584612896 685.247720293 56.279902066 690.010717085 c 1
 51.3270639532 675.293145778 48.8553390593 659.518933881 48.8553390593 644 c 0
 48.8553390593 629.873333043 50.8007166444 618.300524285 54.2870018703 608.828543499 c 1
 73.2750951739 601.31760467 97.5024556188 599.85533911 123 599.855339059 c 0
 123.099848873 599.855339059 123.198338416 599.849472785 123.295142483 599.838066384 c 0
 128.250229238 599.25420965 133.120425714 598.973324002 137.907471393 598.973324002 c 0
 173.356385084 598.973324002 204.500301894 614.378793834 231.54366224 636.817428343 c 0
 241.702677315 648.718054113 251.050682595 661.171374157 259.592241076 673.427055177 c 0
 261.926333153 676.776079668 263.955538341 679.259563305 265.779148767 681.083173731 c 2
 301.134487826 716.43851279 l 2
 303.787203625 719.091228589 306.153981798 720.598212605 308.680427382 720.598212605 c 0
 310.251137197 720.598212605 311.607698544 719.903064222 312.537864234 718.97289853 c 2
 347.893203295 683.61755947 l 2
 350.596193918 680.914568846 350.873917784 676.43567432 350.873917784 674.70904553 c 0
 350.873917784 674.262464439 350.855339059 674 350.855339059 674 c 1
 350.855339059 581.650114283 285.630280155 519.693159794 228.507238762 462.570118402 c 0
 202.994571714 437.024265847 178.453179652 411.829735549 160.441426934 384.622504335 c 0
 160.348376492 384.48194917 160.241506022 384.351326338 160.122759371 384.232579687 c 2
 137.538129599 361.647949915 l 1
 188.687066783 347.077257223 240.797609482 326.075092451 283.152678431 295.146879332 c 1
 283.136235152 298.752805915 283.128032602 302.212064039 283.131144265 305.493597681 c 2
 283.144935172 320.037371263 l 2
 283.881444461 370.192763323 290.225226733 421.094009217 305.255758238 470.738642522 c 0
 334.130822942 564.107423689 343.13221662 662.456854686 395.594942794 737.430923921 c 0
 399.626720306 743.192705445 405.826003381 750.592860936 413.360029439 758.126886993 c 2
 448.715368499 793.482226054 l 2
 465.422309845 810.189167399 488.880152896 827.980050701 509.923011381 827.980050701 c 0
 515.662339866 827.980050701 521.237642998 826.61437236 526.31012229 823.48449883 c 0
 526.476468904 823.381857926 526.629907822 823.260271862 526.767420313 823.122759372 c 2
 562.122759372 787.767420313 l 2
 562.575285934 787.31489375 562.855339059 786.68989375 562.855339059 786 c 0
 562.855339059 785.31010625 562.575285934 784.68510625 562.122759372 784.232579687 c 2
 526.767420313 748.877240628 l 2
 526.31489375 748.424714066 525.68989375 748.144660941 525 748.144660941 c 0
 524.519749189 748.144660941 524.070945049 748.280371055 523.689877661 748.5155012 c 0
 519.469136487 751.119826618 514.862130409 752.269373192 509.923010045 752.269373192 c 0
 497.992542772 752.269373192 484.09442387 745.340508613 471.294294718 735.816432752 c 0
 470.985584373 735.390952932 470.689025996 734.974897094 470.405057206 734.569076079 c 0
 418.880506084 660.935745429 409.414995627 561.969638644 380.748550489 469.275437942 c 0
 365.878654399 420.161370455 359.586325256 369.776976643 358.855337953 319.997625103 c 2
 358.841821277 305.491222784 l 2
 358.841821277 282.32598066 359.098686832 250.43544296 361.803418463 220.218396184 c 1
 378.97428378 200.186238086 392.460068267 177.167497462 400.741423696 150.747693521 c 0
 401.588649095 148.044811228 401.840730065 145.200550308 401.840730065 142.416452631 c 0
314.980335113 117.02165867 m 0
 314.980335113 114.61521443 314.943269383 112.187468135 314.943269383 109.799708355 c 0
 314.943269383 102.540312534 315.643781913 97.3063909647 317.431218454 95.5189544241 c 2
 352.786557513 60.163615365 l 2
 353.283438926 59.6667339527 353.866077357 59.3267011409 354.80923627 59.1831265053 c 2
 390.143136773 94.5170270069 l 2
 393.609308524 97.9831987592 395.855339059 125.714391884 395.855339059 128 c 0
 395.855339059 132.693510839 396.840730065 137.811239747 396.840730065 142.416452631 c 0
 396.840730065 144.887048516 396.600115533 147.239685838 395.969254422 149.252306479 c 0
 387.820880939 175.247861432 374.517080821 197.848613149 357.492647605 217.563786335 c 0
 357.1611423 217.947686604 356.94434712 218.433352184 356.895744958 218.967300183 c 0
 354.098335298 249.699910135 353.841821277 282.077739381 353.841821277 305.491222784 c 2
 353.855340165 320.002374897 l 2
 354.591849454 370.157766957 360.931596125 421.079928753 375.962127629 470.724562058 c 0
 404.84001981 564.102485992 413.837060612 662.44851718 466.305620912 737.430923921 c 0
 466.785099028 738.116142324 467.307923894 739.078250457 468.000741681 739.596655305 c 0
 481.249077202 749.509797668 496.046147217 757.269373192 509.923010045 757.269373192 c 0
 515.017795855 757.269373192 519.98332869 756.193210053 524.582615315 753.762116881 c 1
 556.820498434 786 l 1
 523.445283046 819.375215388 l 1
 519.291340784 821.874409996 514.766890864 822.980050701 509.923011381 822.980050701 c 0
 491.504289464 822.980050701 468.725126381 806.422302685 452.250209123 789.947385428 c 2
 416.894870065 754.592046369 l 2
 409.555273265 747.25244957 403.504027746 740.013415005 399.694379088 734.569076079 c 0
 348.171227816 660.937745944 338.699761497 561.954758569 310.033563644 469.261357478 c 0
 295.163667555 420.147289991 288.875374013 369.741980277 288.14438671 319.962628737 c 2
 288.131142053 305.488847887 l 2
 288.131142053 300.720775232 288.150276485 295.586532387 288.18264937 290.171025472 c 0
 288.191011824 288.77211013 287.062508908 287.651866179 285.682721408 287.651866179 c 0
 285.117235939 287.651866179 284.595349953 287.840022539 284.176307946 288.157090763 c 0
 240.758466242 321.009210036 185.821169403 343.023154175 132.081969462 357.989229719 c 0
 131.027749186 358.282824344 130.253260249 359.2506407 130.253260249 360.39792119 c 0
 130.253260249 361.08781494 130.533313374 361.71281494 130.985839936 362.165341502 c 2
 156.409282205 387.588783771 l 1
 176.008759169 417.129321144 203.396660918 444.566804178 230.332693194 471.459493562 c 0
 286.560626711 527.596950452 345.855339059 586.997460161 345.855339059 674 c 0
 345.855322784 674.036121814 345.423870184 679.01721133 344.358362669 680.082718846 c 2
 309.00302361 715.438057904 l 2
 308.858123321 715.582958193 308.827200691 715.599736595 308.680427382 715.598212605 c 0
 308.380237184 715.598212605 306.995535397 715.229879111 304.669328452 712.903672165 c 2
 269.313989392 677.548333106 l 2
 267.788918499 676.023262213 265.914205721 673.754141364 263.697080806 670.572944823 c 0
 255.045851646 658.159904815 245.555914947 645.518205105 235.206300798 633.408325964 c 0
 235.113530394 633.299777147 235.011634641 633.199256344 234.901806497 633.107956514 c 0
 207.254755419 610.125040012 174.954266027 593.973324002 137.907471393 593.973324002 c 0
 132.968466908 593.973324002 127.949654843 594.260447158 122.852016658 594.855354612 c 0
 96.7923867686 594.86072632 71.6214285003 596.290282279 51.3855435207 604.606532153 c 0
 50.7515991581 604.867061403 50.2479968821 605.380722371 50.000833912 606.021417839 c 0
 46.0062066657 616.376284391 43.8553390593 628.888025789 43.8553390593 644 c 0
 43.8553390593 660.939227968 46.6920675666 678.138811022 52.4103933581 694.112250736 c 0
 52.7562770717 695.078434344 53.6804120089 695.770472426 54.7649056147 695.770472426 c 0
 55.0886383309 695.770472426 55.3980817248 695.708805942 55.6821199273 695.596588844 c 0
 68.6928932153 690.456325281 82.4058942793 687.507339543 95.0729478719 687.143614873 c 0
 105.219257071 687.143614873 115.280835668 689.711903672 122.002420152 696.433488157 c 2
 157.357759211 731.788827215 l 2
 162.430197931 736.861265935 165.855339059 744.484118797 165.855339059 756 c 0
 165.855339059 756.067702945 165.82234723 756.376903723 165.268975477 756.930275476 c 2
 129.913636419 792.285614535 l 2
 127.606657791 794.592593162 119.724126539 796.855339059 115 796.855339059 c 0
 86.4506678118 796.855339059 64.1476098577 786.333318372 47.7415143269 769.927222842 c 0
 46.7065557268 768.892264242 45.2944379511 766.617026527 43.3964773869 766.617026527 c 0
 42.9874079291 766.617026527 42.6011541062 766.715488858 42.2601431058 766.889986332 c 0
 39.9903814377 768.051437658 37.7572930616 769.279222233 35.5697498538 770.57142479 c 0
 35.162892383 770.811759364 34.8298867922 771.16406324 34.6132679199 771.58580158 c 0
 32.7854969647 775.144314654 31.2761170633 778.848861004 30.1339074294 782.686591005 c 1
 -3 815.820498434 l 1
 -35.5314674184 783.289031016 l 1
 -32.2723375075 772.916337079 -26.0565697363 763.496915018 -17.8750676888 755.315412971 c 2
 6.15957601948 731.280769263 l 2
 6.61210258199 730.8282427 6.89215570699 730.2032427 6.89215570699 729.51334895 c 0
 6.89215570699 728.905722686 6.67491106367 728.348436227 6.31392277887 727.914990574 c 0
 -12.4499330429 705.384864036 -21.8553390593 674.25221793 -21.8553390593 644 c 0
 -21.8553390593 616.76425502 -14.6717917155 599.089284567 -3.01958416063 587.437077013 c 2
 32.3357548987 552.081737954 l 2
 52.1257086232 532.291784229 86.0236582923 529.144660941 123 529.144660941 c 0
 123.099848866 529.144660941 123.198338402 529.138794668 123.295142462 529.127388269 c 0
 128.250228805 528.543531626 133.120424889 528.262646022 137.907470195 528.262646022 c 0
 181.369639964 528.262646022 218.395563586 551.446505485 249.253264234 582.304206132 c 2
 253.917455013 586.968396912 l 2
 254.369981576 587.420923475 254.994981576 587.7009766 255.684875326 587.7009766 c 0
 257.064662826 587.7009766 258.184875326 586.5807641 258.184875326 585.2009766 c 0
 258.184875326 584.791357281 258.086148116 584.404614975 257.911211443 584.063267429 c 0
 223.425237906 516.772045591 157.388826382 468.336523508 110.156332759 411.782182991 c 0
 109.952728096 411.538394731 109.703592381 411.333922136 109.42204926 411.18188885 c 2
 24.5075735121 365.328071946 l 1
 -8.82049843429 332 l 1
 23.8752877167 299.304213849 l 1
 62.6266646636 305.116920391 l 2
 62.7484694772 305.135191113 62.8731375671 305.144660941 63 305.144660941 c 2
 79 305.144660941 l 2
 79.1743409763 305.144660941 79.3445377841 305.126776517 79.5088542942 305.092743799 c 0
 149.970666734 290.498915143 230.999517404 265.252861187 290.415258257 218.958956613 c 0
 290.943344383 218.547497151 291.302221814 217.928833504 291.369260001 217.22559622 c 0
 294.268169918 186.81574146 299.854782893 158.53676241 309.740873111 143.362079698 c 0
 314.626192173 135.863345103 314.980335113 125.922506597 314.980335113 117.02165867 c 0
EndSplineSet
EndChar
StartChar: uni0997
Encoding: 2455 2455 116
Width: 492
Flags: HW
HStem: 377.885 70.7107<74.8996 176.638> 744.645 70.7107<409.978 473> 764.645 70.7107<93.7791 263.483>
VStem: -20.3553 70.7107<463.481 516> 13.59 70.7107<644.098 748.948> 203.802 70.7107<139.845 400.709> 304.986 70.7107<161.589 427.524>
LayerCount: 2
Fore
SplineSet
379.065942117 555.747116415 m 0
 379.065942117 518.747541939 375.841700429 487.35817688 375.841700429 450.622024519 c 0
 375.841700429 408.222201061 378.196268224 365.352510573 378.196268224 322.916443402 c 0
 378.196268224 264.775886972 373.785367607 207.360756263 352.686376528 153.095341279 c 0
 345.498916877 134.609600456 341.699041616 111.884510013 328.80134228 98.9868106765 c 2
 293.446003221 63.6314716174 l 2
 286.219001312 56.4044697086 276.020659151 52.1446609407 261 52.1446609407 c 0
 260.637189229 52.1446609407 260.292325745 52.222113602 259.981056298 52.361372174 c 0
 256.55270286 53.895180288 253.573929305 56.0008508485 251.029918006 58.544862147 c 2
 215.674578948 93.9002012062 l 2
 203.927069704 105.647710449 201.301939713 126.303925897 201.301939713 146.38298914 c 0
 201.301939713 158.238960556 202.272733499 170.050935819 203.136151318 180.011614182 c 0
 201.987845072 194.856419424 201.449012494 209.645033862 201.449008259 224.378640103 c 0
 201.449008259 297.838161238 214.837047952 369.902097228 232.867950097 440.810666389 c 1
 201.314767585 409.257483876 l 2
 181.45674181 389.399458102 149.439947695 380.370176519 123.397603118 376.176164007 c 0
 120.06464801 375.642583332 116.747524093 375.385291236 113.456880879 375.385291236 c 0
 91.3452481007 375.385291236 70.7345438844 386.953830062 53.9153406245 403.773033322 c 2
 18.5600015652 439.128372382 l 2
 -2.23507484282 459.92344879 -17.4722905274 488.92925946 -22.8064758779 515.506122693 c 0
 -22.8385237302 515.66579682 -22.8553390593 515.830950191 -22.8553390593 516 c 0
 -22.8553390593 516.68989375 -22.5752859343 517.31489375 -22.1227593718 517.767420313 c 2
 13.2325796875 553.122759372 l 2
 13.68510625 553.575285934 14.31010625 553.855339059 15 553.855339059 c 0
 15.68989375 553.855339059 16.31489375 553.575285934 16.7674203125 553.122759372 c 2
 52.1227593718 517.767420313 l 2
 52.4643999741 517.42577971 52.7077361612 516.985834693 52.8064758756 516.493877318 c 0
 56.3693147197 498.742510957 64.6354080438 479.623508517 76.1026606647 462.895582464 c 1
 87.8003261113 455.469654729 109.721544522 452.275903601 113.456880866 451.095969354 c 0
 116.481871006 451.095969354 119.529724502 451.331923506 122.600110891 451.823468933 c 0
 139.565832802 454.555728686 158.947996819 459.412952542 175.462623511 467.801341794 c 0
 177.572600054 473.249345652 178.861646451 479.25044713 179.138319538 485.89245586 c 0
 177.190380584 501.26921737 171.41039777 514.431079796 163.042861398 526.284089445 c 1
 136.65247829 547.088370545 105.881745552 565.2446651 82.3768404116 588.749570241 c 2
 47.0215013523 624.1049093 l 2
 26.1291325832 644.997278069 11.0899875124 670.166104255 11.0899875124 704.431022592 c 0
 11.0899875124 705.607537147 11.1076365973 706.794369896 11.1432591883 707.991709797 c 0
 11.1104486595 708.901447004 11.0941912186 709.80877152 11.0941911961 710.713464254 c 0
 11.0941911961 733.820826644 21.6846075973 755.009199003 37.6514128047 770.976004212 c 2
 73.006751864 806.331343271 l 2
 90.0574913276 823.382082734 113.315313525 834.592749104 136.86464415 835.851729748 c 0
 153.216162526 836.725905133 170.495820084 837.855333449 187.005347922 837.855333449 c 0
 229.637619265 837.765877329 261.362230206 823.520583776 284.541390069 800.341423912 c 2
 319.896728806 764.986085176 l 2
 328.991672764 755.891141208 336.758336952 745.445314774 343.373774183 733.985476434 c 1
 346.739174039 738.340420042 350.32522677 742.501582134 354.197934 746.374289363 c 2
 389.55327306 781.729628424 l 2
 400.899213215 793.075568578 414.731272234 801.931025738 432.465739222 805.798021089 c 0
 442.139557381 807.907394316 456.227084943 817.855339059 467 817.855339059 c 2
 472.59278273 817.855339059 l 1
 490.209846952 823.7276938 l 2
 490.458243642 823.810492696 490.723925934 823.855339059 491 823.855339059 c 0
 491.68989375 823.855339059 492.31489375 823.575285934 492.767420313 823.122759372 c 2
 528.122759372 787.767420313 l 2
 528.575285934 787.31489375 528.855339059 786.68989375 528.855339059 786 c 0
 528.855339059 785.31010625 528.575285934 784.68510625 528.122759372 784.232579687 c 2
 492.767420313 748.877240628 l 2
 492.495980835 748.605801151 492.162485884 748.396417146 491.790153048 748.2723062 c 2
 473.790153048 742.2723062 l 2
 473.541756358 742.189507304 473.276074066 742.144660941 473 742.144660941 c 2
 467 742.144660941 l 2
 458.032195608 742.144660941 442.693069331 732.199054444 433.534260777 730.201978911 c 0
 425.300868183 728.406690059 417.995719638 725.48845314 411.402088973 721.699853862 c 0
 403.012550949 709.243346198 395.988092958 695.919797551 388.492827136 682.703471827 c 0
 382.160805281 672.293537749 376.631627759 661.443787699 371.693730948 650.266189729 c 1
 377.170037146 619.351307135 379.065942117 586.80736163 379.065942117 555.747116415 c 0
373.196268224 322.916443402 m 0
 373.196268224 365.311178342 370.841700429 408.181146761 370.841700429 450.622024519 c 0
 370.841700429 487.427621877 374.065942117 518.821672536 374.065942117 555.747116415 c 0
 374.065942117 586.850341435 372.145836673 619.394645271 366.637829702 650.13402511 c 0
 366.612055552 650.27786686 366.598602122 650.425958743 366.598602122 650.577168047 c 0
 366.598602122 650.93384381 366.673457533 651.27317412 366.808302002 651.580292624 c 0
 373.266427826 666.289163898 381.38258434 680.171563983 389.123931603 694.043931922 c 0
 394.942228414 704.470224841 400.777776353 714.933678709 407.581115102 724.975128727 c 0
 407.791293116 725.285342889 408.06930676 725.545927386 408.393778071 725.735504257 c 0
 415.545834601 729.914192624 423.515409474 733.135726181 432.465739223 735.087342971 c 0
 442.135106474 737.195745678 456.23399987 747.144660941 467 747.144660941 c 2
 472.59278273 747.144660941 l 1
 489.651347698 752.830849264 l 1
 522.820498434 786 l 1
 490.325673849 818.494824585 l 1
 473.790153048 812.982984318 l 2
 473.541756358 812.900185422 473.276074066 812.855339059 473 812.855339059 c 2
 467 812.855339059 l 2
 458.024600359 812.855339059 442.698143575 802.910839 433.534260778 800.912657029 c 0
 416.842220144 797.272962442 403.913876063 789.020550176 393.088113684 778.194787798 c 2
 357.732774626 742.839448739 l 2
 353.174711024 738.281385138 348.993944175 733.264556509 345.084653964 727.949935887 c 0
 344.629403434 727.33102971 343.896040893 726.929089316 343.069540953 726.929089316 c 0
 342.124497872 726.929089316 341.301225172 727.454597175 340.876250442 728.229085305 c 0
 334.05600701 740.65852452 325.952400118 751.860732604 316.361888826 761.451243906 c 2
 281.006549444 796.806583287 l 2
 258.774901276 819.038231456 228.471949293 832.768312055 186.994652078 832.855344669 c 0
 170.724436899 832.855344669 153.417607112 831.729420636 137.13535585 830.85894837 c 0
 114.979029365 829.674439704 92.7731005618 819.028010718 76.541592489 802.796502645 c 2
 41.1862534297 767.441163586 l 2
 25.9878811085 752.242791265 16.0941911961 732.248104114 16.0941911961 710.713464254 c 0
 16.0941911961 709.843230498 16.1103225701 708.970152083 16.1434845936 707.922648461 c 0
 16.1076860241 706.747172252 16.0899875124 705.583377481 16.0899875124 704.431022592 c 0
 16.0899875124 671.769452143 30.2389208056 647.957171097 50.5563419773 627.639749926 c 2
 85.9116810366 592.284410865 l 2
 109.01043455 569.185657352 140.195167574 550.705588935 166.422546987 529.985450042 c 0
 166.609711331 529.837586577 166.775257671 529.663542512 166.913636879 529.468866978 c 0
 175.81977491 516.93947608 182.075203302 502.802310983 184.125465214 486.311025597 c 0
 184.1381348 486.209117762 184.144660941 486.105314998 184.142789398 485.902466512 c 0
 183.849338494 478.268741591 182.309635469 471.332913805 179.755958795 465.064031339 c 0
 179.530837359 464.511392926 179.113582286 464.057147356 178.587347077 463.784448127 c 0
 161.177759607 454.762662837 140.97396896 449.717442483 123.399889109 446.887209185 c 0
 120.066933996 446.35362851 116.747524084 446.095969354 113.456880866 446.095969354 c 0
 99.1289840323 446.095969354 85.4173433268 450.967892176 72.9818090585 458.956263125 c 0
 72.7019998687 459.136007683 72.4602938134 459.370003061 72.2715942874 459.643345866 c 0
 60.4419969526 476.779241134 51.8794961495 496.316082546 48.0553621333 514.765136301 c 1
 15 547.820498434 l 1
 -17.6338513118 515.186647123 l 1
 -12.2745623473 490.012192417 2.40472958257 462.353325614 22.0948421902 442.663213006 c 2
 57.4501812495 407.307873948 l 2
 73.6778661534 391.080189044 93.1535029285 380.385291236 113.456880879 380.385291236 c 0
 116.481871015 380.385291236 119.532010498 380.621612448 122.602396882 381.113157875 c 0
 148.264736359 385.245972127 179.256629994 394.269027536 197.779926959 412.792324501 c 2
 233.135266019 448.147663561 l 2
 234.226993678 449.23939122 235.644013191 451.765309203 237.624196317 451.765309203 c 0
 239.003983817 451.765309203 240.124196317 450.645096703 240.124196317 449.265309203 c 0
 240.124196317 449.047715542 240.096337127 448.836577397 240.043994126 448.635270145 c 0
 220.896817865 374.996668624 206.449008259 300.33109999 206.449008259 224.378640103 c 0
 206.449008259 209.701200449 206.988273286 194.974560764 208.137069383 180.196078771 c 0
 208.142099046 180.131375572 208.144660941 180.065984607 208.144660941 180 c 0
 208.144660941 179.926383363 208.141472136 179.853505634 208.135225237 179.781497524 c 0
 207.269193518 169.798735267 206.301939713 158.044733856 206.301939713 146.38298914 c 0
 206.301939713 126.524019717 209.265800188 107.378661215 219.209419572 97.4350418314 c 2
 254.564758632 62.079702772 l 2
 256.58406793 60.0603934739 258.884791534 58.4027458574 261.5434871 57.1465891478 c 0
 275.29457792 57.2446530778 283.818300177 61.0734489178 289.911162595 67.1663122424 c 2
 325.266501654 102.521651301 l 2
 336.551213712 113.806363359 341.188345589 137.322965462 348.02430159 154.904658721 c 0
 368.775846459 208.276461655 373.196268224 265.017806184 373.196268224 322.916443402 c 0
274.625531642 137.178083932 m 0
 271.134553966 137.178083932 272.012617283 143.000754442 272.012617283 146.382988907 c 0
 272.012617283 158.238960374 272.983411146 170.050935717 273.846829429 180.011614214 c 0
 272.698522648 194.856422504 272.159689827 209.645039954 272.159685592 224.378649175 c 0
 272.159685592 293.460698868 284.000748518 361.308483043 300.406510413 428.121149715 c 0
 300.674588481 429.212900936 301.660629319 430.02380663 302.83457276 430.02380663 c 0
 304.20042837 430.02380663 305.311924439 428.926101779 305.334231022 427.565522023 c 0
 305.901022957 392.994309665 307.485590106 357.795153141 307.485590106 322.916443402 c 0
 307.485590106 264.775886972 303.074689487 207.360756263 281.97569841 153.095341279 c 0
 280.125294152 148.336205898 278.523115627 143.574249 277.003403017 138.904679056 c 0
 276.677386065 137.902937709 275.735440205 137.178083932 274.625531642 137.178083932 c 0
302.485590106 322.916443402 m 0
 302.485590106 351.152679878 301.434843987 379.906269255 300.743766739 407.970365251 c 1
 286.788409496 347.536206031 277.159685592 286.38626926 277.159685592 224.378649175 c 0
 277.159685592 209.701206546 277.698950863 194.974563855 278.847747498 180.196078822 c 0
 278.852777163 180.131375607 278.855339059 180.065984624 278.855339059 180 c 0
 278.855339059 179.926383324 278.852150251 179.853505557 278.845903345 179.78149741 c 0
 278.191080088 172.233342682 277.622300803 163.672542656 277.313623472 154.904658721 c 1
 298.065168341 208.276461655 302.485590106 265.017806184 302.485590106 322.916443402 c 0
300.887924089 650.577168629 m 0
 300.887924089 650.220492864 300.813068677 649.881162552 300.678224207 649.574044047 c 0
 285.651994254 615.350666095 276.296719837 578.702997209 266.043991509 541.295968394 c 0
 261.59279033 526.122450963 257.165564869 510.908763305 252.851172186 495.652523596 c 0
 252.55441771 494.603162133 251.58897701 493.833330735 250.445151419 493.833330735 c 0
 249.272902914 493.833330735 248.288014818 494.641896552 248.018254712 495.731260605 c 0
 243.396417227 514.395486691 232.829724452 529.75439991 218.983679771 543.600444736 c 2
 183.628340713 578.955783795 l 2
 160.800877405 601.783247103 128.8707125 620.642141188 102.888116506 641.348073194 c 0
 102.711925924 641.488482189 102.555098836 641.65217865 102.422312539 641.834485276 c 0
 89.8655813268 659.07403006 81.800665623 679.340415632 81.800665623 704.431022333 c 0
 81.800665623 705.607536973 81.8183147105 706.794369806 81.8539373068 707.991709794 c 0
 81.8211267781 708.901447001 81.8048693371 709.808771519 81.8048693148 710.713464254 c 0
 81.8048693148 725.055992093 85.8902809725 738.667145889 92.8025603126 750.739230277 c 0
 93.0186709934 751.116660969 93.3303614297 751.432475302 93.7045364473 751.6535781 c 0
 106.946418618 759.478304676 121.838937672 764.337756032 136.86464415 765.14105163 c 0
 153.216162525 766.015227013 170.495820084 767.144655331 187.005347922 767.144655331 c 0
 218.773757359 767.077995063 244.501213753 759.16587844 265.14916638 745.510436982 c 0
 265.419256135 745.331814195 265.652711346 745.102177548 265.835753005 744.835306049 c 0
 283.786364566 718.663632188 294.603094645 685.876099081 300.848696507 651.020311583 c 0
 300.874470658 650.876469827 300.887924089 650.728377939 300.887924089 650.577168629 c 0
86.8048693148 710.713464254 m 0
 86.8048693148 708.64637033 86.800665623 706.504142342 86.800665623 704.431022333 c 0
 86.800665623 680.596207304 94.3346997482 661.526222787 106.267441612 645.047809841 c 1
 132.422234479 624.249587992 163.924289348 605.72951641 187.163181338 582.490624421 c 2
 222.518520397 547.135285361 l 2
 234.717470021 534.936335609 244.687694719 521.333991818 250.378825033 505.246604133 c 1
 255.000224537 521.430825473 259.79117397 537.339000989 264.243474143 553.694074942 c 0
 273.28948858 586.923693193 282.235532658 619.82076147 295.792231974 650.882650951 c 1
 289.637305961 684.838457332 279.074755807 716.518441481 261.986816865 741.606431732 c 1
 242.282583772 754.518993177 217.710368827 762.080215944 186.994652078 762.144666551 c 0
 170.724436899 762.144666551 153.417607111 761.018742517 137.13535585 760.148270252 c 0
 123.226778701 759.404697974 109.284445876 754.937032445 96.8170334295 747.682474609 c 1
 90.4865228547 736.423474927 86.8048697856 723.85924824 86.8048693148 710.713464254 c 0
EndSplineSet
EndChar
StartChar: uni099A
Encoding: 2458 2458 119
Width: 560
Flags: HW
HStem: 46.7366 70.7107<265.263 375.277> 372.756 70.7107<251.864 342.086> 733.241 70.7107<18.1942 201.725> 745.736 70.7107<10 150.043> 762.789 70.7144<389.265 540.856>
VStem: 167.423 70.7107<174.962 371.735> 201.725 69.6307<548.408 739.24> 389.612 70.7107<134.197 303.474>
LayerCount: 2
Fore
SplineSet
541.226307506 836.003046715 m 0
 545.953637017 836.003046715 549.661350711 834.294584598 552.449234811 831.506700498 c 2
 587.804573872 796.151361438 l 2
 591.450298751 792.505636558 593.528261798 787.369158397 595.681563537 781.916940751 c 0
 595.793712163 781.632977428 595.855339059 781.323628788 595.855339059 781 c 0
 595.855339059 780.31010625 595.575285934 779.68510625 595.122759372 779.232579687 c 2
 559.767420313 743.877240628 l 2
 559.31489375 743.424714066 558.68989375 743.144660941 558 743.144660941 c 0
 557.31010625 743.144660941 556.68510625 743.424714066 556.232579687 743.877240628 c 2
 539.872896744 760.236923572 l 1
 538.369941768 760.117570955 536.648459921 759.800646627 534.687055944 759.240416152 c 0
 510.198030861 752.245682625 488.677450325 755.390970227 462.145422413 753.148828603 c 2
 288.000240009 743.140484787 l 2
 287.310346259 743.140484787 286.68510625 743.424714066 286.232579687 743.877240628 c 2
 250.877240629 779.232579687 l 2
 250.424714066 779.68510625 250.144660941 780.31010625 250.144660941 781 c 0
 250.144660941 781.68989375 250.424714066 782.31489375 250.877240629 782.767420313 c 2
 286.232579687 818.122759372 l 2
 286.653088875 818.543268559 287.222529042 818.814846768 287.854577587 818.851171397 c 2
 461.787074118 828.846380877 l 2
 487.853806911 831.049201815 509.824959964 828.050774933 533.312944056 834.759583848 c 0
 536.229784502 835.592713039 538.839023495 836.003046715 541.226307506 836.003046715 c 0
541.226307506 831.003046715 m 0
 539.428461823 831.003046715 537.265342274 830.687523171 534.687055944 829.95109427 c 0
 510.2193623 822.962453584 488.718656465 826.104216558 462.212925882 823.864297241 c 2
 289.093500495 813.913998929 l 1
 256.179501566 781 l 1
 288.974637053 748.204864513 l 1
 461.854577587 758.140493279 l 2
 487.900829439 760.341583434 509.840885823 757.344645674 533.312944056 764.04890573 c 0
 536.05937376 764.833360966 538.532542088 765.242539847 540.856030319 765.288630622 c 0
 541.545924069 765.288630622 542.170924069 765.008577497 542.623450631 764.556050935 c 2
 558 749.179501566 l 1
 590.422224647 781.601726213 l 1
 588.497370424 786.35314991 586.634969551 790.251284508 584.269733246 792.616520814 c 2
 548.914394187 827.971859872 l 2
 546.982819567 829.903434492 544.730641733 831.003046715 541.226307506 831.003046715 c 0
287.855339059 783 m 0
 287.855339059 781.329929358 278.507365856 768.599640872 273.892694622 762.235901724 c 1
 277.859405895 675.000037033 l 1
 271.851295549 568.856754253 l 2
 271.847918342 568.797090275 271.842444875 568.737983062 271.83494771 568.679505174 c 2
 261.83494771 490.679505174 l 2
 261.816064986 490.532219924 261.784344749 490.388926863 261.740946356 490.250785346 c 0
 257.427453873 476.520498378 256.661937244 461.286820253 254.578757462 445.803342596 c 1
 257.222028668 445.911848387 259.880413265 445.966598859 262.547929007 445.966598859 c 0
 299.495851969 445.966598859 338.393066803 435.522612529 362.553238475 411.362440857 c 0
 374.757738979 399.157940353 387.191532977 387.207293165 399.159477969 374.729928566 c 0
 440.757768202 331.360993104 455.429256923 264.653787582 461.839782823 207.280188318 c 0
 462.500536067 201.36650941 462.822944614 195.646219232 462.822944614 190.120102552 c 0
 462.822944614 158.105535251 451.959415371 132.688733895 433.651486987 114.380805511 c 2
 398.296147928 79.0254664525 l 2
 375.11700104 55.8463195646 340.315585014 44.236608668 301.154618195 44.236608668 c 0
 294.798254266 44.236608668 288.325391302 44.5426286596 281.764939604 45.1555883665 c 0
 266.970070737 46.5379106363 255.744641488 51.9794482739 247.388141846 60.3359479141 c 2
 212.032802787 95.6912869734 l 2
 190.005418673 117.718671088 188.105037138 158.757204675 186.029987222 197.221865479 c 0
 184.622161604 223.318362917 183.190271489 248.486526498 176.314963279 266.091902938 c 0
 167.909714109 287.614949057 164.923389168 310.032163402 164.923389168 332.663493641 c 0
 164.923389168 355.877530526 168.058878084 379.322410311 171.753038011 402.356782304 c 1
 166.877242537 407.232577779 l 2
 166.424714853 407.685104493 166.144660941 408.31010528 166.144660941 409 c 0
 166.144660941 409.68989375 166.424714066 410.31489375 166.877240629 410.767420313 c 0
 169.361112487 413.35306633 172.048333536 415.735363157 174.405617124 418.447597446 c 1
 176.611205215 431.625599908 178.805754224 444.744087188 180.339946278 458.370783196 c 0
 181.611904371 469.668316788 182.850462806 480.804796564 186.192902264 491.537724628 c 1
 196.153745256 569.232299963 l 1
 202.141395365 675.014118555 l 1
 199.368467057 736.018541332 l 1
 185.182600157 732.399087986 168.617076381 730.741012253 152.085503216 730.741012253 c 0
 108.200791916 730.741012253 64.2659201279 740.76533532 21.8577691485 743.14864721 c 0
 20.7136710869 743.212944813 19.4688291161 743.235646522 18.1302035568 743.235646522 c 0
 15.4693488927 743.235646522 12.7074657067 743.144660941 10 743.144660941 c 0
 9.31010625 743.144660941 8.68510625001 743.424714066 8.23257968751 743.877240628 c 2
 -27.1227593718 779.232579687 l 2
 -27.5752859343 779.68510625 -27.8553390593 780.31010625 -27.8553390593 781 c 0
 -27.8553390593 781.68989375 -27.5752859343 782.31489375 -27.1227593718 782.767420313 c 2
 8.23257968751 818.122759372 l 2
 9.71704188758 819.607221572 15.1568854322 818.946324641 18.1302035568 818.946324641 c 0
 19.5256525119 818.946324641 20.8611533351 818.923348556 22.1422308529 818.85135279 c 0
 64.4996612976 816.470891364 108.585334776 806.451690372 152.085503216 806.451690372 c 0
 163.325503409 806.451690372 174.504576592 807.139513962 185.622379861 808.82695198 c 0
 203.344749658 811.516817941 227.223333687 822.855339059 246 822.855339059 c 0
 248.294626724 822.855339059 248.560734044 823.132359317 250.370275434 823.132359317 c 0
 250.519780926 823.132359317 251.483135796 823.132359317 252.240209456 822.375285703 c 2
 287.609488909 786.981426923 l 2
 288.061652132 786.528949475 288.341450089 785.904204715 288.341450089 785.214625332 c 0
 288.341450089 783.849050364 287.855339059 783.880896313 287.855339059 783 c 0
11.0308188169 748.148682749 m 1
 13.3779704629 748.166101454 15.7789998063 748.235646522 18.1302035568 748.235646522 c 0
 19.5256525119 748.235646522 20.8611533351 748.212670437 22.1422308515 748.140674672 c 0
 64.4903145175 745.760738529 108.597131045 735.741012253 152.085503216 735.741012253 c 0
 169.444424824 735.741012253 186.826012658 737.632005281 201.044894675 741.64633392 c 0
 201.261060279 741.707362612 201.489076646 741.740018803 201.724660086 741.740018803 c 0
 203.065832791 741.740018803 204.161756147 740.681629566 204.222046836 739.355234411 c 2
 207.148727777 675.000037033 l 1
 201.140617431 568.856754253 l 2
 201.137240224 568.797090275 201.131766757 568.737983062 201.124269592 568.679505174 c 2
 191.124269592 490.679505174 l 2
 191.105386868 490.532219924 191.073666631 490.388926863 191.030268238 490.250785345 c 0
 187.829649417 480.062888866 186.589525281 469.185494141 185.308363252 457.806211176 c 0
 183.71667843 443.668864322 181.434101789 430.148777565 179.174924054 416.649667636 c 0
 179.087271424 416.125851574 178.836498663 415.656997097 178.476685045 415.297183479 c 2
 172.179501566 409 l 1
 176.191812647 404.987688918 l 2
 176.644340331 404.535162204 176.924394243 403.910161417 176.924394243 403.220266697 c 0
 176.924394243 403.08392998 176.913457156 402.950127599 176.892413258 402.819689829 c 0
 173.12401395 379.461774335 169.923389168 355.8360715 169.923389168 332.663493641 c 0
 169.923389168 310.47530346 172.851587111 288.707811849 180.974358603 267.908097062 c 0
 188.311810523 249.119324366 189.61545759 223.579546439 191.022637612 197.495016251 c 0
 193.115866158 158.693382911 195.558003821 119.23576719 215.567643413 99.2261275984 c 2
 250.922982472 63.8707885391 l 2
 258.425923512 56.3678474989 268.425183585 51.4240254689 282.235060396 50.1337335149 c 0
 288.645187206 49.5348190452 294.961903166 49.236608668 301.154618195 49.236608668 c 0
 339.368445712 49.236608668 372.798790048 60.597789822 394.761307302 82.5603070775 c 2
 430.116646363 117.915646137 l 2
 447.440817589 135.239817363 457.822944614 159.268767737 457.822944614 190.120102552 c 0
 457.822944614 195.447889928 457.512049785 200.981539768 456.870895295 206.719811682 c 0
 450.493727659 263.794857636 435.788702814 329.319845922 395.551200149 371.270071434 c 0
 383.661710674 383.665641031 371.189657531 395.656340551 359.01839785 407.827600232 c 0
 336.244874513 430.601123569 298.659867517 440.966598859 262.547929007 440.966598859 c 0
 258.902962595 440.966598859 255.278046021 440.658594837 251.682762515 440.658594837 c 0
 250.302975015 440.658594837 249.182762515 441.778807337 249.182762515 443.158594837 c 0
 249.182762515 443.282638267 249.191816161 443.40458379 249.209298131 443.523806085 c 0
 251.658987464 460.23002375 252.117360752 476.168575324 256.903580248 491.537723578 c 1
 266.864423374 569.232299963 l 1
 272.852073483 675.014118555 l 1
 268.852720646 762.999880981 l 2
 268.852720646 763.553908686 269.035947884 764.066204835 269.341449769 764.480815628 c 0
 272.281982331 768.471548894 280.988913069 781.073605142 282.915208791 783.86502038 c 0
 282.945853586 784.089362855 282.986049801 784.299359413 283.03047927 784.49148051 c 2
 249.452286764 818.056010482 l 0
 248.748038903 817.974411843 247.677312747 817.855339059 246 817.855339059 c 0
 228.386158061 817.855339059 203.750061326 806.520480632 186.377620139 803.883726138 c 0
 174.96812101 802.152015104 163.533197281 801.451690372 152.085503216 801.451690372 c 0
 108.189088456 801.451690372 64.275148627 811.475494803 21.8577691471 813.859325328 c 0
 20.7136710869 813.923622932 19.4688291161 813.946324641 18.1302035568 813.946324641 c 0
 15.8332397983 813.946324641 13.3783291852 813.887911714 11.0432670017 813.863765436 c 1
 -21.8204984343 781 l 1
 11.0308188169 748.148682749 l 1
235.634067286 332.663493641 m 0
 235.634067286 345.744019474 236.63087429 358.896720395 238.160585396 372.008344807 c 0
 238.305520067 373.250624451 239.362729526 374.216047974 240.643646371 374.216047974 c 0
 241.077296592 374.216047974 241.501328018 374.174422381 241.929101617 374.151907981 c 0
 248.668516279 374.882123241 255.57705374 375.25592073 262.547928891 375.25592073 c 0
 291.328948478 375.25592073 321.201759995 368.912888331 344.454093335 354.745699484 c 0
 344.757473976 354.560855633 345.018478154 354.31322306 345.218996226 354.020911409 c 0
 374.192873398 311.783312608 385.66455632 256.187382746 391.129104705 207.280188317 c 0
 391.789857948 201.36650941 392.112266495 195.646219232 392.112266495 190.120102552 c 0
 392.112266495 168.603925663 387.216824669 150.061798709 378.425358658 134.648766401 c 0
 378.209082259 134.269594699 377.896435652 133.952375485 377.520870424 133.730560343 c 0
 356.329510745 121.214586868 329.938976235 114.947286786 301.154618199 114.947286786 c 0
 290.653859022 114.947286786 278.595588624 115.537406209 269.681425066 118.086386377 c 0
 268.920452174 118.30398445 268.307397767 118.87349244 268.029905269 119.607266923 c 0
 259.67543348 141.699028872 258.210983578 169.966958579 256.74066534 197.221865479 c 0
 255.332839723 223.318362917 253.900949608 248.486526498 247.025641397 266.091902939 c 0
 238.620392228 287.614949057 235.634067286 310.032163402 235.634067286 332.663493641 c 0
240.634067286 332.663493641 m 0
 240.59024063 310.476645514 243.56226523 288.707811849 251.685036721 267.908097061 c 0
 259.022488642 249.119324366 260.326135709 223.579546439 261.73331573 197.495016251 c 0
 263.176410675 170.744740448 264.708664996 143.421656644 272.266237241 122.56810179 c 1
 280.228156288 120.539828813 291.373164661 119.947286847 301.154618199 119.947286786 c 0
 328.947563228 119.947286786 354.247695778 125.961902443 374.407161787 137.70092062 c 1
 382.529892045 152.187063684 387.112266288 169.648754644 387.112266495 190.120102552 c 0
 387.112266495 195.447889928 386.801371666 200.981539768 386.160217177 206.719811683 c 0
 380.750464633 255.136588484 369.352110077 309.72609631 341.398078597 350.75116659 c 1
 319.252131261 364.088013527 290.416806915 370.255920604 262.547928891 370.25592073 c 0
 255.89817956 370.25592073 249.305088594 369.906381887 242.875292402 369.224337165 c 1
 241.505190839 356.982110741 240.635529299 333.403624464 240.634067286 332.663493641 c 0
EndSplineSet
EndChar
StartChar: uni099D
Encoding: 2461 2461 122
Width: 727
Flags: HW
HStem: 335.645 148.892<4 100.923> 745.645 70.7107<4 51.5352 323.067 378.079 631.578 727> 764.645 70.7107<79.824 337.344>
VStem: 330.39 70.7107<383.114 565.135> 340.645 90.5514<105.078 138.144 138.682 273.062> 417.828 107.528<96.9366 249.994>
LayerCount: 2
Fore
SplineSet
528.966601653 167.594906754 m 0
 528.966601653 156.686825416 527.088376969 145.422213315 527.088376969 134.605468597 c 0
 527.088376969 125.458489485 527.855339059 116.171952207 527.855339059 107 c 0
 527.855339059 100.688869594 525.262125312 93.7546609035 521.571467808 90.0640033999 c 2
 486.216128749 54.7086643408 l 2
 484.880533638 53.3730692297 483.175966834 52.2388775278 481.066166614 52.2388775278 c 0
 479.50615584 52.2388775278 478.038190552 52.9404813863 476.906119253 54.0725526844 c 2
 441.550780194 89.427891744 l 2
 441.210869799 89.7678021398 440.898143204 90.1434083124 440.607318295 90.5515503321 c 0
 415.357836216 125.986529433 419.157473391 173.71614655 416.149202101 223.848218964 c 0
 415.594496016 233.092258878 415.32782968 242.297362795 415.32782968 251.466121193 c 0
 415.32782968 258.0802975 415.466598596 264.67522883 415.736074443 271.251954613 c 0
 414.274409491 273.167984258 412.779175617 275.063008141 411.252076793 276.936549477 c 0
 396.102779858 289.455925038 379.655125398 300.372327891 362.8170395 309.442104361 c 0
 362.60126347 309.558331361 362.40447795 309.705342366 362.232579687 309.877240628 c 2
 326.877240628 345.232579687 l 2
 326.424714066 345.68510625 326.144660941 346.31010625 326.144660941 347 c 0
 326.144660941 347.68989375 326.424714066 348.31489375 326.877240628 348.767420313 c 2
 362.232579687 384.122759372 l 2
 362.68510625 384.575285934 363.31010625 384.855339059 364 384.855339059 c 0
 364.427828389 384.855339059 364.830700625 384.747639184 365.1829605 384.557895639 c 0
 385.780554721 373.463073883 405.801322957 359.654610572 423.680006012 343.51945727 c 1
 434.389514124 404.934228211 454.223860634 465.061910987 476.298484605 524.864707734 c 0
 509.474798023 614.743309063 545.214982789 696.776414099 583.361469537 782.019161298 c 0
 583.487008131 782.29969184 583.662750386 782.55293007 583.877240628 782.767420313 c 2
 619.232579687 818.122759372 l 2
 619.68510625 818.575285934 620.31010625 818.855339059 621 818.855339059 c 2
 727 818.855339059 l 2
 727.68989375 818.855339059 728.31489375 818.575285934 728.767420313 818.122759372 c 2
 764.122759372 782.767420313 l 2
 764.575285934 782.31489375 764.855339059 781.68989375 764.855339059 781 c 0
 764.855339059 780.31010625 764.575285934 779.68510625 764.122759372 779.232579687 c 2
 728.767420313 743.877240628 l 2
 728.31489375 743.424714066 727.68989375 743.144660941 727 743.144660941 c 2
 642.230646343 743.144660941 l 1
 610.224699719 670.882746385 580.022147009 599.85927079 551.701515395 523.135292266 c 0
 521.309807155 440.800519434 495.328491667 358.187280264 491.519090633 272.833420133 c 1
 514.290743002 242.478328524 528.966600586 206.83561613 528.966601653 167.594906754 c 0
522.855339059 107 m 0
 522.855339059 116.10779613 522.088376969 125.397642624 522.088376969 134.605468597 c 0
 522.088376969 145.552344571 523.966601653 156.817600867 523.966601653 167.594906754 c 0
 523.966601653 205.844607601 509.559520225 240.701450871 486.987313579 270.54037504 c 0
 486.670351225 270.959377745 486.482264165 271.481175642 486.482264165 272.046556966 c 0
 486.482264165 272.082919957 486.483042193 272.119102663 486.484582496 272.155089332 c 0
 490.189267788 358.709029371 516.460535691 442.104823125 547.009162723 524.864707734 c 0
 575.577330802 602.259292151 606.047049689 673.837297113 638.316633195 746.65557227 c 0
 638.705188655 747.532371265 639.583403885 748.144660941 640.603498529 748.144660941 c 2
 725.965159375 748.144660941 l 1
 758.820498434 781 l 1
 725.965159375 813.855339059 l 1
 622.034840625 813.855339059 l 1
 587.739558779 779.560057213 l 1
 549.675949247 694.495347773 514.050843489 612.698803463 480.990837277 523.135292266 c 0
 458.413484476 461.97054301 438.262947535 400.644622268 427.838401571 338.159436722 c 0
 427.641006772 336.976243643 426.611403791 336.073172569 425.372541697 336.073172569 c 0
 424.713700112 336.073172569 424.114042002 336.328582635 423.667264575 336.745705556 c 0
 405.756791618 353.467384767 385.429809637 367.799823497 364.447560421 379.268058855 c 1
 332.179501566 347 l 1
 365.507166356 313.67233521 l 1
 382.580221248 304.449659798 399.250125116 293.362814932 414.626638787 280.633018785 c 0
 414.752333676 280.528959415 414.867692822 280.4128452 414.970937127 280.286455238 c 0
 416.779821341 278.072049242 418.545933132 275.827260185 420.266537384 273.552737265 c 0
 420.583499552 273.133734629 420.771586491 272.611936885 420.771586491 272.046555744 c 0
 420.771586491 265.203961239 420.32782968 258.344995252 420.32782968 251.466121193 c 0
 420.32782968 233.434430074 421.672672472 215.264149758 422.307567296 197.622007385 c 0
 423.726754493 158.186337649 425.221297648 120.75949336 444.682003587 93.4484496679 c 0
 444.829783224 93.2410565684 444.966742295 93.0816108928 445.08562082 92.9627323684 c 2
 480.440959879 57.6073933094 l 2
 480.776898833 57.2714543551 480.918229307 57.2364520221 481.066166614 57.2388775278 c 0
 481.220667122 57.2388775278 481.833327744 57.3955445861 482.681288123 58.2435049654 c 2
 518.036627184 93.5988440249 l 2
 520.413292462 95.9755093035 522.855339059 102.001010766 522.855339059 107 c 0
4 333.144660941 m 0
 0.756481130911 333.144660941 0.289018144851 332.430118522 -2.18663575145 332.430118522 c 0
 -3.13765536183 332.430118522 -3.77758324826 332.661839463 -4.3025733877 333.187435236 c 2
 -39.6772432711 368.602913658 l 2
 -40.1291668737 369.055358604 -40.408796574 369.679934982 -40.408796574 370.369306994 c 0
 -40.408796574 372.141808959 -39.8553390593 372.116599573 -39.8553390593 374 c 0
 -39.8553390593 389.872543995 -32.0392831178 404.005636141 -20.4193521204 415.625567139 c 2
 14.935986939 450.980906198 l 2
 37.2776039481 473.322523206 74.0444295421 487.037060489 100.92342621 487.037060489 c 0
 105.670289183 487.037060489 109.832979816 486.606647281 113.97064999 485.979533044 c 0
 206.401251901 561.276070699 333.160707294 674.333149967 408.757418356 745.152587558 c 1
 375.731776375 750.156472707 l 1
 279.898533546 756.146686737 l 1
 130.129181663 762.137460813 l 1
 4.3560818069 744.169875119 l 2
 4.23976589181 744.15325856 4.12087906354 744.144660941 4 744.144660941 c 0
 3.31010625 744.144660941 2.68510625001 744.424714066 2.23257968751 744.877240628 c 2
 -33.1227593718 780.232579687 l 2
 -33.5752859343 780.68510625 -33.8553390593 781.31010625 -33.8553390593 782 c 0
 -33.8553390593 782.68989375 -33.5752859343 783.31489375 -33.1227593718 783.767420313 c 2
 2.23257968751 819.122759372 l 2
 2.60581724775 819.495996932 3.09638364066 819.751905659 3.6439181931 819.830124881 c 2
 129.643918193 837.830124881 l 2
 129.760234108 837.84674144 129.879298755 837.862200912 130.00008121 837.857369102 c 2
 280.158027688 831.850415271 l 1
 376.158027688 825.850415271 l 2
 376.231926282 825.845796609 376.304958872 825.837961346 376.37698694 825.827048003 c 2
 475.37698694 810.827048003 l 2
 475.916100665 810.745364105 476.398939217 810.491240467 476.767420313 810.122759372 c 2
 493.304852106 793.585327578 l 1
 558.25900963 813.743514396 l 2
 558.493186261 813.816189902 558.74205732 813.855339059 559 813.855339059 c 0
 559.68989375 813.855339059 560.31489375 813.575285934 560.767420313 813.122759372 c 2
 596.122759372 777.767420313 l 2
 596.575285934 777.31489375 596.855339059 776.68989375 596.855339059 776 c 0
 596.855339059 775.31010625 596.575285934 774.68510625 596.122759372 774.232579687 c 2
 560.767420313 738.877240628 l 2
 560.484087795 738.593908111 560.133142791 738.37818808 559.74099037 738.256485604 c 2
 477.879433333 712.851174799 l 1
 467.027000718 692.199654043 461.497430913 668.441680989 452.682073489 646.08435152 c 0
 421.934753275 568.103625925 403.600960913 485.556549671 403.600960913 402.462106753 c 0
 403.600960913 374.966133269 406.008947957 348.373127201 408.038714155 322.349014309 c 0
 410.601309167 289.493377263 413.133510721 257.048932513 413.725919937 225.454263721 c 1
 418.849115543 210.304225115 421.654054167 195.194249706 425.589259194 179.486080252 c 0
 427.623963182 171.364146368 429.62713458 163.458553991 429.62713458 154.818203048 c 0
 429.62713458 149.126051016 428.275454373 143.995712001 428.275454373 138.410907932 c 0
 428.275454373 132.990249534 428.997342022 126.843394447 429.916362461 121.37817602 c 0
 432.692817627 110.920819879 433.696077661 106.792865998 433.696077894 105.152934969 c 0
 433.696077894 105.139117125 433.764721211 105.015232607 433.764721211 104.793550198 c 0
 433.764721211 104.477001627 433.624757157 103.961042683 432.945109272 103.281394798 c 2
 397.558741593 67.9337261632 l 2
 397.106292477 67.4817718523 396.481694518 67.2021205904 395.792295928 67.2021205904 c 0
 395.102402178 67.2021205904 394.477402178 67.4821737154 394.024875615 67.9347002779 c 2
 358.669534383 103.290041511 l 2
 356.847190504 105.112389837 355.097154931 117.377217666 353.17758429 124.584926728 c 0
 345.619672486 152.963852564 338.144660941 180.947138274 338.144660941 212 c 0
 338.144660941 216.174827719 338.105048001 220.368240705 338.030363018 224.579106557 c 0
 325.682846114 260.654101496 305.625949034 294.342614897 280.517620966 323.551898137 c 1
 257.065615213 343.716432955 231.076908025 360.349693758 203.98880293 372.357922255 c 0
 176.298737039 384.633001947 146.781968058 404.618769215 115.388471044 409.976885892 c 1
 60.06436649 364.973047401 17.6266008241 333.144661038 4 333.144660941 c 0
423.275454373 138.410907932 m 0
 423.275454373 144.195748277 424.62713458 149.319594413 424.62713458 154.818203048 c 0
 424.62713458 167.16125484 420.039735038 180.902956779 417.406035808 192.272003761 c 0
 414.884689607 203.156049707 412.41802873 213.786582285 408.866426486 224.21191839 c 0
 408.785034647 224.450835144 408.738825359 224.705970173 408.733986718 224.97113538 c 0
 408.107175155 259.321404875 405.139646221 295.791899413 402.320795524 331.233877547 c 0
 400.488745355 354.268613695 398.600960913 377.973744508 398.600960913 402.462106753 c 0
 398.600960913 486.305906241 417.091102605 569.452587661 448.028604629 647.91564848 c 0
 457.08047495 670.872817127 462.462122487 694.65967258 473.948625819 716.111386866 c 0
 474.256026227 716.68547504 474.781043608 717.125881305 475.413113107 717.322040805 c 2
 557.670780998 742.850282564 l 1
 590.820498434 776 l 1
 558.300411052 808.520087382 l 1
 493.346253528 788.361900564 l 2
 493.112076897 788.289225058 492.863205838 788.250075901 492.605263158 788.250075901 c 0
 491.915369408 788.250075901 491.290369408 788.530129026 490.837842846 788.982655588 c 2
 473.814342472 806.006155962 l 1
 375.731784595 820.86714958 l 1
 279.841972312 826.860262847 l 1
 130.129187009 832.848139694 l 1
 5.17738363557 814.99788207 l 1
 -27.8204984343 782 l 1
 4.88303772667 749.296463839 l 1
 129.643918193 767.119446763 l 2
 129.760234108 767.136063322 129.879298708 767.151521855 130.000081185 767.146690556 c 2
 280.101466454 761.142635145 l 1
 376.158027688 755.139737153 l 2
 376.231926282 755.135118491 376.304958872 755.127283228 376.37698694 755.116369885 c 2
 414.600641172 749.324907122 l 2
 415.801833045 749.142908353 416.723654232 748.104855205 416.723654232 746.853198178 c 0
 416.723654232 746.135029883 416.420175362 745.487183539 415.934573923 745.031015446 c 0
 340.508761161 674.176923159 210.469332336 558.079888659 116.261710116 481.39812955 c 0
 115.831458688 481.047919709 115.282659356 480.837876395 114.685188906 480.837876395 c 0
 114.550281886 480.837876395 114.417856328 480.848585301 114.288716659 480.869198684 c 0
 109.921007018 481.566376202 105.759222678 482.037060489 100.92342621 482.037060489 c 0
 75.5404452967 482.037060489 39.6817474373 468.656985446 18.470827564 447.446065572 c 2
 -16.8845114954 412.090726513 l 2
 -27.8916187842 401.083619225 -34.8553390593 388.147417151 -34.8553390593 374 c 0
 -34.8553390593 372.786280465 -35.0289524306 371.83119625 -35.1855920664 371.179841102 c 2
 -1.57183924498 337.527311152 l 1
 -0.273993701164 337.773029314 1.2274781915 338.144660941 4 338.144660941 c 0
 13.6646191373 338.144660941 57.2300748724 369.083695537 113.108667695 414.566945121 c 0
 113.538919123 414.917154962 114.087718455 415.127198276 114.685188905 415.127198276 c 0
 114.820095925 415.127198276 114.952521483 415.11648937 115.081661152 415.095875987 c 0
 148.223422782 409.805759882 177.6072668 389.522937293 206.01119707 376.931399627 c 0
 233.632529537 364.686789644 260.074420167 347.745897532 283.919826572 327.219496791 c 0
 284.014924926 327.137635031 284.103803991 327.048744986 284.1856541 326.953636322 c 0
 309.82012618 297.166743951 330.306397421 262.761035432 342.890022411 225.823190447 c 0
 342.971414235 225.584273714 343.017623515 225.32913871 343.022462155 225.06397353 c 0
 343.102228363 220.692658697 343.144660935 216.337620483 343.144660941 212 c 0
 343.144660941 180.297131541 351.373137946 150.872187066 359.17616528 121.489347058 c 0
 359.1956334 121.416038506 359.211850715 121.341411674 359.224653227 121.265630565 c 0
 360.423469584 114.169551483 362.013259411 108.059238263 362.540190492 106.489066652 c 2
 395.793262628 73.235994515 l 1
 428.535802371 105.942726541 l 1
 428.173942925 107.67267616 427.156322699 112.287158541 425.053791875 120.204365089 c 0
 423.611598687 125.635030471 423.275454373 132.647445 423.275454373 138.410907932 c 0
332.890282995 402.462103907 m 0
 332.890282995 383.823690265 334.114370993 364.712689162 335.443009145 346.8829848 c 0
 335.447635747 346.820897961 335.449990521 346.758182529 335.449990521 346.694921451 c 0
 335.449990521 345.315133951 334.329778021 344.194921451 332.949990521 344.194921451 c 0
 332.260096771 344.194921451 331.635096771 344.474974576 331.182570209 344.927501139 c 2
 298.867826438 377.24224491 l 2
 270.969336167 405.14073518 238.365501846 427.829318517 203.98880293 443.068600373 c 0
 192.986667709 447.945876114 182.410113201 453.546885669 171.87465296 458.962443703 c 0
 171.067655849 459.377265608 170.515070776 460.218305246 170.515070776 461.187389582 c 0
 170.515070776 461.951489316 170.858609817 462.635984379 171.399526129 463.094713003 c 0
 240.328000786 521.550085187 317.216279638 590.000550659 376.132341464 644.179254899 c 0
 376.577613773 644.588723488 377.171661054 644.838864054 377.823670763 644.838864054 c 0
 379.203458263 644.838864054 380.323670763 643.718651554 380.323670763 642.338864054 c 0
 380.323670763 642.021230959 380.26430617 641.717353794 380.156076297 641.437731871 c 0
 350.503656369 564.827952621 332.890282995 483.907947757 332.890282995 402.462103907 c 0
327.890282995 402.462103907 m 0
 327.890282995 481.142052599 344.173120785 559.208087754 371.744724326 633.365756649 c 1
 314.723350333 581.114618317 242.738588626 517.12519992 177.480734399 461.698968253 c 1
 186.887757025 456.843958577 196.362595351 451.919328492 206.01119707 447.642077745 c 0
 240.992363558 432.134833811 274.084053897 409.0956987 302.402667063 380.777085535 c 2
 329.968400202 353.211352395 l 1
 328.83819938 369.136632039 327.890282995 385.94065703 327.890282995 402.462103907 c 0
EndSplineSet
EndChar
StartChar: uni099E
Encoding: 2462 2462 123
Width: 456
Flags: HW
HStem: 54.6447 70.7107<43.6862 109.254> 316.336 70.7107<290.359 403.205> 456.629 103.217<345.647 410.568> 635.889 70.7107<357.805 415.256> 742.645 70.7107<0 119.274 414 462>
VStem: 114.238 97.1178<691.522 734.247> 215.498 72.9064<193.384 344.398 426.475 503.881> 410.774 70.7107<389.355 456.208> 424.645 70.7107<545.98 632.136>
LayerCount: 2
Fore
SplineSet
215.193215143 439.521188995 m 0
 215.193215143 505.96005581 239.979821534 573.02193766 259.018916432 632.090903884 c 1
 254.877240629 636.232579687 l 2
 254.424714066 636.68510625 254.144660941 637.31010625 254.144660941 638 c 0
 254.144660941 638.68989375 254.424714066 639.31489375 254.877240628 639.767420312 c 2
 264.486145268 649.376324953 l 1
 266.476667797 655.817077822 268.404449105 662.252842109 270.240238148 668.686432433 c 0
 273.51865273 680.175757101 294.653622743 732.098615791 312.712490147 750.157483194 c 2
 348.067829206 785.512822254 l 2
 351.66972929 789.114722338 355.418924177 791.751400855 359.474055115 791.857746621 c 1
 412.986635031 815.641115472 l 2
 413.266034992 815.765293233 413.572357458 815.839726096 413.894329985 815.853141618 c 2
 461.894329985 817.853141618 l 2
 461.929372782 817.854601734 461.964600965 817.855339059 462 817.855339059 c 0
 462.68989375 817.855339059 463.31489375 817.575285934 463.767420313 817.122759372 c 2
 499.122759372 781.767420313 l 2
 499.575285934 781.31489375 499.855339059 780.68989375 499.855339059 780 c 0
 499.855339059 779.31010625 499.575285934 778.68510625 499.122759372 778.232579687 c 2
 463.767420313 742.877240628 l 2
 463.338113273 742.447933589 462.753578225 742.173854558 462.105670015 742.146858382 c 2
 414.580854707 740.166657745 l 1
 368.856388417 719.844672727 l 1
 366.470617894 715.43069452 364.149449273 710.848216868 361.953963502 706.299359472 c 1
 369.202958506 708.041345629 376.487354477 709.099229597 383.614474271 709.099229597 c 0
 387.909319178 709.099229597 392.143128885 708.713557668 396.265050312 707.854837072 c 0
 413.695103809 707.788721345 427.471789065 701.20108369 437.742411617 690.930460704 c 2
 473.097750675 655.575121646 l 2
 490.480725763 638.192146559 497.855339059 610.613693396 497.855339059 586 c 0
 497.855339059 567.546604657 483.477857733 521.497104317 462.733295745 500.332184873 c 1
 476.326976056 483.464872332 483.939681368 460.725589106 483.939681368 438.05983219 c 0
 483.939681368 436.709962612 483.912579248 435.360359121 483.857986545 434.012239132 c 0
 483.942873129 432.320253422 483.985091247 430.638872846 483.985091247 428.968761096 c 0
 483.985091247 403.716858517 474.305398184 381.174822969 456.886685946 363.756110731 c 2
 421.531346887 328.400771672 l 2
 417.279685761 324.149110547 412.570383962 320.204020324 407.43434699 316.59734232 c 0
 407.114481695 316.372723391 406.739685671 316.221126735 406.334262912 316.166856348 c 0
 395.483590146 314.714372 382.691244079 313.835985723 369.182893537 313.835985723 c 0
 331.302029807 313.835985723 287.355371141 320.54980628 265.692664003 342.212513419 c 2
 230.337324943 377.567852479 l 2
 224.460740596 383.444436825 219.47917411 391.086043045 218.173499381 399.619418036 c 0
 216.116873994 413.060710308 215.193215143 426.35622797 215.193215143 439.521188995 c 0
360 786.855339059 m 0
 359.908816104 786.855339059 359.820195736 786.861084391 359.728462297 786.861084391 c 0
 357.876037663 786.861084391 354.9851727 785.360484498 351.602669832 781.977981629 c 2
 316.247330773 746.62264257 l 2
 299.692246211 730.067558009 278.084540668 677.951438207 275.049083734 667.313567567 c 0
 273.145069541 660.640879693 271.144987168 653.973681721 269.081281383 647.308526227 c 0
 268.959666824 646.915747395 268.743751445 646.56424988 268.460044998 646.280543433 c 2
 260.179501566 638 l 1
 263.6342771 634.545224467 l 2
 264.086803662 634.092697904 264.366856787 633.467697904 264.366856787 632.777804154 c 0
 264.366856787 632.511080442 264.324996784 632.254056506 264.247493601 632.01294917 c 0
 245.219088935 572.81682568 220.193215143 505.224762415 220.193215143 439.521188995 c 0
 220.193215143 426.615987057 221.096792928 413.599712767 223.105826819 400.445971828 c 0
 224.6763773 392.929769841 228.410339807 386.564518237 233.872165567 381.102693104 c 2
 269.227504628 345.747354044 l 2
 289.025416799 325.949441872 331.650021475 318.835985723 369.182893537 318.835985723 c 0
 382.217692745 318.835985723 394.585945402 319.67062917 405.061845982 321.042508553 c 0
 409.776568733 324.393122404 414.094781185 328.033886438 417.996506263 331.935612298 c 2
 453.351845321 367.290951356 l 2
 469.873870458 383.812976493 478.985091247 405.036508559 478.985091247 428.968761096 c 0
 478.985091247 430.631998023 478.855339059 432.311672454 478.855339059 434 c 0
 478.855339059 435.351978546 478.939681368 436.705470456 478.939681368 438.05983219 c 0
 478.939681368 460.388987638 471.09791939 482.863336453 457.455010798 498.867196994 c 0
 457.082884046 499.303721551 456.85815465 499.869652316 456.85815465 500.487657249 c 0
 456.85815465 501.889111837 458.029958068 502.694301293 458.781042266 503.445385491 c 0
 478.271600401 522.935943625 492.855339059 569.098336099 492.855339059 586 c 0
 492.855339059 609.722808588 485.579111203 636.024079869 469.562910051 652.04028102 c 2
 434.207570992 687.395620079 l 2
 424.744015284 696.859175788 412.24227899 702.855339059 396 702.855339059 c 0
 395.820496965 702.855339059 395.645387141 702.874298241 395.476565483 702.910321649 c 0
 391.656971519 703.725352106 387.687761501 704.099229597 383.614474271 704.099229597 c 0
 375.392122605 704.099229597 366.729067888 702.569323433 358.075903247 700.111756602 c 0
 357.85863447 700.05005056 357.629353716 700.017018622 357.392418821 700.017018622 c 0
 356.012631321 700.017018622 354.892418821 701.137231122 354.892418821 702.517018622 c 0
 354.892418821 702.893677646 354.975896959 703.250993164 355.125345549 703.571457488 c 0
 358.124802669 710.003227768 361.424662748 716.6554073 364.867229201 722.977344996 c 0
 365.129812735 723.459554058 365.54652201 723.845942678 366.051002323 724.07015615 c 2
 412.986635031 744.930437354 l 2
 413.266034992 745.054615115 413.572357458 745.129047978 413.894329985 745.1424635 c 2
 460.922467671 747.101969237 l 1
 493.820498434 780 l 1
 461.008670257 812.811828177 l 1
 414.580854707 810.877335863 l 1
 361.013364969 787.069562646 l 2
 360.703555718 786.931869645 360.360644671 786.855339059 360 786.855339059 c 0
406 459.144660941 m 2
 406.982745222 459.144660941 407.96255891 459.378684667 408.946230482 459.378684667 c 0
 410.165948311 459.378684667 411.182824462 458.503308444 411.402345377 457.347069555 c 0
 412.605957463 451.007522823 413.22900325 444.533965638 413.22900325 438.05983219 c 0
 413.22900325 436.70996261 413.201901129 435.360359118 413.147308427 434.01223913 c 0
 413.23219501 432.320253421 413.274413128 430.638872846 413.274413128 428.968761096 c 0
 413.274413128 414.101287144 409.92472175 400.164211302 403.600436915 387.658798869 c 0
 403.228785367 386.923908519 402.504864485 386.396924381 401.651306571 386.300478756 c 0
 391.876896315 385.196043905 380.794094977 384.546663842 369.182893521 384.546663842 c 0
 342.576278843 384.546663842 313.193727388 387.921510531 290.494977916 397.265671683 c 0
 289.52903322 397.663312219 289.056834651 398.490998993 288.884177499 399.619418036 c 0
 286.827552113 413.060710308 285.903893261 426.356227969 285.903893261 439.521188995 c 0
 285.903893261 502.313079759 307.765571838 564.774619389 326.349766612 621.680116226 c 0
 326.567148281 622.345746996 327.056560746 622.888857851 327.686403912 623.177848695 c 0
 345.050836064 631.145168445 364.912661682 638.388551479 383.614474271 638.388551479 c 0
 387.909314388 638.388551479 392.14311944 638.002880411 396.265036525 637.144161859 c 0
 403.598388395 637.116505841 410.295779833 635.940979764 416.359782076 633.810122654 c 0
 417.012251023 633.580848684 417.541258305 633.088377677 417.819132514 632.460381037 c 0
 424.231367212 617.968709264 427.144660941 601.444021706 427.144660941 586 c 0
 427.144660941 576.566820613 423.437302772 560.51438957 417.213011872 544.012538235 c 0
 416.856362347 543.066988367 415.94267598 542.393701801 414.872976035 542.393701801 c 0
 414.265912979 542.393701801 413.709096451 542.610543904 413.275823258 542.970931302 c 0
 402.520403346 551.917060127 389.316753779 557.346049398 374.136348033 557.346049398 c 0
 371.490087701 557.346049398 368.761702226 556.855339059 366 556.855339059 c 0
 363.533341028 556.855339059 361.000786322 557.35430945 358.531812774 557.35430945 c 0
 352.356692639 557.35430945 346.966059474 556.041498514 344.168446958 553.243885998 c 2
 308.813107898 517.888546938 l 2
 308.124916254 517.200355294 307.570740524 516.423606893 307.150757712 515.505686038 c 0
 307.260766552 511.079047228 308.855371164 507.780627029 311.550152505 505.085844373 c 2
 346.905491563 469.730505314 l 2
 356.412039278 460.2239576 380.60340391 459.129422057 398.577430456 459.129422057 c 2
 406 459.144660941 l 2
408.144660941 434 m 0
 408.144660941 435.351978548 408.22900325 436.705470458 408.22900325 438.05983219 c 0
 408.22900325 443.446338755 407.774154371 448.846351685 406.890119528 454.163540639 c 0
 406.594185501 454.150996699 406.297459507 454.144660941 406 454.144660941 c 2
 398.587899276 454.129432807 l 2
 380.875641182 454.129432807 355.153484188 454.41283144 343.370650939 466.195664688 c 2
 308.015311879 501.551003749 l 2
 304.35647602 505.209839607 302.144660941 510.049057786 302.144660941 516 c 0
 302.144660941 518.135008703 304.096030389 520.241150679 305.278267274 521.423387564 c 2
 340.633606332 556.778726623 l 2
 345.027442626 561.172562916 351.878445051 562.35430945 358.531812774 562.35430945 c 0
 361.042540594 562.35430945 363.568839663 562.173420341 366.009640692 561.873804195 c 0
 368.695420834 562.183061876 374.005491102 562.346052382 374.136348033 562.346049398 c 0
 389.278916324 562.345704081 402.664188884 557.314123282 413.715912281 548.996705818 c 1
 419.057676115 563.94797337 422.14466094 578.290189446 422.144660941 586 c 0
 422.144660941 600.452881667 419.453060224 615.94470409 413.680355046 629.438838116 c 1
 408.357690487 631.183749031 402.481470585 632.144660941 396 632.144660941 c 0
 395.820496965 632.144660941 395.645387141 632.163620123 395.476565483 632.199643531 c 0
 391.656971519 633.014673988 387.687761501 633.388551479 383.614474271 633.388551479 c 0
 366.532853736 633.388551479 347.625634473 626.746704893 330.763154798 619.085457924 c 1
 312.27704688 562.529479819 290.903893261 500.758131932 290.903893261 439.521188995 c 0
 290.903893261 426.919403883 291.765482122 414.21170791 293.676630441 401.373524935 c 1
 315.248360272 392.816121303 343.50939426 389.546663866 369.182893521 389.546663842 c 0
 380.070230511 389.546663842 390.491998288 390.128590538 399.735297181 391.120076923 c 1
 405.317204664 402.610601082 408.274413102 415.346733168 408.274413128 428.968761096 c 0
 408.274413128 430.631998023 408.144660941 432.311672453 408.144660941 434 c 0
111.737506478 703.525940694 m 0
 111.737506478 705.877760125 112.144660941 707.704079075 112.144660941 710 c 0
 112.144660941 719.402590636 113.824246279 728.856706905 117.164930733 737.544194181 c 1
 104.76473329 739.511769306 92.2838911036 740.142125718 82.0617728838 740.144653303 c 2
 0.000147013545937 736.141647163 l 2
 -0.689746736449 736.141647163 -1.31489374999 736.424714066 -1.76742031249 736.877240628 c 2
 -37.1227593718 772.232579687 l 2
 -37.5752859343 772.68510625 -37.8553390593 773.31010625 -37.8553390593 774 c 0
 -37.8553390593 774.68989375 -37.5752859343 775.31489375 -37.1227593718 775.767420313 c 2
 -1.76742031249 811.122759372 l 2
 -1.34207433972 811.548105344 -0.764351613433 811.821074564 -0.123587829413 811.852331333 c 2
 81.9998529865 815.858352837 l 1
 107.159033429 815.858352837 145.417948707 812.303830659 165.732878755 794.028791578 c 1
 175.215632935 803.511545758 187.770480435 809.855339059 204 809.855339059 c 0
 221.015595572 809.855339059 250.111244952 773.876995006 265.57604363 761.295474541 c 0
 265.64277243 761.241186749 265.706651497 761.183528187 265.767420313 761.122759372 c 2
 301.122759372 725.767420313 l 2
 301.430889766 725.459289918 301.65905457 725.071193934 301.773291127 724.637095018 c 2
 321.773291127 648.637095018 l 2
 321.809625909 648.499022847 321.834435017 648.35629674 321.846625618 648.21000953 c 2
 327.846625618 576.21000953 l 2
 327.852395946 576.140765596 327.855339059 576.070723786 327.855339059 576 c 0
 327.855339059 575.905812333 327.850119136 575.812834224 327.839953048 575.721339429 c 2
 321.839953048 521.721339429 l 2
 321.824398015 521.581344129 321.797263135 521.444821531 321.759529067 521.312752291 c 2
 309.766503289 479.337652957 l 2
 294.704149751 424.45885412 288.708208908 366.853906636 288.708208908 309.16222476 c 0
 288.708208908 276.730538339 290.602597383 244.270292724 293.842544083 212.254251573 c 0
 295.644369319 194.449233077 304.871710582 157.013754109 312.902327397 131.587781661 c 1
 320.202687398 124.167133641 325.855338107 116.572305089 325.855339059 110 c 0
 325.855339059 109.61867457 325.857047793 109.248305262 325.857047793 108.888747343 c 0
 325.857047793 106.252339213 325.765180248 104.197189293 324.234233315 102.66624236 c 2
 288.878894256 67.3109033012 l 2
 288.363427128 66.7954361733 287.541154217 66.3725253354 286.652871053 66.3725253354 c 0
 285.281474174 66.3725253354 284.476912746 67.1127044092 283.967395689 67.6222214671 c 2
 248.612056552 102.977560603 l 2
 246.427010001 105.162607341 244.488043762 109.788599596 242.073599757 116.357887584 c 0
 237.132456453 118.803724852 231.016830536 119.908163754 230.269431619 120.148150003 c 0
 205.666278268 120.148150003 184.154412217 111.715570379 160.935747242 102.325952713 c 0
 145.058832702 95.9053356193 132.273951876 80.8809474876 114.638742727 76.2271430858 c 0
 106.575381798 74.0992803387 98.5997059613 69.5749671206 90.5161646933 64.9516803574 c 0
 79.593735134 58.7047246818 68.3658813693 52.1446609407 56 52.1446609407 c 0
 44.2551122318 52.1446609407 35.9929742171 56.0365701141 30.0575207581 61.9720235731 c 2
 -5.2978183012 97.3273626324 l 2
 -12.4758854578 104.505429789 -16.1627055101 114.304232877 -19.6081470007 123.259319199 c 0
 -22.522087439 130.832975067 -25.2845955717 137.813599441 -29.241609538 142.359951076 c 0
 -29.6238057322 142.799069641 -29.8553390593 143.372709435 -29.8553390593 144 c 0
 -29.8553390593 144.68989375 -29.5752859343 145.31489375 -29.1227593718 145.767420313 c 2
 12.2325796875 187.122759372 l 2
 12.68510625 187.575285934 13.31010625 187.855339059 14 187.855339059 c 0
 14.68989375 187.855339059 15.31489375 187.575285934 15.7674203125 187.122759372 c 2
 51.1227593718 151.767420313 l 2
 51.5752859343 151.31489375 51.8553390593 150.68989375 51.8553390593 150 c 0
 51.8553390593 149.31010625 51.5752859343 148.68510625 51.1227593718 148.232579687 c 2
 46.707060069 143.816880385 l 1
 50.1008007774 139.255565636 52.4387042521 133.642348089 54.6816109503 127.873396533 c 0
 55.1143999558 127.86141152 55.5538194648 127.855339059 56 127.855339059 c 0
 66.5527759004 127.855339059 77.0235992569 133.705579588 88.0391498932 140.005794774 c 0
 96.1130309727 144.623556505 104.424584794 149.414533553 113.361257273 151.772856914 c 0
 129.980322672 156.158508315 143.263357142 171.284172212 159.064252758 177.674047287 c 0
 179.680842171 186.011386767 198.887176818 193.210070571 220.722140987 195.294201933 c 1
 219.513180464 201.588536245 218.61700026 207.204688969 218.157455917 211.745748427 c 0
 214.903050538 243.90466528 212.997530789 276.532092911 212.997530789 309.16222476 c 0
 212.997530789 367.2051965 219.032524849 425.277990998 234.240470933 480.687247709 c 2
 246.183156626 522.486647632 l 1
 252.13296405 576.034914455 l 1
 246.171473702 647.572798631 l 1
 227.102679784 720.034215519 l 1
 222.433555603 724.103468676 217.87626183 727.687899992 213.854813271 730.216983781 c 1
 213.854813271 730.144745851 213.855339059 730.072417932 213.855339059 730 c 0
 213.855339059 721.168308412 211.156586642 709.839120097 204.330448511 703.012981965 c 2
 168.975109452 667.657642907 l 2
 165.662561155 664.345094609 161.289363514 662.144660941 156 662.144660941 c 0
 152.769511044 662.144660941 150.313363974 662.308889647 148.554997562 664.067256059 c 2
 113.199658504 699.422595118 l 2
 111.93771887 700.68453475 111.737506478 702.293314968 111.737506478 703.525940694 c 0
208.855339059 730 m 0
 208.855339059 731.609392599 208.589240939 733.12909541 208.589240939 734.637137603 c 0
 208.589240939 736.016925103 209.709453439 737.137137603 211.089240939 737.137137603 c 0
 211.479944463 737.137137603 211.849835063 737.047318098 212.17937269 736.887219135 c 0
 217.931031962 734.092895795 224.381092037 729.079696234 230.974752768 723.288847944 c 0
 231.343132755 722.965320133 231.615720233 722.535287567 231.744199645 722.047065801 c 2
 251.062613009 648.637095018 l 2
 251.098947791 648.499022847 251.123756899 648.35629674 251.1359475 648.21000953 c 2
 257.1359475 576.21000953 l 2
 257.141717828 576.140765596 257.144660941 576.070723786 257.144660941 576 c 0
 257.144660941 575.905812333 257.139441018 575.812834224 257.12927493 575.721339429 c 2
 251.12927493 521.721339429 l 2
 251.113719897 521.581344129 251.086585017 521.444821531 251.048850949 521.312752291 c 2
 239.048850949 479.312752291 l 2
 223.986497411 424.433953454 217.997530789 366.853906636 217.997530789 309.16222476 c 0
 217.997530789 276.730538339 219.891919264 244.270292724 223.131865965 212.254251573 c 0
 223.63032303 207.328669946 224.70191042 200.841333344 226.163860526 193.531369349 c 0
 226.195690613 193.372214266 226.212388804 193.207623593 226.212388804 193.039163624 c 0
 226.212388804 191.722531858 225.192378263 190.642256352 223.900141981 190.546121905 c 0
 201.777704117 188.900348337 182.376776933 181.707373589 160.935747242 173.036630831 c 0
 145.065973939 166.618901651 132.265169316 151.589307952 114.638742727 146.937821204 c 0
 106.575381798 144.809958457 98.5997059613 140.285645239 90.5161646932 135.662358476 c 0
 79.5937351339 129.4154028 68.3658813694 122.855339059 56 122.855339059 c 0
 53.5302683878 122.855339059 51.3260694156 122.68230952 50.6048690614 124.551608968 c 0
 47.8746805273 131.628061289 45.1976797572 138.076019389 41.4690685807 142.359951076 c 0
 41.0868723864 142.799069641 40.8553390593 143.372709435 40.8553390593 144 c 0
 40.8553390593 144.68989375 41.1353921843 145.31489375 41.5879187468 145.767420313 c 2
 45.8204984343 150 l 1
 14 181.820498434 l 1
 -24.003483133 143.817015301 l 1
 -14.7239542086 131.349064674 -12.5968400754 111.696065657 -1.7629776762 100.862203257 c 2
 33.5923613831 65.5068641981 l 2
 38.6063761917 60.4928493895 45.3991665832 57.1446609407 56 57.1446609407 c 0
 66.5527759005 57.1446609407 77.0235992568 62.9949014692 88.0391498931 69.2951166544 c 0
 96.1130309727 73.912878386 104.424584794 78.7038554339 113.361257273 81.0621787956 c 0
 129.989352435 85.4502130857 143.255842842 100.570455313 159.064252758 106.963369169 c 0
 182.265978025 116.346136423 204.481094652 125.148150003 230.269431619 125.148150003 c 0
 234.502577781 125.148150003 239.603254666 123.254756629 245.221404647 120.37067135 c 0
 245.778859927 120.08450089 246.215062028 119.595006935 246.431818541 119.000381895 c 0
 248.937496132 112.126592424 251.352161776 107.307136697 252.14689733 106.512401075 c 2
 286.578804055 72.0804943506 l 1
 320.528437851 106.030128146 l 2
 320.5968065 106.302489784 320.855339059 107.497835115 320.855339059 110 c 0
 320.855339059 113.879004831 316.293186185 121.081971546 308.926253135 128.499197979 c 0
 308.6495454 128.777794773 308.437947689 129.121140111 308.316308942 129.504385055 c 0
 300.141608385 155.260262507 290.763013407 193.021200911 288.868134035 211.745748427 c 0
 285.613728657 243.90466528 283.708208908 276.532092911 283.708208908 309.16222476 c 0
 283.708208908 367.2051965 289.736228745 425.253090332 304.944174829 480.662347043 c 2
 316.893834318 522.486643798 l 1
 322.843642168 576.034914455 l 1
 316.88215182 647.572798631 l 1
 297.108741826 722.711756608 l 1
 262.323036242 757.497462192 l 1
 247.991444163 769.200714771 216.441456042 804.855339059 204 804.855339059 c 0
 189.608216346 804.855339059 178.287009363 799.513240935 169.90361707 791.129848643 c 0
 168.911832405 790.138063978 167.603006553 788.041094544 165.780022346 788.041094544 c 0
 165.090128596 788.041094544 164.465128596 788.321147669 164.012602034 788.773674231 c 0
 146.216968593 806.569307672 107.776031252 810.848493116 82.0617611022 810.855330847 c 1
 1.08473350544 806.905231939 l 1
 -31.8204984343 774 l 1
 0.983828063076 741.195673503 l 1
 81.9998529865 745.147674719 l 2
 93.2998564559 745.147674719 107.29335159 744.40147059 121.105630755 741.953139725 c 0
 122.276602851 741.745576072 123.16706072 740.721732389 123.16706072 739.491552319 c 0
 123.16706072 739.135967593 123.092662559 738.797622365 122.958596584 738.491246983 c 0
 119.110732501 729.697883687 117.144660941 719.804229049 117.144660941 710 c 0
 117.144660941 707.561643893 116.737506478 705.714754335 116.737506478 703.525940694 c 0
 116.737506478 703.185587956 116.772414442 702.979470619 116.790801233 702.901133639 c 2
 152.089838188 667.602096683 l 1
 152.089838188 667.602096683 152.753384077 667.144660941 156 667.144660941 c 0
 159.849854758 667.144660941 162.897648085 668.649862789 165.440268826 671.192483531 c 2
 200.795607887 706.547822591 l 2
 206.149900928 711.902115633 208.855339059 722.055665552 208.855339059 730 c 0
EndSplineSet
EndChar
StartChar: uni09A1
Encoding: 2465 2465 126
Width: 490
Flags: HW
HStem: 44.6447 70.7107<186.736 286.807> 552.645 70.7107<241.85 349.488> 748.645 70.7107<-1 225.272 271.793 313 341 491>
VStem: -16.3553 70.7107<396.904 458.786 462.145 474> 375.645 70.7107<297.408 529.05>
LayerCount: 2
Fore
SplineSet
303.144660941 784 m 0
 303.144660941 784.68989375 303.424714066 785.31489375 303.877240628 785.767420313 c 2
 339.232579687 821.122759372 l 2
 339.677674271 821.567853955 340.289623646 821.846093746 340.966061991 821.855112924 c 2
 340.966061991 821.855112924 490.966061991 823.855112924 491 823.855339059 c 0
 491.68989375 823.855339059 492.31489375 823.575285934 492.767420313 823.122759372 c 2
 528.122759372 787.767420313 l 2
 528.575285934 787.31489375 528.855339059 786.68989375 528.855339059 786 c 0
 528.855339059 785.31010625 528.575285934 784.68510625 528.122759372 784.232579687 c 2
 492.767420313 748.877240628 l 2
 492.322325729 748.432146045 491.710376354 748.153906254 491.033938009 748.144887076 c 2
 491.033938009 748.144887076 341.033938009 746.144887076 341 746.144660941 c 0
 340.31010625 746.144660941 339.68510625 746.424714066 339.232579687 746.877240628 c 2
 303.877240628 782.232579687 l 2
 303.424714066 782.68510625 303.144660941 783.31010625 303.144660941 784 c 0
309.179501566 784 m 1
 342.021000908 751.158500658 l 1
 489.951404473 753.130906039 l 1
 522.820498434 786 l 1
 489.978999092 818.841499342 l 1
 342.048595527 816.869093961 l 1
 309.179501566 784 l 1
219.158620809 750.303817255 m 1
 165.821361647 748.559316498 110.934234632 746.144660941 57 746.144660941 c 2
 -1 746.144660941 l 2
 -1.68989375 746.144660941 -2.31489374999 746.424714066 -2.76742031249 746.877240628 c 2
 -38.1227593718 782.232579687 l 2
 -38.5752859343 782.68510625 -38.8553390593 783.31010625 -38.8553390593 784 c 0
 -38.8553390593 784.68989375 -38.5752859343 785.31489375 -38.1227593718 785.767420313 c 2
 -2.76742031249 821.122759372 l 2
 -2.31489374999 821.575285934 -1.68989375 821.855339059 -1 821.855339059 c 2
 57 821.855339059 l 2
 141.88313637 821.855339059 228.103729998 827.855339059 313 827.855339059 c 0
 313.68989375 827.855339059 314.31489375 827.575285934 314.767420313 827.122759372 c 2
 350.122759372 791.767420313 l 2
 350.575285934 791.31489375 350.855339059 790.68989375 350.855339059 790 c 0
 350.855339059 789.31010625 350.575285934 788.68510625 350.122759372 788.232579687 c 2
 314.767420313 752.877240628 l 2
 313.74120065 751.851020966 312.18090919 751.467299771 310.126105075 750.58608665 c 0
 303.768060201 747.859407001 291.865094215 742.735278704 281.151653502 733.548274136 c 0
 229.749307292 676.287849923 167.269143263 584.792476571 141.216437393 515.187819861 c 1
 186.127497262 550.596284561 239.486246975 625.855339059 303 625.855339059 c 0
 329.459912683 625.855339059 350.935383888 614.964828687 367.552993607 598.347218968 c 2
 402.908332666 562.991879909 l 2
 434.500224692 531.399987882 448.855339059 479.275912053 448.855339059 440 c 0
 448.855339059 370.571720974 410.486918828 176.290372936 338.71472449 104.518178598 c 2
 303.359385431 69.1628395382 l 2
 286.592457249 52.3959113569 267.760565021 42.1446609407 247 42.1446609407 c 0
 213.574279544 42.1446609407 188.343653879 56.5742482344 167.620830437 77.2970716751 c 2
 132.265491379 112.652410734 l 2
 95.4191527217 149.498749389 71.8632311194 208.246589196 35.8772406282 244.232579688 c 0
 35.5758347843 244.533985531 35.3509423231 244.911904758 35.2343505018 245.33455011 c 2
 -12.7656494982 419.33455011 l 2
 -12.8002084313 419.459826243 -12.8252522174 419.589031952 -12.8399530482 419.721339429 c 2
 -18.8399530482 473.721339429 l 2
 -18.8501191365 473.812834224 -18.8553390593 473.905812333 -18.8553390593 474 c 0
 -18.8553390593 474.68989375 -18.5752859343 475.31489375 -18.1227593718 475.767420313 c 2
 17.2325796875 511.122759372 l 2
 17.68510625 511.575285934 18.31010625 511.855339059 19 511.855339059 c 0
 19.68989375 511.855339059 20.31489375 511.575285934 20.7674203125 511.122759372 c 2
 54.6585754999 477.231604184 l 1
 67.2332439066 554.39893273 155.47539923 683.99297962 219.158620809 750.303817255 c 1
311.96545672 822.855041714 m 1
 227.470474199 822.806540786 141.605676206 816.855339059 57 816.855339059 c 2
 0.0348406249938 816.855339059 l 1
 -32.8204984343 784 l 1
 0.0348406249938 751.144660941 l 1
 57 751.144660941 l 2
 112.868585746 751.144660941 169.899597364 753.746687731 225.191787812 755.500914501 c 0
 226.652144066 755.502190873 227.772356566 754.381978373 227.772356566 753.002190873 c 0
 227.772356566 752.318382532 227.497222232 751.698328162 227.051711474 751.246785674 c 0
 159.336970482 682.61526071 60.0461195847 534.97270977 58.1717271412 462.079601424 c 0
 58.1370223012 460.72996748 57.0305038442 459.64495315 55.6725664871 459.64495315 c 0
 54.386966654 459.64495315 53.3267129307 460.617448687 53.1879524982 461.866292579 c 2
 51.9671708285 472.853327606 l 1
 19 505.820498434 l 1
 -13.7378363497 473.082662085 l 1
 -7.89257417737 420.475302534 l 1
 39.8807852626 247.296874564 l 1
 75.7774721018 211.117934079 99.3697250065 152.617858355 135.800332003 116.18725136 c 2
 171.155671063 80.8319123001 l 2
 191.256960387 60.7306229756 215.139985112 47.1446609407 247 47.1446609407 c 0
 266.014583153 47.1446609407 283.631285819 56.5044211763 299.824544805 72.6976801632 c 2
 335.179883864 108.053019222 l 2
 405.00727136 177.880406718 443.855339059 371.575025674 443.855339059 440 c 0
 443.855339059 478.226566623 429.608391134 529.22214019 399.37349204 559.457039285 c 2
 364.018152982 594.812378343 l 2
 348.165690038 610.664841287 328.007310727 620.855339059 303 620.855339059 c 0
 239.918599812 620.855339059 184.433415971 539.518474295 137.494380135 506.141779657 c 0
 137.085987421 505.851385987 136.586763524 505.680564848 136.04795705 505.680564848 c 0
 134.66816955 505.680564848 133.54795705 506.800777348 133.54795705 508.180564848 c 0
 133.54795705 508.463579725 133.595086735 508.735673739 133.681919138 508.989419923 c 0
 158.187968 580.602275996 223.760160685 677.131876218 277.539812929 737.008238584 c 0
 277.611656177 737.088226314 277.6885781 737.163561986 277.770068993 737.233735893 c 0
 291.157813675 748.762267705 302.473844549 752.123749855 311.495057433 756.674558999 c 1
 344.820498434 790 l 1
 311.96545672 822.855041714 l 1
95.3871630968 424.967239544 m 0
 96.5813538198 424.967239544 97.7371786031 425.144660941 99 425.144660941 c 0
 123.259651363 425.144660941 150.46990585 451.110027541 180.687220619 480.55783369 c 0
 216.655283673 515.609940619 256.821924251 555.144660941 303 555.144660941 c 0
 320.085800139 555.144660941 335.122200974 550.607538507 348.098251959 542.895422412 c 0
 348.431010927 542.697652243 348.714063262 542.424860169 348.924017861 542.100437292 c 0
 368.867729893 511.28331556 378.144660941 471.560971292 378.144660941 440 c 0
 378.144660941 376.387726939 345.931147209 208.551984629 285.650914757 125.442619403 c 0
 285.468493208 125.191111761 285.240388176 124.974851244 284.978825288 124.806063479 c 0
 273.164701695 117.182353827 260.471066975 112.855339221 247 112.855339059 c 0
 222.741910868 112.855339059 202.751471716 120.4548596 185.704796479 132.578074287 c 0
 185.503233351 132.721421481 185.323800163 132.893897482 185.17265937 133.089339833 c 0
 159.323325846 166.515487932 137.264282352 213.595689185 108.539243505 242.320728032 c 0
 107.692158203 243.167813334 106.280840343 244.117232617 105.929991248 245.389060585 c 2
 57.9450286204 419.33455011 l 2
 57.9100096825 419.46149376 57.8847608847 419.592472294 57.8701435333 419.726624405 c 2
 53.6440218307 458.512252208 l 2
 53.6342382653 458.602041797 53.6292173567 458.693253079 53.6292173567 458.785627803 c 0
 53.6292173567 460.165415303 54.7494298567 461.285627803 56.1292173567 461.285627803 c 0
 56.8191111067 461.285627803 57.4441111067 461.005574678 57.8966376692 460.553048116 c 2
 57.8966376692 460.553048116 93.2519767286 425.197709056 93.2059849687 425.244541198 c 1
 93.4083007432 425.145673209 94.3287888934 424.967239544 95.3871630968 424.967239544 c 0
99 420.144660941 m 0
 97.8517110497 420.144660941 96.694712183 419.967239544 95.3871630968 419.967239544 c 0
 93.785513971 419.967239544 91.4127649908 419.967239544 89.7171361034 421.662868432 c 2
 59.3840050142 451.995999521 l 1
 62.8188121505 420.472735275 l 1
 110.575724394 247.353928393 l 1
 140.406304312 217.523348475 162.410101905 170.807093198 188.901420212 136.440326687 c 1
 205.164740389 124.951325744 223.975412135 117.855340187 247 117.855339059 c 0
 259.21891687 117.855339059 270.826440403 121.709867324 281.878280546 128.757168424 c 1
 340.838646517 210.4304357 373.144660138 377.600397647 373.144660941 440 c 0
 373.144660941 470.461244049 364.104952288 509.16461161 345.043266115 538.892346539 c 1
 332.908037819 545.992799811 318.954922365 550.144660941 303 550.144660941 c 0
 259.656263731 550.144660941 220.389164693 512.268486753 184.175830359 476.977354578 c 0
 154.289446612 447.852052023 126.424406009 420.144660941 99 420.144660941 c 0
EndSplineSet
EndChar
StartChar: uni09A4
Encoding: 2468 2468 129
Width: 612
Flags: HW
HStem: 64.417 70.7107<182.111 417.125> 650.645 70.7107<318.228 402.722> 742.645 70.7107<-1 147.619 444.326 613> 751.193 70.7107<278.48 610.342>
VStem: 41.6447 70.7107<309.2 542.856> 193.645 124.711<577.469 641.595> 483.645 70.7107<215.873 448.848>
LayerCount: 2
Fore
SplineSet
101 740.144660941 m 2
 -1 740.144660941 l 2
 -1.68989375 740.144660941 -2.31489374999 740.424714066 -2.76742031249 740.877240628 c 2
 -38.1227593718 776.232579687 l 2
 -38.5752859343 776.68510625 -38.8553390593 777.31010625 -38.8553390593 778 c 0
 -38.8553390593 778.68989375 -38.5752859343 779.31489375 -38.1227593718 779.767420313 c 2
 -2.76742031249 815.122759372 l 2
 -2.31489374999 815.575285934 -1.68989375 815.855339059 -1 815.855339059 c 2
 101 815.855339059 l 2
 142.441227176 815.855339059 179.533702444 810.078989611 209.49478362 796.422803582 c 1
 219.35248395 801.223579446 229.866719062 803.855338101 241 803.855339059 c 2
 250.563983632 803.855339059 l 1
 299.025886583 821.183014919 351.698573024 822.751864169 402.928940193 823.854346501 c 0
 415.833495513 824.215265463 428.737457033 824.403378235 441.635833418 824.403378235 c 0
 499.149247049 824.403378235 556.548965159 820.66339225 613.386558415 811.825578752 c 0
 613.921815104 811.742350407 614.401121251 811.489058433 614.767420313 811.122759372 c 2
 650.122759372 775.767420313 l 2
 650.575285934 775.31489375 650.855339059 774.68989375 650.855339059 774 c 0
 650.855339059 773.31010625 650.575285934 772.68510625 650.122759372 772.232579687 c 2
 614.767420313 736.877240628 l 2
 614.31489375 736.424714066 613.68989375 736.144660941 613 736.144660941 c 0
 612.868542934 736.144660941 612.739442036 736.154829136 612.613441585 736.174421248 c 0
 556.068444735 744.966738229 498.928419645 748.692700117 441.635833418 748.692700117 c 0
 428.787029405 748.692700117 415.914080568 748.504904133 403.054721394 748.145249233 c 0
 362.158403277 747.265156611 320.680387852 746.054165346 281.455380815 736.949700515 c 1
 288.155497556 730.102082627 294.508680168 722.992294109 299.904719453 714.519918879 c 1
 312.392569258 720.000600012 337.814492796 723.923710631 339.184266341 723.915238171 c 0
 382.245928043 723.857904484 403.510768933 703.642138541 425.506333188 682.717527443 c 0
 437.040427019 671.745022943 448.833236297 660.544738823 464.26024699 651.514478091 c 0
 464.445874526 651.405820291 464.616268636 651.273911048 464.767420313 651.122759372 c 2
 500.122759372 615.767420313 l 2
 500.335271818 615.554907866 500.509747567 615.304358721 500.635044925 615.026914571 c 2
 528.635044925 553.026914571 l 2
 528.686860369 552.912180374 528.730265562 552.792846725 528.764472547 552.669701579 c 2
 548.764472547 480.669701579 l 2
 548.799096833 480.545054149 548.824297118 480.41650166 548.839256254 480.284861263 c 2
 558.839256254 392.284861263 l 2
 558.849880544 392.191367512 558.855339059 392.096316178 558.854933743 391.954572195 c 2
 556.854933743 279.954572195 l 2
 556.850853829 279.726097024 556.816059917 279.50506125 556.754509331 279.2954222 c 0
 547.482853612 247.716500716 542.292231679 218.450790685 520.247986771 194.365719047 c 0
 504.533437261 175.091840815 490.432919147 153.463738283 472.926576279 135.957395413 c 2
 437.57123722 100.602056355 l 2
 426.022792433 89.0536115683 413.099923305 79.4309802607 397.797814988 74.2748740588 c 0
 374.541861716 66.4385921324 342.380506747 61.9169888331 307.475564928 61.9169888331 c 0
 240.974347377 61.9169888331 164.205900533 78.2927791142 121.36441186 121.134267787 c 2
 86.0090728013 156.489606846 l 2
 65.7474430899 176.751236558 53.174851349 202.985096252 53.1447152389 235.881437268 c 1
 39.1555654315 385.765185205 l 2
 39.1483499859 385.84249355 39.1446609407 385.920819363 39.1446609407 386 c 0
 39.1446609407 444.416251349 68.7422830105 657.22180751 143.767898024 737.7821939 c 1
 130.205294423 739.386168162 115.903425253 740.144660941 101 740.144660941 c 2
441.635833418 819.403378235 m 0
 428.787029405 819.403378235 415.930418981 819.215986517 403.071059807 818.856331617 c 0
 351.707307263 817.750978819 299.43267462 816.112668207 251.845029564 799.001993272 c 0
 251.581034236 798.907070772 251.296510739 798.855339059 251 798.855339059 c 2
 241 798.855339059 l 2
 230.294573505 798.855339059 220.210610445 796.247730351 210.660752734 791.419206204 c 0
 210.322384449 791.248123086 209.939948921 791.151717436 209.535174331 791.151717436 c 0
 209.159552543 791.151717436 208.803167873 791.234736447 208.483383769 791.383411019 c 0
 179.275253323 804.962905001 142.482348609 810.855339059 101 810.855339059 c 2
 0.0348406249938 810.855339059 l 1
 -32.8204984343 778 l 1
 0.0348406249938 745.144660941 l 1
 101 745.144660941 l 2
 117.912418781 745.144660941 134.095826662 744.179987507 149.365945777 742.112996818 c 0
 150.586164527 741.947825822 151.528036558 740.900879465 151.528036558 739.63568306 c 0
 151.528036558 738.94578931 151.247983433 738.32078931 150.79545687 737.868262747 c 0
 75.376824681 662.449630558 38.6847929151 444.616566954 44.1447026349 386.117534242 c 2
 58.1337564499 236.234814795 l 2
 58.1409718955 236.15750645 58.1446609407 236.079180637 58.1446609407 236 c 0
 58.1446609407 204.393695562 70.085747105 179.482613793 89.5439134263 160.024447472 c 2
 124.899252486 124.669108411 l 2
 166.146233719 83.422127179 241.617337499 66.9169888331 307.475564928 66.9169888331 c 0
 341.937760147 66.9169888331 373.683244108 71.4265081862 396.202185012 79.0144478226 c 0
 410.519568497 83.8387470791 422.815372135 92.9158725195 434.036396594 104.136896979 c 2
 469.391735655 139.492236039 l 2
 486.506528508 156.607028893 500.836563382 178.477343845 516.417239746 197.578543149 c 0
 516.447850108 197.616070058 516.479527794 197.652692721 516.51222632 197.688364651 c 0
 537.324752928 220.393456064 542.750597973 249.274768666 551.861766268 280.382653812 c 1
 553.852776363 391.879219138 l 1
 543.89365628 479.519475868 l 1
 523.997170809 551.146823564 l 1
 496.26357923 612.556919204 l 1
 461.460221747 647.360276687 l 1
 445.569467196 656.713396346 433.5205948 668.193741308 422.061449074 679.094946889 c 0
 400.006162394 700.076372557 380.34377641 718.855339059 339 718.855339059 c 0
 327.290242872 718.855339059 313.574915019 715.293491457 299.971848465 709.070231922 c 0
 299.655636366 708.925568221 299.304113975 708.844924574 298.933904885 708.844924574 c 0
 298.026727737 708.844924574 297.231758288 709.329164066 296.793598507 710.053041079 c 0
 290.684380202 720.145986375 283.062203965 728.304253128 274.788870265 736.577586828 c 0
 274.336343702 737.030113391 274.056290577 737.655113391 274.056290577 738.345007141 c 0
 274.056290577 739.516827017 274.864265204 740.501423475 275.953025593 740.771607651 c 0
 317.136012603 750.991479272 360.532590232 752.231347596 402.945278606 753.144072649 c 0
 415.849833926 753.504991611 428.737457033 753.692700117 441.635833418 753.692700117 c 0
 498.725427296 753.692700117 555.702995137 750.007631395 612.129948243 741.309449809 c 1
 644.820498434 774 l 1
 611.810966448 807.009531986 l 1
 555.527855095 815.712583286 498.657404862 819.403378235 441.635833418 819.403378235 c 0
315.855339059 632 m 0
 315.855339059 637.361882031 315.299561167 642.528425942 315.299561167 647.546928951 c 0
 315.299561167 648.699355824 316.081013974 649.670704899 317.142474043 649.959530631 c 0
 324.704393135 652.017146254 332.083696647 653.144660941 339 653.144660941 c 0
 388.482769309 653.144660941 409.714427177 626.226383696 435.156751864 602.945614486 c 0
 435.405975081 602.717565034 435.60890055 602.439732711 435.749713763 602.127932025 c 2
 457.924366807 553.026914571 l 2
 457.976182251 552.912180374 458.019587444 552.792846725 458.053794429 552.669701579 c 2
 478.053794429 480.669701579 l 2
 478.088418715 480.545054149 478.113619 480.41650166 478.128578136 480.284861263 c 2
 488.128578136 392.284861263 l 2
 488.139202426 392.191367512 488.144660941 392.096316178 488.144255625 391.954572195 c 2
 486.144255625 279.954572195 l 2
 486.140175711 279.726097024 486.105381799 279.50506125 486.043831213 279.2954222 c 0
 476.772175473 247.716500647 471.581553526 218.450790584 449.537308608 194.365718829 c 0
 439.804218887 182.427947471 430.391932867 169.152775295 420.710919789 157.002661725 c 0
 420.561072752 156.81459685 420.384695477 156.648588904 420.187474977 156.510324903 c 0
 413.289847011 151.674652931 405.871302548 147.705945892 397.797814988 144.985552177 c 0
 374.541861887 137.149270309 342.380507218 132.627667018 307.475565737 132.627667018 c 0
 250.46153012 132.627667018 186.042473443 144.680551021 141.778520386 175.015347352 c 0
 141.504089095 175.203419514 141.268995914 175.444786838 141.0882119 175.724478269 c 0
 130.073683433 192.765084691 126.005946802 212.839793216 123.86624355 235.765185205 c 2
 109.86624355 385.765185205 l 2
 109.859028104 385.84249355 109.855339059 385.920819363 109.855339059 386 c 0
 109.855339059 440.438076021 135.666306764 630.002473067 200.157617701 720.195209174 c 0
 200.34386955 720.455687115 200.578863147 720.678977242 200.849222812 720.851703874 c 0
 203.324709347 722.433235839 205.844730053 723.876724261 208.409596671 725.173550926 c 0
 208.747964773 725.34463381 209.130400037 725.441039318 209.535174331 725.441039318 c 0
 209.910796119 725.441039318 210.267180789 725.358020307 210.586964893 725.209345734 c 0
 216.83281011 722.305516689 222.763221911 719.053004436 228.349433617 715.431960064 c 0
 228.653246631 715.235025099 228.911701677 714.973952456 229.105559102 714.667981787 c 0
 237.154446923 701.964193986 243.052169103 687.208774572 246.519218521 670.250924502 c 0
 246.552419231 670.088534935 246.569855206 669.920433873 246.569855206 669.748292557 c 0
 246.569855206 669.058398807 246.289802081 668.433398807 245.837275519 667.980872245 c 2
 222.280843229 644.424439955 l 2
 206.629073118 628.772669844 196.144660941 610.210484437 196.144660941 592 c 0
 196.144660941 588.400362757 199.057799248 567.741133782 200.649979766 566.148953264 c 2
 235.645199785 531.153733245 l 1
 243.24188845 531.36735862 250.389764843 535.340684152 256.746803568 541.697722876 c 2
 292.102142627 577.053061937 l 2
 306.519260171 591.47017948 315.855339059 617.511064253 315.855339059 632 c 0
191.144660941 592 m 0
 191.144660941 612.143067567 202.557072378 631.770350354 218.746002603 647.95928058 c 2
 241.345958482 670.559236458 l 1
 238.000284359 686.224596026 232.519285473 699.808227111 225.172036682 711.531910667 c 0
 220.25864525 714.68714675 215.057679789 717.557497899 209.58620519 720.154651834 c 0
 207.684190888 719.155499807 205.803589933 718.067758856 203.944193419 716.894349494 c 0
 140.970963141 628.369505229 109.872561516 439.504883209 114.855380909 386.117532571 c 2
 128.844434568 236.234814795 l 2
 130.939922613 213.783157177 134.893659026 194.747651439 145.018907068 178.856644014 c 1
 187.97097504 149.624227923 251.2913959 137.627667018 307.475565737 137.627667018 c 0
 341.937760614 137.627667018 373.683244273 142.137186361 396.202185012 149.725125941 c 0
 403.648710826 152.234262404 410.541195068 155.888979375 417.025793429 160.400352211 c 0
 426.642376678 172.492118083 435.969740083 185.641643585 445.706561628 197.578543149 c 0
 445.73717199 197.616070058 445.768849676 197.652692721 445.801548202 197.688364651 c 0
 466.61407481 220.393456064 472.039919855 249.274768666 481.15108815 280.382653812 c 1
 483.142098245 391.879219138 l 1
 473.182978162 479.519475868 l 1
 453.286492691 551.146823564 l 1
 431.401626763 599.606169549 l 1
 406.302101172 622.64330772 386.173139874 648.144660941 339 648.144660941 c 0
 333.221128787 648.144660941 326.944414496 647.280864094 320.434901206 645.651189153 c 1
 320.714092938 641.225785426 320.855339059 636.676222052 320.855339059 632 c 0
 320.855339059 615.888611343 311.234932557 589.116170616 295.636983252 573.518221312 c 2
 260.281644194 538.162882252 l 2
 253.178776805 531.060014864 244.628468509 526.144660941 235 526.144660941 c 0
 233.834535826 526.144660941 232.985798442 526.743453338 232.4704782 527.25877358 c 2
 197.115139141 562.614112639 l 2
 192.554414858 567.174836924 191.144660941 587.994664163 191.144660941 592 c 0
EndSplineSet
EndChar
StartChar: uni09B2
Encoding: 2482 2482 141
Width: 630
Flags: HW
HStem: 365.268 70.7107<89.9097 234.875> 752.645 70.7107<-1 136.114 265.724 513.806> 760.566 70.7107<0.77911 434.274 438.2 515>
VStem: 9.44015 70.7107<202.81 352.293> 209.645 70.7107<174.018 277.472> 303.566 70.7896<172.605 277.005> 351.798 70.612<443.645 573.225> 485.645 70.7107<177.662 299.633>
LayerCount: 2
Fore
SplineSet
80.8553390593 296 m 0
 80.8553390593 283.399551218 85.4416561662 261.335785068 85.4416561662 248.519666164 c 0
 85.4416561662 245.848817325 85.2729962174 243.469801895 84.7882190677 241.422633825 c 0
 83.3227495896 235.233561784 82.6508263627 229.577400254 82.6508263627 224.383572944 c 0
 82.6508263627 216.800467449 84.0752778037 210.171854181 86.6079901283 204.218662061 c 0
 88.6659080719 202.943565635 90.7655167739 201.685757597 92.8959513705 200.43861557 c 1
 99.1698751189 244.356081807 l 2
 99.2480943407 244.903616359 99.5040030683 245.394182752 99.8772406285 245.767420313 c 2
 135.232579687 281.122759372 l 2
 135.68510625 281.575285934 136.31010625 281.855339059 137 281.855339059 c 0
 137.68989375 281.855339059 138.31489375 281.575285934 138.767420313 281.122759372 c 2
 174.122759371 245.767420313 l 2
 174.575285934 245.31489375 174.855339059 244.68989375 174.855339059 244 c 0
 174.855339059 243.879120936 174.84674144 243.760234108 174.830124881 243.643918193 c 2
 164.830124881 173.643918193 l 2
 164.775109351 173.258809484 164.632190477 172.901883035 164.422370687 172.594141273 c 0
 160.504358101 166.847609469 158.084432914 157.593398004 153.117287083 152.626252173 c 2
 117.761948512 117.270913601 l 2
 116.006431462 115.515396553 113.745594788 114.144660941 111 114.144660941 c 0
 110.557158311 114.144660941 110.141055025 114.260052223 109.78014321 114.462381716 c 0
 92.2631357242 124.282529214 73.4501726635 134.112191396 60.3217584308 147.240605628 c 2
 24.9664193714 182.595944687 l 2
 14.1466886628 193.415675396 6.94014824404 206.756370642 6.94014824404 224.383572944 c 0
 6.94014824404 230.017460382 7.66864144394 236.060272775 9.21179197179 242.577412796 c 0
 9.55358347528 244.020766002 9.7309780475 246.079694659 9.7309780475 248.519666164 c 0
 9.7309780475 261.110339031 5.18028339358 283.038807022 5.14487989661 295.842263102 c 0
 4.63458570285 299.989706912 4.38630415927 304.083551236 4.38630415927 308.111521091 c 0
 4.38630415927 334.349332374 14.9284948873 357.65745711 31.9355516441 374.664513868 c 2
 67.2908907033 410.019852926 l 2
 85.2771148562 428.00607708 110.469302155 438.940729998 138.074266868 438.940729998 c 0
 143.004821204 438.940729998 148.009226872 438.591824909 153.060270283 437.872661566 c 0
 157.278312789 438.271355185 165.662843732 438.479328339 165.838116815 438.479020521 c 0
 207.316699713 438.479020521 242.57451259 419.053811713 270.400622861 391.227701442 c 1
 302.136833466 422.963912048 l 2
 310.066616414 430.893694995 318.555858406 438.36077565 327.461817791 445.325675803 c 0
 333.211642455 449.822261353 340.957578276 454.564598645 349.338075628 458.551225354 c 1
 352.773721576 585.434914903 401.753684249 634.836035868 456.320642918 689.612927113 c 0
 487.187595432 720.598632423 519.803862177 753.350450246 547.456826679 803.20989454 c 0
 547.570653767 803.41512951 547.712521212 803.602700896 547.877240628 803.767420313 c 2
 583.232579687 839.122759372 l 2
 583.68510625 839.575285934 584.31010625 839.855339059 585 839.855339059 c 0
 585.416099 839.855339059 585.80859149 839.753463654 586.153874118 839.573316196 c 2
 632.153874118 815.573316196 l 2
 632.381071421 815.454778473 632.587828314 815.30235137 632.767420313 815.122759372 c 2
 668.122759372 779.767420313 l 2
 668.575285934 779.31489375 668.855339059 778.68989375 668.855339059 778 c 0
 668.855339059 777.31010625 668.575285934 776.68510625 668.122759372 776.232579687 c 2
 632.767420313 740.877240628 l 2
 632.31489375 740.424714066 631.68989375 740.144660941 631 740.144660941 c 0
 630.583901 740.144660941 630.19140851 740.246536346 629.846125882 740.426683804 c 2
 595.312344596 758.444308822 l 1
 574.271739945 729.944243205 551.890540658 707.484492486 530.572993768 686.084931725 c 0
 475.314836734 630.614182903 427.08244724 582.447175631 424.929862516 453.051459308 c 1
 430.277559163 449.229821138 435.445343905 444.771162366 440.427396384 439.789109546 c 2
 475.782735442 404.433770487 l 2
 526.352880951 353.863624978 558.855339059 248.794219114 558.855339059 202 c 0
 558.855339059 191.543772969 555.944851837 145.999493647 541.694225535 131.748867345 c 2
 506.338886475 96.393528285 l 2
 503.785976572 93.8406183815 500.637367043 92.1446609407 497 92.1446609407 c 0
 487.011636148 92.1446609407 477.793502018 97.2080666145 469.40990392 105.591664712 c 2
 434.05456486 140.947003772 l 2
 393.297547809 181.704020824 366.082766803 305.961019399 354.835646736 384.863694447 c 1
 342.57142785 379.487770624 333.34558643 373.125200278 324.530874871 365.844686131 c 0
 320.106968223 360.415685528 315.959719299 354.816217026 312.126449824 349.058135191 c 1
 338.570258317 319.464599775 356.912881255 281.457331732 364.800266692 244.523855072 c 0
 369.886008151 220.710024889 376.855339059 192.296414936 376.855339059 168 c 0
 376.855339059 160.970799358 372.019636866 126.625796493 363.136834936 117.742994561 c 2
 327.781494276 82.3876539015 l 2
 326.550653097 81.1568127228 324.954925016 80.1446609407 323 80.1446609407 c 0
 322.584806251 80.1446609407 322.193116409 80.2460935541 321.848380108 80.4255091469 c 0
 310.090617029 86.5447545751 299.611800027 94.4097454978 290.439466821 103.582078703 c 2
 255.084127762 138.937417762 l 2
 223.280230522 170.741315003 207.144633463 218.185664714 207.144633463 263.897983317 c 2
 207.144633463 264.000684328 l 2
 207.1446438 264.039192186 207.145554224 264.077497728 207.147290883 264.115582243 c 0
 208.463022688 292.969272704 217.740577183 319.911381748 232.39972846 344.180542485 c 1
 212.504674404 355.86856332 190.148664915 362.768342403 165.838116815 362.768342403 c 0
 161.620363038 362.768342403 157.33249661 362.144660941 153 362.144660941 c 0
 152.877120164 362.144660941 152.756299059 362.153545528 152.638144576 362.170706812 c 0
 147.721490291 362.884823586 142.857638368 363.230051879 138.074266868 363.230051879 c 0
 121.010314302 363.230051879 104.92440101 358.835425608 91.0768109046 351.081457722 c 1
 84.0812535869 338.408894912 80.0969823883 323.826053579 80.0969822779 308.111521091 c 0
 80.0969822779 304.147158663 80.8553390593 300.094210931 80.8553390593 296 c 0
10.1446609407 296 m 0
 10.1446609407 283.391543073 14.7309780475 261.343908208 14.7309780475 248.519666164 c 0
 14.7309780475 245.848817325 14.5623070591 243.469755274 14.0775299096 241.422587204 c 0
 12.6120604315 235.233515163 11.940148244 229.577400254 11.940148244 224.383572944 c 0
 11.940148244 208.226958102 18.3668012508 196.265244058 28.5012599964 186.130785313 c 2
 63.8565990558 150.775446254 l 2
 76.0107075514 138.621337758 94.3914810912 128.806662092 111.563698676 119.19449799 c 0
 112.388666048 119.341879291 113.249144543 119.827791217 114.22710691 120.805753249 c 2
 149.582446457 156.161092797 l 2
 153.386698501 159.965344841 156.566586278 169.682631403 159.95998415 174.912098199 c 1
 169.703536161 243.116962273 l 1
 137 275.820498434 l 1
 104.00211793 242.822616364 l 1
 97.3221769249 196.063029328 l 2
 97.149121922 194.851644308 96.1062995393 193.919111135 94.8473911028 193.919111135 c 0
 94.3957366835 193.919111135 93.9718954655 194.039140782 93.6060532312 194.249014295 c 0
 90.1095414747 196.254865817 86.6610255776 198.290070832 83.3043038287 200.385335613 c 0
 82.8815281478 200.649232075 82.5431383992 201.035914783 82.339207063 201.495311256 c 0
 79.3374030085 208.257480431 77.6508263627 215.832802146 77.6508263627 224.383572944 c 0
 77.6508263627 230.017460382 78.379308523 236.060226154 79.9224590509 242.577366175 c 0
 80.2642505544 244.020719381 80.4416561662 246.079694659 80.4416561662 248.519666164 c 0
 80.4416561662 261.102329247 75.8909803685 283.046716583 75.8555582829 295.842260831 c 0
 75.3452639004 299.989705418 75.0969822779 304.083550501 75.0969822779 308.111521091 c 0
 75.0969822779 324.955238007 79.4404247559 340.595732987 87.0544087558 354.135214646 c 0
 87.2773081947 354.531583074 87.605146767 354.86118215 88.0001420685 355.08622947 c 0
 102.727887828 363.47731591 119.874191229 368.230051879 138.074266868 368.230051879 c 0
 143.004821203 368.230051879 148.009226872 367.881146791 153.060270284 367.161983448 c 0
 157.278312789 367.560677066 165.662843465 367.768344448 165.838116815 367.768342403 c 0
 192.039375122 367.76803663 216.040153941 360.046091608 237.150202823 347.163506606 c 0
 237.869785562 346.724375184 238.35057213 345.931845775 238.35057213 345.027908778 c 0
 238.35057213 344.54492694 238.21331415 344.093750442 237.97571091 343.711292004 c 0
 222.937989211 319.505799069 213.465234736 292.66230261 212.144633279 263.896614661 c 0
 212.144633279 219.30549299 227.979911428 173.111315347 258.618968387 142.472258388 c 2
 293.974307447 107.116919327 l 2
 302.609980541 98.4812462338 312.418557193 91.0751442896 323.392188042 85.262557401 c 0
 323.601214269 85.3671928393 323.886337036 85.5621778973 324.246656852 85.9224977285 c 2
 359.601994311 121.277835187 l 2
 365.992989322 127.668830199 371.855339059 161.837367534 371.855339059 168 c 0
 371.855339059 191.342068416 364.949533265 219.8806097 359.910411426 243.476144928 c 0
 352.075417903 280.164291177 333.59903477 318.079669972 307.127023762 347.136731901 c 0
 306.722249013 347.581033806 306.475329611 348.17161579 306.475329611 348.819413797 c 0
 306.475329611 349.32216215 306.62405233 349.79044856 306.879864967 350.182640227 c 0
 311.150673921 356.730306125 315.812182763 363.072317874 320.811766178 369.194337775 c 0
 320.915029172 369.320783931 321.030416349 369.4369486 321.156146812 369.541050884 c 0
 330.96263128 377.660621966 341.521434775 384.863768343 355.912565748 390.750036662 c 0
 356.204129539 390.869292244 356.52316508 390.935038561 356.85743532 390.935038561 c 0
 358.119392482 390.935038561 359.164215722 389.997983248 359.333463103 388.782314561 c 0
 370.262957574 310.278032031 398.319803672 183.751446211 437.589405485 144.481844397 c 2
 472.944744545 109.126505338 l 2
 480.78116955 101.290080333 488.801096132 97.1446609407 497 97.1446609407 c 0
 499.015824843 97.1446609407 500.89413295 98.0184560103 502.804045851 99.9283689102 c 2
 538.159384909 135.283707969 l 2
 549.914702381 147.039025441 553.855339059 191.783180027 553.855339059 202 c 0
 553.855339059 247.225850394 521.391981871 351.754842808 472.247894817 400.898929861 c 2
 436.892555759 436.254268921 l 2
 431.751520457 441.395304222 426.439832832 445.923737936 420.985305931 449.715286538 c 0
 420.335524599 450.166962283 419.909826623 450.91889514 419.910081589 451.805505891 c 0
 421.777564419 583.7015858 471.50142061 633.869389435 527.031321036 689.612927113 c 0
 548.783142522 711.448433232 571.406803357 734.166996184 592.546588322 763.124977777 c 0
 593.001429644 763.748034569 593.737312366 764.153147408 594.567067604 764.153147408 c 0
 594.983166604 764.153147408 595.375659094 764.051272003 595.720941722 763.871124545 c 2
 630.530246548 745.709748114 l 1
 662.820498434 778 l 1
 629.505329927 811.315168507 l 1
 585.469753452 834.290251886 l 1
 551.661345334 800.481843768 l 1
 523.68052448 750.138637681 490.658344469 716.999440479 459.86231565 686.084931725 c 0
 405.146638356 631.158749698 357.338799908 583.401594151 354.297062255 456.88162034 c 0
 354.273487953 455.90105579 353.68415447 455.059606659 352.843307799 454.67151894 c 0
 344.25987135 450.709885519 336.221357085 445.829465149 330.538182209 441.385002315 c 0
 321.78453585 434.53921847 313.448382354 427.205779685 305.671674091 419.429071422 c 2
 272.168043173 385.925440504 l 2
 271.715516611 385.472913942 271.090516611 385.192860817 270.400622861 385.192860817 c 0
 268.389590061 385.192860817 266.738027388 387.820615665 265.628151268 388.930491786 c 0
 238.831054873 415.72758818 204.819806361 433.479020521 165.838116815 433.479020521 c 0
 161.620363038 433.479020521 157.332496609 432.855339059 153 432.855339059 c 0
 152.877120164 432.855339059 152.756299059 432.864223646 152.638144576 432.88138493 c 0
 147.721490291 433.595501704 142.857638368 433.940729998 138.074266868 433.940729998 c 0
 111.807161111 433.940729998 87.869019776 423.52830075 70.8257313285 406.485012302 c 2
 35.4703922691 371.129673242 l 2
 19.3584677565 355.01774873 9.38630415927 332.976257396 9.38630415927 308.111521091 c 0
 9.38630415927 304.147158663 10.1446609407 300.094210931 10.1446609407 296 c 0
428.197207314 367.570170311 m 0
 428.197207314 368.949957811 429.317419814 370.070170311 430.697207314 370.070170311 c 0
 431.587274668 370.070170311 432.369326992 369.604024542 432.812342856 368.902754431 c 0
 467.130495608 314.578977959 488.144660533 239.655997187 488.144660941 202 c 0
 488.144660941 197.641409453 487.580243594 187.761970332 486.040899099 176.51906498 c 0
 485.874081489 175.300679747 484.827990408 174.360750347 483.564099423 174.360750347 c 0
 482.58578899 174.360750347 481.737972941 174.923907198 481.327421851 175.743450325 c 0
 456.150679794 226.001326671 438.045572688 305.916846275 428.228774895 367.172164419 c 0
 428.208001181 367.301789221 428.197207314 367.434729192 428.197207314 367.570170311 c 0
435.325170019 354.993123275 m 1
 444.94016868 299.268329948 460.948188776 231.685175816 482.099474209 185.694722947 c 1
 482.848509054 193.035685547 483.144660696 199.079884437 483.144660941 202 c 0
 483.144660941 235.712207833 465.074419099 302.793124206 435.325170019 354.993123275 c 1
277.85531149 263.897298989 m 0
 277.85531149 268.752195478 278.506442781 273.520014748 279.118224451 278.022046246 c 0
 279.28395549 279.241642054 280.330611305 280.18285382 281.595364173 280.18285382 c 0
 282.659866348 280.18285382 283.569867429 279.51609448 283.930161621 278.577781596 c 0
 289.558534671 263.919829665 292.811545397 250.320387725 296.16927589 234.920709646 c 0
 300.646084809 214.388562615 305.391903796 192.710465854 306.065698623 172.604680043 c 0
 306.065698623 171.224892543 304.945486123 170.104680043 303.565698623 170.104680043 c 0
 302.630728995 170.104680043 301.814947621 170.619044568 301.386133279 171.37999484 c 0
 285.762718293 199.104445078 277.85531149 231.899716031 277.85531149 263.897298989 c 0
282.916713736 266.416484035 m 1
 282.877148737 265.572109375 282.85531149 263.897298989 282.85531149 263.897298989 c 2
 282.85531149 236.781269261 288.709965303 209.033932952 300.207554868 184.572772588 c 1
 298.528785671 200.569054162 294.84869347 217.502902679 291.283901024 233.852237656 c 0
 288.75695355 245.441666197 286.319924551 255.859066092 282.916713736 266.416484035 c 1
437 750.144660941 m 0
 378.820368967 750.144660941 321.14513178 758.146340262 263.09239716 758.146340262 c 0
 250.105625491 757.673531471 236.348208705 757.519577309 222.112141213 757.519577309 c 0
 194.594825081 757.519577309 166.086784516 758.066078174 138.517509448 758.066078174 c 0
 87.2833853237 758.066078174 36.9642360867 756.234345328 -0.351826381082 746.229651691 c 0
 -0.558575207238 746.174220905 -0.775862794587 746.144660941 -1 746.144660941 c 0
 -1.68989375 746.144660941 -2.31489374999 746.424714066 -2.76742031249 746.877240628 c 2
 -38.1227593718 782.232579687 l 2
 -38.5752859343 782.68510625 -38.8553390593 783.31010625 -38.8553390593 784 c 0
 -38.8553390593 784.68989375 -38.5752859343 785.31489375 -38.1227593718 785.767420313 c 2
 -2.76742031249 821.122759372 l 2
 -2.46191354702 821.428266137 -2.07779715549 821.655163276 -1.64817361892 821.770348309 c 0
 36.5492540114 832.011342022 87.1602398958 833.776756293 138.517509448 833.776756293 c 0
 166.111469406 833.776756293 194.599002308 833.230255428 222.112141213 833.230255428 c 0
 236.311255375 833.230255428 250.103027923 833.385799599 263 833.855339059 c 0
 321.191768961 833.855339059 378.902133916 825.855339059 437 825.855339059 c 0
 462.565005836 825.855339059 489.483094735 827.195134325 515 827.855339059 c 0
 515.68989375 827.855339059 516.31489375 827.575285934 516.767420313 827.122759372 c 2
 552.122759372 791.767420313 l 2
 552.575285934 791.31489375 552.855339059 790.68989375 552.855339059 790 c 0
 552.855339059 789.31010625 552.575285934 788.68510625 552.122759372 788.232579687 c 2
 516.767420313 752.877240628 l 2
 516.329371653 752.439191969 515.729709069 752.162757234 515.066013526 752.145517391 c 0
 489.562382863 751.483047074 462.654885141 750.144660941 437 750.144660941 c 0
138.517509448 763.066078174 m 0
 166.1028839 763.066078174 194.607497419 762.519577309 222.112141213 762.519577309 c 0
 236.311255375 762.519577309 250.010630763 762.673442159 262.90760284 763.14298162 c 0
 321.134073729 763.14298162 378.877096151 755.144660941 437 755.144660941 c 0
 462.179906136 755.144660941 488.812053736 756.4489025 513.938114159 757.117615725 c 1
 546.820498434 790 l 1
 513.992559848 822.827938586 l 1
 488.828944872 822.156935665 462.302364929 820.855339059 437 820.855339059 c 0
 378.796526113 820.855339059 321.086575963 828.855339059 263 828.855339059 c 0
 250.013228331 828.382530269 236.348208705 828.230255428 222.112141213 828.230255428 c 0
 194.58632581 828.230255428 166.095368069 828.776756293 138.517509448 828.776756293 c 0
 87.5770144855 828.776756293 37.5410367926 826.96595906 0.291041671638 817.111540106 c 1
 -32.8204984343 784 l 1
 -0.249853885136 751.429355451 l 1
 37.7796905139 761.343319372 87.7844739002 763.066078174 138.517509448 763.066078174 c 0
EndSplineSet
EndChar
StartChar: uni09B8
Encoding: 2488 2488 144
Width: 656
Flags: HW
HStem: 92.6447 70.7107<136.665 288.241> 442.052 21G<51.7639 52.4163> 744.339 70.7107<-0.60732 318.519> 754.645 70.7107<575.567 645> 766.268 71.0874<223.716 428.366>
VStem: 378.726 70.7107<146.117 199.543> 452.76 70.7107<145.404 197.681>
LayerCount: 2
Fore
SplineSet
522.424310784 132.661201061 m 0
 522.424310784 127.018909867 523.45777536 120.273684757 523.45777536 114.504560925 c 0
 523.45777536 109.95129281 522.959993282 105.358644062 519.889054733 102.287705513 c 2
 484.533715675 66.9323664548 l 2
 482.687919978 65.0865707572 480.092414783 64.1446609407 477 64.1446609407 c 0
 452.481840796 64.1446609407 436.664778887 69.667555022 426.72018663 79.6121472801 c 2
 391.36484757 114.96748634 l 2
 378.447075951 127.885257958 376.225526529 147.30795364 376.225526529 168.881873573 c 0
 376.225526529 183.133866205 377.144660941 197.726555177 377.144660941 212 c 2
 377.144660941 244 l 2
 377.144660941 244.094831689 377.149952492 244.188437222 377.160256182 244.280537189 c 0
 379.192037719 262.441701645 381.289377864 280.668854958 383.548340624 298.940194222 c 1
 375.986319716 303.203358283 368.138477279 307.015284754 360.053152543 310.330472829 c 0
 359.743755007 310.457333661 359.465350259 310.644470057 359.232579687 310.877240628 c 2
 323.877240628 346.232579687 l 2
 323.424714066 346.68510625 323.144660941 347.31010625 323.144660941 348 c 0
 323.144660941 348.68989375 323.424714066 349.31489375 323.877240628 349.767420313 c 2
 359.232579687 385.122759372 l 2
 359.68510625 385.575285934 360.31010625 385.855339059 361 385.855339059 c 0
 361.335026266 385.855339059 361.654748841 385.789295006 361.946847457 385.669527171 c 0
 372.855238025 381.196810565 383.338598576 375.842247405 393.28651455 369.711628756 c 1
 397.755869915 398.640057486 402.934926477 427.608492365 409.201278857 456.531039981 c 0
 435.497309093 577.901401829 484.046991668 684.175527944 525.306428882 792.885930912 c 0
 525.43312225 793.219742717 525.629291635 793.519471319 525.877240628 793.767420313 c 2
 561.232579687 829.122759372 l 2
 561.68510625 829.575285934 562.31010625 829.855339059 563.06199723 829.854583751 c 2
 645.06199723 827.854583751 l 2
 645.550180067 827.842676852 646.003851984 827.690538369 646.384224763 827.436956516 c 2
 658.384224763 819.436956516 l 2
 658.522221573 819.344958643 658.65057081 819.239608874 658.767420313 819.122759372 c 2
 694.122759372 783.767420313 l 2
 694.575285934 783.31489375 694.855339059 782.68989375 694.855339059 782 c 0
 694.855339059 781.31010625 694.575285934 780.68510625 694.122759372 780.232579687 c 2
 658.767420313 744.877240628 l 2
 658.31489375 744.424714066 657.68989375 744.144660941 657 744.144660941 c 0
 656.488247708 744.144660941 656.0122028 744.298758442 655.615775237 744.563043484 c 2
 644.21579381 752.163031102 l 1
 586.18503581 753.578415443 l 1
 548.661797867 657.905596404 507.94362284 562.295164148 484.798720962 455.468959181 c 0
 474.343875336 407.214288505 466.917028907 358.778080397 460.758148358 310.55637933 c 1
 468.221927687 303.0926 l 2
 503.632069351 267.682458337 525.97031263 220.500651378 525.97031263 170.16640532 c 0
 525.97031263 159.392064162 524.94608053 148.480799054 522.809165988 137.519722336 c 0
 522.539776115 136.137601707 522.424310784 134.481115222 522.424310784 132.661201061 c 0
382.144660941 212 m 2
 382.144660941 197.677801207 381.225526529 183.087383786 381.225526529 168.881873573 c 0
 381.225526529 147.448205194 383.663268815 129.738746344 394.899688195 118.502326964 c 2
 430.255027254 83.1469879051 l 2
 438.881028277 74.5209868814 453.158143354 69.1446609407 477 69.1446609407 c 0
 479.119797325 69.1446609407 480.236574878 69.7049069084 480.998875049 70.4672070794 c 2
 516.354214109 105.822546139 l 2
 517.709661504 107.177993534 518.45777536 110.197270654 518.45777536 114.504560925 c 0
 518.45777536 120.146762645 517.424310784 126.892002434 517.424310784 132.661201061 c 0
 517.424310784 134.687947172 517.543491081 136.643429563 517.90151213 138.480277664 c 0
 519.976945606 149.125993768 520.97031263 159.715115928 520.97031263 170.16640532 c 0
 520.97031263 218.988451672 499.277992939 264.966853499 464.687087062 299.557759375 c 2
 456.355544175 307.889302262 l 2
 455.903017613 308.341828825 455.622964488 308.966828825 455.622964488 309.656722575 c 0
 455.622964488 309.764531647 455.629803394 309.870756011 455.643070671 309.974985134 c 0
 461.842984531 358.682160079 469.326167979 407.671996037 479.911957156 456.531040819 c 0
 503.320503403 564.574106737 544.413840297 660.675898846 582.167140622 757.031057798 c 0
 582.531532097 757.961069165 583.437292277 758.620372505 584.55782308 758.619617197 c 2
 645.06199723 757.143905633 l 2
 645.550180067 757.131998734 646.003851984 756.979860251 646.384224763 756.726278398 c 2
 656.681756004 749.86125757 l 1
 688.820498434 782 l 1
 655.408780022 815.411718412 l 1
 644.21579381 822.87370922 l 1
 564.009462763 824.829961197 l 1
 529.792760411 790.613258845 l 1
 488.658507391 682.29805721 440.202778776 576.002550036 414.088043025 455.468960019 c 0
 407.576428376 425.414396644 402.239331564 395.289472275 397.651747709 365.189726727 c 0
 397.468831741 363.989590822 396.431273329 363.068875466 395.180367281 363.068875466 c 0
 394.684863589 363.068875466 394.222835795 363.213342844 393.83414271 363.462418791 c 0
 383.643007366 369.992935484 372.849349587 375.682242601 361.585301054 380.405799488 c 1
 329.179501566 348 l 1
 362.412029842 314.767471724 l 1
 371.053631175 311.200379591 379.426900047 307.07955925 387.476780207 302.457831804 c 0
 388.228155992 302.026439781 388.73468593 301.215990839 388.73468593 300.288169068 c 0
 388.73468593 300.182995136 388.72817726 300.079329388 388.715541082 299.977552987 c 0
 386.38748971 281.226576312 384.231849728 262.512534324 382.144660941 243.858851291 c 1
 382.144660941 212 l 2
446.936204271 168.88187079 m 0
 446.936204271 178.804352833 447.429507754 189.627026341 447.680615488 199.606953984 c 0
 447.714590357 200.957237919 448.821404619 202.043003136 450.179811777 202.043003136 c 0
 451.410906188 202.043003136 452.435357375 201.151221096 452.64186065 199.978961704 c 0
 454.362011488 190.214162675 455.25963466 180.25328 455.25963466 170.166404301 c 0
 455.25963466 161.856543669 454.650387987 153.465202229 453.391261473 145.032364535 c 0
 453.211521684 143.828580444 452.172254577 142.904041551 450.918753845 142.904041551 c 0
 449.671075521 142.904041551 448.635645247 143.820011578 448.448806415 145.015608241 c 0
 447.285930752 152.45694282 446.936204271 160.474314595 446.936204271 168.88187079 c 0
419.268359209 763.537765394 m 1
 307.209340932 760.404472314 195.169726004 746.144660941 81 746.144660941 c 0
 64.1502862696 746.144660941 44.8424395312 741.838519805 27.7372565646 741.838519805 c 0
 17.0322515574 741.838519805 6.66209602702 743.359635581 -2.24266971705 748.475328687 c 0
 -2.43512656071 748.585893095 -2.61150999112 748.721330307 -2.76742031249 748.877240628 c 2
 -38.1227593718 784.232579687 l 2
 -38.5752859343 784.68510625 -38.8553390593 785.31010625 -38.8553390593 786 c 0
 -38.8553390593 786.68989375 -38.5752859343 787.31489375 -38.1227593718 787.767420313 c 2
 -2.76742031249 823.122759372 l 2
 -2.31489374999 823.575285934 -1.68989375 823.855339059 -1 823.855339059 c 0
 -0.54779739396 823.855339059 -0.12347554561 823.735017868 0.242669716851 823.524671313 c 0
 8.04385850779 819.042971416 17.4876572262 817.549197924 27.7372565646 817.549197924 c 0
 44.6702284964 817.549197924 63.952057915 821.855339059 81 821.855339059 c 0
 208.213216694 821.855339059 333.75726174 839.855339059 461 839.855339059 c 0
 466.512722878 839.855339059 504.954313087 829.347779106 512.8561816 821.445910593 c 2
 548.211520659 786.090571533 l 2
 549.044374987 785.257717205 549.949935474 784.133229535 549.949935474 782.498383956 c 0
 549.949935474 781.395212183 549.43318875 780.387639128 548.747824723 779.702275103 c 2
 513.392485663 744.346936043 l 2
 513.044058764 743.998509143 512.66363656 743.722934812 512.265377785 743.488533443 c 0
 390.059205384 671.563640399 272.684675291 592.34104991 157.947962855 514.643109884 c 1
 223.185311844 508.441246376 292.457106701 491.556541951 335.004124644 449.009524021 c 2
 370.359463704 413.654184961 l 2
 395.289986057 388.723662608 410.855339059 355.005451952 410.855339059 310 c 0
 410.855339059 259.258455656 389.166717025 207.055733372 353.24872273 171.137739076 c 2
 317.89338367 135.782400017 l 2
 290.265857008 108.154873355 254.136540209 90.1446609407 213 90.1446609407 c 0
 170.713368952 90.1446609407 138.788662615 109.846890709 107.032980779 129.372272769 c 0
 91.1191022432 139.157121983 75.2119608355 148.928346635 58.011631418 156.347938893 c 0
 57.7188257998 156.474244515 57.454890244 156.654930072 57.2325796875 156.877240628 c 2
 21.8772406282 192.232579687 l 2
 21.6395088878 192.470311428 21.4493773066 192.755643328 21.3224435485 193.072977723 c 2
 5.3224435485 233.072977723 l 2
 5.2077566585 233.359694948 5.14466094067 233.672537222 5.14466094067 234 c 0
 5.14466094067 234.68989375 5.42471406567 235.31489375 5.87724062818 235.767420313 c 2
 41.2325796875 271.122759372 l 2
 41.68510625 271.575285934 42.31010625 271.855339059 43 271.855339059 c 0
 43.68989375 271.855339059 44.31489375 271.575285934 44.7674203125 271.122759372 c 2
 80.1227593718 235.767420313 l 2
 80.3604911123 235.529688572 80.5506226934 235.244356672 80.6775564515 234.927022277 c 2
 87.6132963955 217.587672417 l 1
 124.255006184 196.542323312 163.029792042 165.855339059 213 165.855339059 c 0
 243.980367718 165.855339059 272.052458963 176.441851959 295.669744212 193.895813376 c 1
 320.57579614 226.995878015 330.906225249 297.533852649 335.144660941 310 c 1
 335.144660941 343.277513826 326.464238403 369.901263906 311.79323616 391.302422963 c 1
 251.617788147 434.051976465 156.469322343 442.144660388 85 442.144660941 c 0
 75.3063166458 442.144660941 64.7938795469 440.144660941 55 440.144660941 c 0
 54.1117406684 439.976961801 53.2857109324 439.552213024 51.9382957176 439.552213024 c 0
 51.3934627247 439.552213024 50.3280635482 439.552213024 49.3731502809 440.507126293 c 2
 14.0178112218 475.862465352 l 2
 13.4310746339 476.449201937 13.1446609407 477.290550355 13.1446609407 478 c 0
 13.1446609407 481.143567352 15.3929154045 483.839842318 18.1544140838 486.601340999 c 2
 53.5097531431 521.956680057 l 2
 63.6001723076 532.047099222 87.4221248242 546.08272509 104.245761191 556.064586696 c 0
 121.082644215 566.054307857 131.85061033 573.718029517 146.477149194 583.623740572 c 0
 235.457740595 643.885162371 326.044987722 705.235365365 419.268359209 763.537765394 c 1
27.7372565646 746.838519805 m 0
 44.661130896 746.838519805 63.9610523527 751.144660941 81 751.144660941 c 0
 198.016845003 751.144660941 312.970374309 766.184510436 428.365950127 768.767897056 c 0
 429.745737627 768.767897056 430.865950127 767.647684556 430.865950127 766.267897056 c 0
 430.865950127 765.371941658 430.393616589 764.585435116 429.684586153 764.144014071 c 0
 331.090465922 702.762277286 235.386768984 638.216447396 141.479928766 574.177346238 c 0
 130.144477373 566.447215858 120.773051453 560.05677064 106.791736313 551.761325486 c 0
 90.0428745546 541.823829424 66.203786021 527.581031686 57.0445937681 518.421839433 c 2
 21.6892547088 483.066500373 l 2
 19.7218836861 481.09912935 18.7144617642 479.491584959 18.3316746666 478.618283157 c 2
 52.3203198929 444.629637931 l 2
 53.1761538807 444.818445875 53.7440145147 445.144660941 55 445.144660941 c 0
 64.6376450422 445.144660941 75.1572116069 447.144660941 85 447.144660941 c 0
 156.869225173 447.144660941 253.234877898 439.27915798 315.053694647 395.118109742 c 0
 315.290215089 394.949148394 315.496107193 394.740012963 315.661366949 394.50070746 c 0
 331.082238692 372.170410303 340.144660941 344.365486624 340.144660941 310 c 0
 340.144660941 267.794985946 325.137240143 224.607488203 299.443990436 190.597411595 c 0
 299.299680966 190.406389589 299.128600094 190.236698728 298.93634996 190.093941154 c 0
 274.507933847 171.954336561 245.288661693 160.855339059 213 160.855339059 c 0
 160.656356062 160.855339059 121.660389046 192.382552121 84.3775253602 213.678847953 c 0
 83.8890730017 213.957856186 83.5035740631 214.396846733 83.2926225023 214.924225635 c 2
 76.2235223042 232.59697613 l 1
 43 265.820498434 l 1
 10.5782056214 233.398704056 l 1
 25.7764776958 195.40302387 l 1
 60.4286595332 160.750842033 l 1
 77.8904215469 153.169685525 93.8676060129 143.336586998 109.646528763 133.634717053 c 0
 141.479032557 114.062100041 172.364565396 95.1446609407 213 95.1446609407 c 0
 252.616320229 95.1446609407 287.502177088 112.460874685 314.358543045 139.317240642 c 2
 349.713882104 174.672579702 l 2
 384.647919019 209.606616616 405.855339059 260.653047276 405.855339059 310 c 0
 405.855339059 353.794869228 390.843559991 386.100407424 366.824623078 410.119344336 c 2
 331.469284018 445.474683396 l 2
 288.883646757 488.060320658 217.391482184 504.667684457 150.524724165 510.28737574 c 0
 149.2438907 510.395020987 148.236497585 511.470051556 148.236497585 512.778514682 c 0
 148.236497585 513.640013218 148.673199493 514.400319437 149.337121036 514.849951067 c 0
 265.923586319 593.806513005 385.284492705 674.55520617 509.734622215 747.800788439 c 0
 509.819520032 747.850756364 509.860481814 747.884791248 509.863585008 747.88750912 c 2
 544.604141443 782.628269499 l 1
 509.321340974 817.911069969 l 2
 503.680976411 823.551434532 464.51953565 834.855339059 461 834.855339059 c 0
 333.868095364 834.855339059 208.320054806 816.855339059 81 816.855339059 c 0
 64.141349128 816.855339059 44.851587095 812.549197924 27.7372565646 812.549197924 c 0
 17.7023682526 812.549197924 7.96171943227 813.885835319 -0.553446819905 818.267051614 c 1
 -32.8204984343 786 l 1
 0.52728459384 752.652216972 l 1
 8.27308848635 748.296273383 17.6119875 746.838519805 27.7372565646 746.838519805 c 0
EndSplineSet
EndChar
